<?xml version="1.0" encoding="UTF-8"?>
<svg id="Layer_2" data-name="Layer 2" xmlns="http://www.w3.org/2000/svg" viewBox="0 0 1762.61 635.68"
  preserveAspectRatio="none">

  <g id="Layer_1-2" data-name="Layer 1">
    <g>
      <g>
        <path class="cls-1"
          d="M12.44,44.12c-1.51,0-2.98-.28-4.41-.83-1.43-.55-2.69-1.3-3.8-2.24-1.11-.93-2-2.03-2.67-3.29-.67-1.25-1.01-2.57-1.01-3.93,0-1.49.36-2.87,1.07-4.15.72-1.28,1.67-2.29,2.86-3.04,1.19-.75,2.49-1.12,3.9-1.12,1.58,0,2.86.43,3.86,1.31,1,.87,1.5,2,1.5,3.39,0,1-.26,1.84-.77,2.52-.51.68-1.15,1.02-1.92,1.02-1.22,0-1.89-.83-2.01-2.49.45.17.84.26,1.18.26.66,0,1.18-.19,1.57-.57.38-.38.57-.86.57-1.44,0-.79-.34-1.45-1.04-1.99-.69-.54-1.58-.81-2.67-.81-1.66,0-3.04.56-4.13,1.67-1.1,1.12-1.64,2.5-1.64,4.14,0,1.32.37,2.54,1.11,3.67.75,1.13,1.77,2.01,3.07,2.64,1.3.63,2.72.94,4.28.94,1.94,0,3.69-.47,5.27-1.42,1.58-.95,2.81-2.25,3.71-3.9.9-1.65,1.34-3.52,1.34-5.61,0-2.32-.63-4.5-1.89-6.53-1.25-2.03-2.96-3.64-5.11-4.82s-4.44-1.77-6.87-1.77c-.58,0-1.32.06-2.24.19l-.13-.93c.87-.21,1.79-.32,2.75-.32,3.94,0,7.3,1.04,10.09,3.13,1.55,1.17,2.88,2.51,3.99,4.01,1.1,1.5,1.96,3.14,2.56,4.91.6,1.76.89,3.53.89,5.3,0,1.53-.16,2.89-.49,4.07-.33,1.18-.9,2.41-1.71,3.69.96.26,1.69.69,2.19,1.29.5.61.75,1.36.75,2.25,0,1.3-.43,2.42-1.29,3.36-.86.94-2.29,1.8-4.27,2.59-1.49.6-2.64,1.14-3.45,1.63s-1.39,1.01-1.74,1.58c-.35.56-.52,1.2-.52,1.9,0,.81.25,1.47.77,1.98.51.51,1.18.77,2.01.77.64,0,1.19-.2,1.65-.6.46-.41.68-.89.68-1.47,0-.32-.09-.6-.29-.83-.19-.24-.45-.35-.77-.35-.11,0-.38.06-.83.19.45-.53.93-.8,1.44-.8s.89.19,1.21.58c.32.38.48.83.48,1.34,0,.85-.37,1.58-1.1,2.2-.73.62-1.63.93-2.7.93s-2.03-.23-3.02-.7c-.99-.47-1.87-1.1-2.64-1.89-.77-.79-1.37-1.68-1.81-2.68-.43-1-.65-2.03-.65-3.1,0-1.13.21-2.13.64-3.02.42-.88,1.15-1.82,2.17-2.79ZM22.72,40.83c-1.06,1.24-2.33,2.4-3.8,3.48-1.98,1.49-3.27,2.58-3.86,3.26-1.17,1.4-1.76,2.8-1.76,4.19,0,.74.27,1.58.8,2.49.05-1.3.41-2.41,1.09-3.32.45-.56.97-1.01,1.57-1.37.6-.36,1.73-.9,3.41-1.6,1.66-.66,2.87-1.33,3.61-2.01.75-.69,1.12-1.51,1.12-2.5,0-1.45-.73-2.32-2.17-2.62Z" />
        <path class="cls-1"
          d="M47.47,9.72c.88-.43,1.89-.64,3.02-.64,1.07,0,2.1.22,3.1.65,1,.44,1.89,1.04,2.68,1.81.79.77,1.41,1.64,1.88,2.63.47.99.7,2,.7,3.02s-.31,1.97-.93,2.7c-.62.74-1.35,1.1-2.2,1.1-.51,0-.96-.16-1.34-.48-.38-.32-.58-.72-.58-1.21s.27-.99.8-1.44c-.13.45-.19.72-.19.83,0,.32.12.58.35.77.23.19.51.29.83.29.58,0,1.07-.23,1.47-.69.41-.46.6-1,.6-1.64,0-.83-.25-1.5-.77-2.01-.51-.51-1.17-.77-1.98-.77-.7,0-1.34.17-1.9.52-.56.35-1.09.93-1.58,1.74-.49.81-1.03,1.96-1.63,3.45-.79,1.98-1.65,3.4-2.59,4.26-.94.86-2.06,1.29-3.35,1.29-.9,0-1.65-.25-2.25-.75-.61-.5-1.04-1.23-1.29-2.19-1.28.81-2.51,1.38-3.69,1.71-1.18.33-2.54.49-4.07.49-1.77,0-3.54-.3-5.3-.89-1.77-.6-3.4-1.45-4.91-2.56-1.5-1.11-2.83-2.44-4.01-3.99-2.08-2.79-3.13-6.16-3.13-10.1,0-.96.11-1.87.32-2.74l.92.13c-.13.91-.19,1.66-.19,2.23,0,2.43.59,4.72,1.77,6.87,1.18,2.15,2.79,3.85,4.82,5.11,2.03,1.26,4.21,1.89,6.53,1.89,2.09,0,3.96-.45,5.6-1.34,1.65-.89,2.95-2.13,3.9-3.7.95-1.58,1.42-3.33,1.42-5.27,0-1.55-.32-2.98-.94-4.28-.63-1.3-1.51-2.32-2.64-3.07-1.13-.74-2.35-1.12-3.67-1.12-1.64,0-3.02.55-4.14,1.65-1.11,1.09-1.67,2.47-1.67,4.13,0,1.09.27,1.98.82,2.67.54.69,1.21,1.04,2,1.04.57,0,1.05-.19,1.44-.58.38-.38.57-.91.57-1.57,0-.34-.08-.73-.25-1.18,1.66.13,2.49.8,2.49,2.02,0,.77-.34,1.4-1.02,1.92-.68.51-1.52.76-2.52.76-1.39,0-2.51-.5-3.39-1.5-.87-1-1.31-2.29-1.31-3.87,0-1.4.37-2.7,1.12-3.9.75-1.19,1.76-2.15,3.04-2.86,1.28-.71,2.66-1.07,4.15-1.07,1.36,0,2.67.34,3.93,1.01,1.26.67,2.36,1.56,3.29,2.67.94,1.1,1.68,2.37,2.23,3.8.56,1.43.83,2.9.83,4.41.98-1.02,1.91-1.74,2.79-2.17ZM44.01,24.34c.98,0,1.81-.38,2.49-1.12.68-.75,1.35-1.95,2.01-3.61.7-1.68,1.24-2.82,1.6-3.42.36-.6.82-1.12,1.37-1.56.92-.69,2.02-1.05,3.32-1.09-.92-.53-1.75-.8-2.49-.8-1.38,0-2.78.59-4.19,1.76-.68.6-1.76,1.88-3.26,3.87-1.09,1.47-2.25,2.74-3.48,3.8.3,1.45,1.17,2.17,2.62,2.17Z" />
      </g>
      <g>
        <path class="cls-1"
          d="M1752.9,46.92c.42.88.64,1.89.64,3.02,0,1.06-.22,2.1-.65,3.1-.44,1-1.04,1.89-1.8,2.68-.77.79-1.65,1.41-2.64,1.89-.99.47-2,.7-3.02.7s-1.97-.31-2.7-.93c-.73-.62-1.1-1.35-1.1-2.2,0-.51.16-.96.48-1.34.32-.38.73-.58,1.21-.58.51,0,.99.26,1.44.8-.45-.13-.73-.19-.83-.19-.32,0-.57.11-.77.35-.19.24-.29.51-.29.83,0,.58.23,1.06.69,1.47.46.4,1,.6,1.64.6.83,0,1.5-.25,2.02-.77.51-.51.77-1.17.77-1.98,0-.7-.18-1.34-.53-1.9-.35-.57-.93-1.09-1.74-1.58-.81-.49-1.96-1.03-3.45-1.63-1.98-.79-3.4-1.65-4.26-2.59-.86-.94-1.3-2.06-1.3-3.36,0-.89.25-1.64.75-2.25.5-.6,1.23-1.04,2.19-1.29-.81-1.28-1.38-2.51-1.71-3.69-.33-1.18-.49-2.54-.49-4.07,0-1.77.29-3.54.89-5.3.6-1.77,1.45-3.4,2.56-4.91,1.11-1.5,2.44-2.83,3.99-4.01,2.79-2.09,6.15-3.13,10.09-3.13.96,0,1.87.11,2.74.32l-.13.93c-.91-.13-1.66-.19-2.24-.19-2.43,0-4.72.59-6.87,1.77-2.15,1.18-3.85,2.79-5.11,4.82-1.26,2.03-1.89,4.21-1.89,6.53,0,2.09.45,3.96,1.34,5.61.9,1.65,2.13,2.95,3.71,3.9,1.58.95,3.33,1.42,5.27,1.42,1.55,0,2.98-.31,4.28-.94,1.3-.63,2.32-1.5,3.07-2.64.75-1.13,1.12-2.35,1.12-3.67,0-1.64-.55-3.02-1.64-4.14-1.1-1.12-2.48-1.67-4.14-1.67-1.09,0-1.98.27-2.67.81-.69.55-1.04,1.21-1.04,1.99,0,.58.19,1.06.58,1.44.38.38.9.57,1.56.57.34,0,.74-.09,1.18-.26-.13,1.66-.8,2.49-2.01,2.49-.77,0-1.41-.34-1.92-1.02-.51-.68-.77-1.52-.77-2.52,0-1.39.5-2.51,1.5-3.39,1-.87,2.29-1.31,3.86-1.31,1.4,0,2.7.37,3.9,1.12,1.19.74,2.15,1.76,2.86,3.04.71,1.28,1.07,2.66,1.07,4.15,0,1.36-.34,2.67-1,3.93-.67,1.26-1.56,2.36-2.67,3.29-1.1.94-2.37,1.68-3.8,2.24-1.43.55-2.9.83-4.41.83,1.02.98,1.74,1.91,2.17,2.79ZM1738.27,43.45c0,.98.37,1.81,1.12,2.5.74.68,1.95,1.35,3.61,2.01,1.68.7,2.82,1.24,3.41,1.6.6.36,1.12.82,1.57,1.37.68.91,1.04,2.02,1.09,3.32.53-.91.8-1.75.8-2.49,0-1.39-.58-2.78-1.76-4.19-.6-.68-1.89-1.76-3.86-3.26-1.47-1.09-2.74-2.25-3.81-3.48-1.45.3-2.17,1.17-2.17,2.62Z" />
        <path class="cls-1"
          d="M1718.49,11.88c0-1.51.28-2.98.83-4.41.56-1.43,1.3-2.69,2.24-3.8.94-1.11,2.03-2,3.29-2.67,1.26-.68,2.56-1.01,3.93-1.01,1.49,0,2.88.36,4.16,1.07,1.27.71,2.29,1.67,3.03,2.86.75,1.19,1.12,2.49,1.12,3.9,0,1.58-.44,2.87-1.31,3.87-.87,1-2,1.5-3.39,1.5-1,0-1.84-.25-2.52-.76-.69-.51-1.02-1.15-1.02-1.92,0-1.22.83-1.89,2.49-2.02-.17.45-.25.84-.25,1.18,0,.66.19,1.18.58,1.57.38.38.86.58,1.44.58.79,0,1.45-.34,2-1.04.54-.69.82-1.58.82-2.67,0-1.66-.56-3.04-1.68-4.13-1.12-1.1-2.5-1.65-4.14-1.65-1.32,0-2.55.38-3.67,1.12-1.13.75-2.01,1.77-2.64,3.07-.63,1.3-.94,2.73-.94,4.28,0,1.94.48,3.7,1.42,5.27.95,1.58,2.25,2.81,3.9,3.7,1.65.9,3.52,1.34,5.6,1.34,2.32,0,4.5-.63,6.53-1.89,2.03-1.25,3.64-2.96,4.82-5.11,1.18-2.15,1.77-4.44,1.77-6.87,0-.57-.07-1.32-.19-2.23l.92-.13c.21.87.32,1.79.32,2.74,0,3.94-1.05,7.31-3.13,10.1-1.18,1.55-2.51,2.88-4.01,3.99-1.5,1.11-3.14,1.96-4.9,2.56-1.77.6-3.54.89-5.31.89-1.53,0-2.89-.16-4.07-.49-1.18-.33-2.41-.9-3.69-1.71-.25.96-.68,1.69-1.29,2.19-.61.5-1.36.75-2.25.75-1.3,0-2.42-.43-3.35-1.29-.94-.86-1.8-2.29-2.59-4.26-.6-1.49-1.14-2.64-1.63-3.45-.49-.81-1.02-1.39-1.58-1.74-.56-.35-1.2-.52-1.9-.52-.81,0-1.47.25-1.98.77-.51.51-.77,1.18-.77,2.01,0,.64.2,1.19.61,1.64.4.46.89.69,1.47.69.32,0,.6-.1.83-.29.23-.19.35-.45.35-.77,0-.11-.06-.38-.19-.83.53.45.8.93.8,1.44s-.19.9-.58,1.21c-.38.32-.83.48-1.34.48-.85,0-1.58-.37-2.2-1.1-.62-.73-.92-1.63-.92-2.7s.23-2.03.7-3.02c.47-.99,1.1-1.87,1.89-2.63.79-.77,1.68-1.37,2.68-1.81,1-.43,2.03-.65,3.1-.65,1.13,0,2.13.21,3.02.64.88.42,1.81,1.14,2.79,2.17ZM1721.78,22.17c-1.23-1.06-2.39-2.33-3.48-3.8-1.49-1.98-2.58-3.27-3.26-3.87-1.4-1.17-2.8-1.76-4.18-1.76-.75,0-1.58.26-2.5.8,1.3.04,2.41.4,3.32,1.09.55.44,1.01.97,1.37,1.56.36.6.9,1.73,1.6,3.42.66,1.66,1.33,2.86,2.01,3.61.68.74,1.51,1.12,2.49,1.12,1.45,0,2.32-.73,2.62-2.17Z" />
      </g>
      <path class="cls-1"
        d="M69.25,10.12c-.77,12.95-15.28,24.45-29.33,24.1,14.43-4.08,22.03-10.56,25.55-25.55h1631.11c3.52,15,11.13,21.47,25.55,25.55-14.05.34-28.72-10.99-29.33-24.1H69.25Z" />
      <g>
        <path class="cls-1"
          d="M9.71,588.77c-.43-.88-.64-1.89-.64-3.02,0-1.06.22-2.1.65-3.1.44-1,1.04-1.9,1.81-2.69.77-.79,1.64-1.42,2.64-1.88.99-.47,2-.7,3.02-.7s1.96.31,2.7.92c.74.62,1.1,1.36,1.1,2.21,0,.51-.16.96-.48,1.34-.32.38-.72.57-1.21.57s-.99-.27-1.44-.8c.45.13.72.19.83.19.32,0,.58-.12.77-.35.19-.24.29-.51.29-.83,0-.58-.23-1.07-.68-1.47-.46-.4-1.01-.61-1.65-.61-.83,0-1.5.25-2.01.77-.51.51-.77,1.17-.77,1.98,0,.7.18,1.34.52,1.9.35.56.93,1.09,1.74,1.58.81.49,1.96,1.03,3.45,1.63,1.98.79,3.41,1.65,4.27,2.59.86.94,1.29,2.06,1.29,3.36,0,.89-.25,1.65-.75,2.25-.5.61-1.23,1.04-2.19,1.3.81,1.28,1.38,2.51,1.71,3.69.33,1.18.49,2.54.49,4.07,0,1.77-.29,3.54-.89,5.3-.6,1.77-1.45,3.4-2.56,4.9-1.11,1.5-2.44,2.84-3.99,4.01-2.79,2.09-6.16,3.13-10.09,3.13-.96,0-1.87-.11-2.75-.32l.13-.93c.91.13,1.66.19,2.24.19,2.43,0,4.71-.59,6.87-1.77,2.15-1.18,3.85-2.79,5.11-4.83,1.26-2.03,1.89-4.21,1.89-6.53,0-2.09-.45-3.96-1.34-5.61-.89-1.65-2.13-2.95-3.71-3.9-1.58-.95-3.33-1.42-5.27-1.42-1.56,0-2.98.31-4.28.94-1.3.62-2.32,1.5-3.07,2.63-.74,1.13-1.11,2.36-1.11,3.68,0,1.64.55,3.02,1.64,4.13,1.09,1.12,2.47,1.68,4.13,1.68,1.09,0,1.98-.27,2.67-.82.69-.54,1.04-1.21,1.04-2,0-.57-.19-1.05-.57-1.44-.38-.38-.9-.57-1.57-.57-.34,0-.73.08-1.18.26.13-1.66.8-2.5,2.01-2.5.77,0,1.4.34,1.92,1.02.51.68.77,1.52.77,2.52,0,1.38-.5,2.51-1.5,3.39-1,.87-2.29,1.31-3.86,1.31-1.41,0-2.7-.37-3.9-1.12-1.19-.74-2.14-1.76-2.86-3.03-.71-1.28-1.07-2.66-1.07-4.15,0-1.36.34-2.67,1.01-3.93.67-1.26,1.56-2.35,2.67-3.29,1.11-.93,2.37-1.68,3.8-2.23,1.43-.56,2.9-.83,4.41-.83-1.02-.98-1.75-1.91-2.17-2.79ZM24.34,592.24c0-.98-.37-1.81-1.12-2.49-.74-.68-1.95-1.35-3.61-2.01-1.68-.7-2.82-1.23-3.41-1.6-.6-.36-1.12-.82-1.57-1.37-.68-.91-1.04-2.02-1.09-3.32-.53.91-.8,1.74-.8,2.49,0,1.38.59,2.78,1.76,4.18.59.68,1.88,1.77,3.86,3.26,1.47,1.09,2.74,2.25,3.8,3.48,1.45-.3,2.17-1.17,2.17-2.62Z" />
        <path class="cls-1"
          d="M44.12,623.8c0,1.51-.28,2.98-.83,4.41-.55,1.43-1.3,2.69-2.23,3.8-.94,1.11-2.03,2-3.29,2.67-1.25.67-2.56,1-3.93,1-1.49,0-2.87-.35-4.15-1.07-1.28-.71-2.29-1.67-3.04-2.86-.74-1.19-1.12-2.49-1.12-3.9,0-1.58.43-2.87,1.31-3.87s2-1.5,3.39-1.5c1,0,1.84.25,2.52.77.68.51,1.02,1.15,1.02,1.92,0,1.21-.83,1.89-2.49,2.01.17-.45.25-.84.25-1.18,0-.66-.19-1.18-.57-1.56-.38-.38-.86-.57-1.44-.57-.79,0-1.45.34-2,1.04-.55.69-.82,1.58-.82,2.67,0,1.66.56,3.04,1.67,4.13,1.12,1.1,2.5,1.65,4.14,1.65,1.32,0,2.55-.38,3.67-1.12,1.13-.75,2.01-1.77,2.64-3.07.63-1.3.94-2.73.94-4.28,0-1.94-.47-3.7-1.42-5.27-.95-1.58-2.25-2.81-3.9-3.71-1.65-.9-3.52-1.34-5.6-1.34-2.32,0-4.5.63-6.53,1.88-2.03,1.26-3.64,2.96-4.82,5.11-1.18,2.15-1.77,4.44-1.77,6.87,0,.58.06,1.32.19,2.24l-.92.12c-.21-.87-.32-1.79-.32-2.74,0-3.94,1.05-7.3,3.13-10.09,1.17-1.55,2.51-2.88,4.01-3.99,1.5-1.11,3.14-1.96,4.91-2.56,1.77-.59,3.54-.89,5.3-.89,1.53,0,2.89.16,4.07.5,1.18.33,2.41.9,3.69,1.71.25-.96.69-1.68,1.29-2.19.6-.5,1.36-.75,2.25-.75,1.3,0,2.41.43,3.35,1.29.94.86,1.8,2.28,2.59,4.27.6,1.49,1.14,2.64,1.63,3.45.49.81,1.02,1.39,1.58,1.74.56.35,1.2.53,1.9.53.81,0,1.47-.25,1.98-.77.51-.51.77-1.18.77-2.01,0-.64-.2-1.19-.6-1.65-.4-.46-.89-.69-1.47-.69-.32,0-.6.1-.83.29-.24.19-.35.45-.35.77,0,.1.07.38.19.83-.53-.45-.8-.93-.8-1.44s.19-.9.58-1.21c.38-.32.83-.48,1.34-.48.85,0,1.59.37,2.2,1.1.62.74.93,1.63.93,2.7s-.23,2.03-.7,3.02c-.47.99-1.09,1.87-1.88,2.64-.79.77-1.69,1.37-2.68,1.81-1,.43-2.03.65-3.1.65-1.13,0-2.13-.21-3.02-.64-.88-.42-1.82-1.15-2.79-2.17ZM40.83,613.52c1.24,1.06,2.4,2.33,3.48,3.8,1.49,1.98,2.58,3.27,3.26,3.86,1.41,1.17,2.8,1.76,4.19,1.76.75,0,1.58-.26,2.49-.8-1.3-.04-2.41-.4-3.32-1.09-.55-.44-1.01-.97-1.37-1.56-.36-.6-.9-1.74-1.6-3.42-.66-1.66-1.33-2.86-2.01-3.61-.68-.74-1.51-1.12-2.49-1.12-1.45,0-2.32.72-2.62,2.17Z" />
      </g>
      <g>
        <path class="cls-1"
          d="M1750.17,591.57c1.51,0,2.98.28,4.41.83,1.43.55,2.69,1.3,3.8,2.23,1.11.94,2,2.03,2.67,3.29.67,1.26,1,2.56,1,3.93,0,1.49-.36,2.87-1.07,4.15-.71,1.28-1.67,2.29-2.86,3.03-1.19.75-2.49,1.12-3.9,1.12-1.58,0-2.86-.43-3.86-1.31-1-.87-1.5-2-1.5-3.39,0-1,.26-1.84.77-2.52.51-.68,1.15-1.02,1.92-1.02,1.21,0,1.88.83,2.01,2.5-.45-.17-.84-.26-1.18-.26-.66,0-1.18.19-1.56.57-.38.38-.58.87-.58,1.44,0,.79.35,1.45,1.04,2,.69.54,1.58.82,2.67.82,1.66,0,3.04-.56,4.14-1.68,1.09-1.12,1.64-2.49,1.64-4.13,0-1.32-.37-2.55-1.12-3.68-.74-1.13-1.76-2.01-3.07-2.63-1.3-.63-2.73-.94-4.28-.94-1.94,0-3.69.47-5.27,1.42-1.58.95-2.81,2.25-3.71,3.9-.89,1.65-1.34,3.52-1.34,5.61,0,2.32.63,4.5,1.89,6.53,1.26,2.03,2.96,3.64,5.11,4.83,2.15,1.18,4.44,1.77,6.87,1.77.57,0,1.32-.06,2.24-.19l.13.93c-.87.21-1.79.32-2.74.32-3.94,0-7.31-1.04-10.09-3.13-1.55-1.17-2.89-2.51-3.99-4.01-1.11-1.5-1.96-3.14-2.56-4.9-.6-1.77-.89-3.53-.89-5.3,0-1.53.16-2.89.49-4.07.33-1.18.9-2.41,1.71-3.69-.95-.26-1.69-.69-2.19-1.3-.5-.6-.75-1.36-.75-2.25,0-1.3.43-2.42,1.3-3.36.86-.94,2.28-1.8,4.26-2.59,1.49-.6,2.65-1.14,3.45-1.63.81-.49,1.39-1.02,1.74-1.58.35-.56.53-1.2.53-1.9,0-.81-.25-1.47-.77-1.98-.51-.51-1.18-.77-2.02-.77-.64,0-1.19.2-1.64.61-.46.4-.69.89-.69,1.47,0,.32.1.6.29.83.19.23.45.35.77.35.11,0,.38-.07.83-.19-.45.53-.93.8-1.44.8s-.89-.19-1.21-.57c-.32-.38-.48-.83-.48-1.34,0-.85.37-1.59,1.1-2.21.74-.61,1.64-.92,2.7-.92s2.03.24,3.02.7c.99.46,1.87,1.09,2.64,1.88.77.79,1.37,1.68,1.8,2.69.43,1,.65,2.03.65,3.1,0,1.13-.21,2.13-.64,3.02-.43.88-1.15,1.82-2.17,2.79ZM1739.88,594.86c1.07-1.24,2.33-2.4,3.81-3.48,1.98-1.49,3.27-2.58,3.86-3.26,1.17-1.4,1.76-2.8,1.76-4.18,0-.75-.27-1.58-.8-2.49-.04,1.3-.41,2.4-1.09,3.32-.45.56-.97,1.01-1.57,1.37-.59.36-1.73.9-3.41,1.6-1.66.66-2.87,1.33-3.61,2.01-.75.68-1.12,1.51-1.12,2.49,0,1.45.73,2.32,2.17,2.62Z" />
        <path class="cls-1"
          d="M1715.14,625.97c-.88.42-1.89.64-3.02.64s-2.1-.22-3.1-.65c-1-.44-1.89-1.04-2.68-1.81-.79-.77-1.42-1.64-1.89-2.64-.47-.99-.7-1.99-.7-3.02s.31-1.96.92-2.7c.62-.73,1.35-1.1,2.2-1.1.51,0,.96.16,1.34.48.38.32.58.72.58,1.21s-.27.99-.8,1.44c.13-.45.19-.73.19-.83,0-.32-.12-.58-.35-.77-.23-.19-.51-.29-.83-.29-.57,0-1.06.23-1.47.69-.41.46-.61,1.01-.61,1.65,0,.83.25,1.5.77,2.01s1.17.77,1.98.77c.7,0,1.34-.18,1.9-.53.56-.35,1.09-.93,1.58-1.74.49-.81,1.03-1.96,1.63-3.45.79-1.98,1.65-3.4,2.59-4.27.94-.86,2.06-1.29,3.35-1.29.9,0,1.65.25,2.25.75.61.5,1.04,1.23,1.29,2.19,1.28-.81,2.51-1.38,3.69-1.71,1.18-.33,2.54-.5,4.07-.5,1.77,0,3.54.3,5.31.89,1.76.6,3.4,1.45,4.9,2.56,1.5,1.11,2.84,2.44,4.01,3.99,2.08,2.79,3.13,6.16,3.13,10.09,0,.96-.11,1.88-.32,2.74l-.92-.12c.13-.92.19-1.66.19-2.24,0-2.43-.59-4.71-1.77-6.87-1.18-2.15-2.79-3.85-4.82-5.11s-4.21-1.88-6.53-1.88c-2.08,0-3.95.44-5.6,1.34-1.65.89-2.95,2.13-3.9,3.71-.95,1.58-1.42,3.33-1.42,5.27,0,1.55.32,2.98.94,4.28.63,1.3,1.51,2.32,2.64,3.07,1.13.74,2.35,1.12,3.67,1.12,1.64,0,3.02-.55,4.14-1.65,1.12-1.09,1.68-2.47,1.68-4.13,0-1.09-.27-1.98-.82-2.67-.54-.69-1.21-1.04-2-1.04-.58,0-1.05.19-1.44.57-.38.38-.58.91-.58,1.56,0,.34.09.74.25,1.18-1.66-.13-2.49-.8-2.49-2.01,0-.77.34-1.4,1.02-1.92.68-.51,1.52-.77,2.52-.77,1.39,0,2.51.5,3.39,1.5.87,1,1.31,2.29,1.31,3.87,0,1.4-.37,2.7-1.12,3.9-.75,1.19-1.76,2.15-3.03,2.86-1.28.71-2.66,1.07-4.16,1.07-1.36,0-2.67-.34-3.93-1-1.26-.67-2.35-1.56-3.29-2.67-.94-1.11-1.68-2.37-2.24-3.8-.55-1.43-.83-2.89-.83-4.41-.98,1.02-1.91,1.75-2.79,2.17ZM1718.6,611.35c-.98,0-1.81.38-2.49,1.12-.68.75-1.35,1.95-2.01,3.61-.7,1.68-1.24,2.82-1.6,3.42-.36.6-.82,1.12-1.37,1.56-.91.68-2.02,1.05-3.32,1.09.91.54,1.75.8,2.5.8,1.38,0,2.78-.59,4.18-1.76.68-.6,1.77-1.89,3.26-3.86,1.09-1.47,2.25-2.74,3.48-3.8-.29-1.45-1.17-2.17-2.62-2.17Z" />
      </g>
      <path class="cls-1"
        d="M68.69,625.57c-.77-12.95-15.28-24.45-29.33-24.1,14.43,4.08,22.03,10.56,25.55,25.55h1631.11c3.52-14.99,11.13-21.47,25.55-25.55-14.05-.34-28.72,10.99-29.33,24.1H68.69Z" />
      <path class="cls-1"
        d="M1752.16,567.66c-12.94.78-24.45,15.28-24.1,29.34,4.08-14.43,10.56-22.04,25.55-25.55l.56-505.18c-15-3.52-21.47-11.13-25.55-25.55-.34,14.05,10.99,28.72,24.1,29.33l-.56,497.63Z" />
      <path class="cls-1"
        d="M10.59,68.78c12.95-.77,24.45-15.28,24.11-29.34-4.08,14.43-10.56,22.04-25.55,25.56l-.56,505.18c15,3.52,21.47,11.13,25.55,25.56.34-14.05-10.99-28.72-24.11-29.33l.56-497.63Z" />
      <rect class="cls-1" x="65.58" y="4.13" width="1630.2" height="1.81" />
      <rect class="cls-1" x="65.02" y="629.92" width="1630.2" height="1.82" />
      <polygon class="cls-1" points="1757.68 569.44 1758.24 65.17 1756.43 65.17 1755.87 569.44 1757.68 569.44" />
      <polygon class="cls-1" points="5.96 569.44 6.52 65.17 4.7 65.17 4.15 569.44 5.96 569.44" />
    </g>
  </g>
</svg>