<?xml version="1.0" encoding="UTF-8"?>
<svg id="Layer_2" data-name="Layer 2" xmlns="http://www.w3.org/2000/svg" viewBox="0 0 40.37 44.13">
  
  <g id="Vintage_Frames" data-name="Vintage Frames">
    <path class="cls-1" d="M12.75,25.01c1.74,1.26,3.28,3.96,4.73,6.95-.02-2.28-.39-3.96-1.35-6.66-.97-2.7-3.28-5.41-5.41-6.76-2.12-1.35-4.22-1.74-6.8-.98C1.51,18.27.07,19.83,0,21.73c-.07,2.12.77,3.48,2.41,4.63.39-2.61,2.12-3.38,4.25-3.67,2.12-.29,4.34,1.06,6.08,2.32ZM36.45,17.56c-2.58-.76-4.68-.37-6.8.98-2.12,1.35-4.44,4.05-5.41,6.76-.97,2.7-1.33,4.38-1.35,6.66,1.45-2.99,2.99-5.7,4.73-6.95,1.74-1.25,3.96-2.61,6.08-2.32,2.12.29,3.86,1.06,4.25,3.67,1.64-1.16,2.49-2.51,2.41-4.63-.07-1.9-1.51-3.46-3.92-4.17ZM31.96,27.04c-.88-.64-2.51-.97-4.15.1-1.64,1.06-2.41,2.1-3.19,3.57-.4.76-.75,1.6-.99,2.48h-2.85c.05-1.48.2-3.44.6-5.24.5-2.27,1.23-4.51,2.85-6.89-1.26-.77-2.22-2.03-2.12-3.67.1-1.64,1.9-3.36,3.77-3.48,1.76-.11,3.19.68,4.15,2.61,1.3-3.12-1.15-5.07-3.18-5.36-2.03-.29-3.5.92-4.83,2.37.58-1.83,1.93-4.35,2.7-6.08-.96-1.45-4.25-6.08-4.54-7.44-.29,1.35-3.57,5.99-4.54,7.44.77,1.74,2.12,4.25,2.7,6.08-1.33-1.45-2.8-2.66-4.83-2.37-2.03.29-4.48,2.24-3.18,5.36.97-1.93,2.39-2.72,4.15-2.61,1.87.12,3.67,1.83,3.77,3.48.1,1.64-.87,2.9-2.12,3.67,1.62,2.38,2.34,4.62,2.85,6.89.4,1.8.55,3.76.61,5.24h-2.85c-.24-.88-.59-1.72-.99-2.48-.77-1.47-1.54-2.51-3.19-3.57-1.64-1.06-3.27-.74-4.15-.1-.87.63-1.83,2.22-1.25,3.57.58,1.35,2.12,2.12,3.28,1.93-.92-.68-1.54-1.93-1.06-2.61.48-.67,1.46-1.09,2.79-.54,1.36.57,2.3,1.41,3.1,2.76.19.33.35.67.48,1.03h-1.86c-.54,0-.97.43-.97.96s.43.97.97.97h2.25c.01.27.02.55,0,.8-.1,1.17-1.26,1.74-2.12,1.74s-1.78-1.04-1.93-2.41c-.7,1.06-.92,2.32-.61,3.43.35,1.23,1.42,2.08,2.73,1.98,1.91-.15,2.88-2.98,2.9-4.83,0-.24,0-.47-.02-.71h2.49c-.19,1.64-1.02,4.42-2.37,6.02,1.06.87,2.12,1.74,2.99,2.99.87-1.26,1.93-2.12,2.99-2.99-1.35-1.6-2.18-4.37-2.37-6.02h2.49c-.02.23-.02.47-.02.71.02,1.84.99,4.68,2.9,4.83,1.31.1,2.39-.75,2.73-1.98.31-1.11.09-2.37-.61-3.43-.15,1.38-1.06,2.41-1.93,2.41s-2.02-.57-2.12-1.74c-.02-.26-.02-.53,0-.8h2.32c.53,0,.97-.43.97-.97s-.43-.96-.97-.96h-1.92c.13-.36.28-.71.48-1.03.8-1.35,1.74-2.19,3.1-2.76,1.32-.55,2.31-.14,2.79.54.48.68-.14,1.92-1.06,2.61,1.16.19,2.71-.58,3.28-1.93.58-1.35-.38-2.94-1.25-3.57Z"/>
  </g>
</svg>