<svg width="595" height="532" viewBox="0 0 595 532" fill="none" stroke="#000" stroke-width="1" stroke-linecap="round"
    stroke-miterlimit="10" xmlns="http://www.w3.org/2000/svg">

    <path
        d="M15.104 57.392C10.9653 57.392 8.74667 54.832 8.448 49.712C3.79733 49.0293 1.472 46.8533 1.472 43.184C1.472 40.88 2.34667 38.896 4.096 37.232C1.49333 34.8 0.192 31.7707 0.192 28.144C0.192 24.688 1.49333 21.5307 4.096 18.672C7.76533 14.6187 12.288 12.784 17.664 13.168C20.1813 11.2053 23.168 10.224 26.624 10.224C30.1227 10.224 32.6187 11.248 34.112 13.296C34.7093 12.656 35.264 12.1227 35.776 11.696C36.3307 11.2267 36.8213 10.8427 37.248 10.544C37.8027 10.2453 38.08 10.288 38.08 10.672C38.08 10.8 37.9733 10.928 37.76 11.056C37.2053 11.3973 36.672 11.8027 36.16 12.272C35.648 12.7413 35.1147 13.2747 34.56 13.872C34.9867 14.5973 35.2 15.408 35.2 16.304C35.2 16.9013 35.0293 17.584 34.688 18.352C34.0053 19.8027 32.896 20.528 31.36 20.528C30.464 20.528 30.016 20.08 30.016 19.184C30.016 18.9707 30.0587 18.6933 30.144 18.352C30.528 17.1147 31.5307 15.7707 33.152 14.32C32.2987 12.1867 30.2293 11.12 26.944 11.12C24.128 11.12 21.7387 11.9093 19.776 13.488C23.1893 14.3413 25.472 16.0693 26.624 18.672C26.6667 18.8 26.624 18.9067 26.496 18.992C26.3253 19.0347 26.2187 19.0133 26.176 18.928C24.9813 16.24 22.72 14.5547 19.392 13.872C18.0693 15.024 17.408 16.3253 17.408 17.776C17.408 19.824 18.9867 22.0427 22.144 24.432C24.0213 23.3227 25.6853 22.768 27.136 22.768C29.8667 22.768 31.232 24.2613 31.232 27.248C31.232 28.528 30.8693 29.936 30.144 31.472C31.4667 33.2213 32.128 35.0347 32.128 36.912C32.128 39.728 30.7413 42.2667 27.968 44.528C25.152 46.832 21.568 48.3893 17.216 49.2C14.3573 49.7973 11.84 50.0107 9.664 49.84C10.176 54.2773 12.2453 56.496 15.872 56.496C17.4933 56.496 19.008 55.984 20.416 54.96C21.8667 53.936 22.6987 52.72 22.912 51.312C22.912 51.1413 22.9973 51.056 23.168 51.056C23.3387 51.0987 23.424 51.2053 23.424 51.376C23.168 52.9973 22.1867 54.4053 20.48 55.6C18.8587 56.7947 17.0667 57.392 15.104 57.392ZM4.544 36.848C6.93333 34.8427 10.048 33.4347 13.888 32.624C15.5947 30.0213 17.5573 27.8453 19.776 26.096C19.2213 25.6693 18.7307 25.3067 18.304 25.008C17.92 24.6667 17.5787 24.368 17.28 24.112C15.4027 22.3627 14.464 20.5493 14.464 18.672C14.464 16.8373 15.36 15.152 17.152 13.616C12.5013 13.488 8.512 15.2587 5.184 18.928C2.53867 21.8293 1.216 25.0507 1.216 28.592C1.216 31.8773 2.32533 34.6293 4.544 36.848ZM31.68 19.888C32.2347 19.888 32.7253 19.5467 33.152 18.864C33.6213 18.1387 33.856 17.392 33.856 16.624C33.856 16.1973 33.7493 15.664 33.536 15.024C32.9387 15.7493 32.448 16.4533 32.064 17.136C31.7227 17.776 31.4667 18.3947 31.296 18.992C31.296 19.0347 31.2747 19.0987 31.232 19.184C31.232 19.2267 31.232 19.2907 31.232 19.376C31.232 19.7173 31.3813 19.888 31.68 19.888ZM29.504 30.704C30.1013 29.296 30.4 28.0587 30.4 26.992C30.4 24.5173 29.2693 23.28 27.008 23.28C25.7707 23.28 24.2987 23.7707 22.592 24.752L24.896 26.416C25.1947 26.6293 25.4293 26.8427 25.6 27.056C25.8133 27.2267 25.984 27.3547 26.112 27.44C27.5627 28.6347 28.6933 29.7227 29.504 30.704ZM13.888 40.24C16.1493 40.24 18.24 39.8347 20.16 39.024C22.08 38.1707 23.872 37.04 25.536 35.632C26.3467 34.9493 27.0933 34.2027 27.776 33.392C26.7947 31.6 24.2773 29.2533 20.224 26.352C18.048 28.1013 16.1707 30.128 14.592 32.432C15.1893 32.3467 15.744 32.2827 16.256 32.24C16.8107 32.1973 17.3013 32.176 17.728 32.176C18.0267 32.176 18.304 32.176 18.56 32.176C18.816 32.176 19.0507 32.1973 19.264 32.24C19.6907 32.2827 19.904 32.496 19.904 32.88C19.904 33.136 19.7547 33.2427 19.456 33.2C18.7733 33.072 18.048 33.008 17.28 33.008C16.768 33.008 16.2347 33.0507 15.68 33.136C15.168 33.1787 14.6133 33.2427 14.016 33.328C13.376 34.3947 12.8 35.4827 12.288 36.592C11.776 37.7013 11.3067 38.832 10.88 39.984L12.032 40.112C12.3733 40.1547 12.6933 40.1973 12.992 40.24C13.2907 40.24 13.5893 40.24 13.888 40.24ZM10.112 39.856C10.5387 38.7467 11.008 37.68 11.52 36.656C12.0747 35.5893 12.672 34.5227 13.312 33.456C9.77067 34.224 7.12533 35.6107 5.376 37.616C6.74133 38.7253 8.32 39.472 10.112 39.856ZM12.096 48.752C12.864 48.752 13.6533 48.688 14.464 48.56C15.3173 48.432 16.2133 48.2613 17.152 48.048C20.7787 47.1947 23.616 45.7867 25.664 43.824C27.7547 41.8613 28.8 39.7067 28.8 37.36C28.8 36.2933 28.5867 35.2693 28.16 34.288C27.8613 34.6293 27.5627 34.9493 27.264 35.248C26.9653 35.504 26.6453 35.7813 26.304 36.08C22.5067 39.3227 17.728 40.816 11.968 40.56C11.584 40.56 11.1787 40.5173 10.752 40.432C9.856 43.12 9.45067 45.808 9.536 48.496C9.96267 48.5387 10.3893 48.5813 10.816 48.624C11.2427 48.7093 11.6693 48.752 12.096 48.752ZM8.384 48.24C8.42667 45.6373 8.93867 42.992 9.92 40.304C8.128 39.92 6.48533 39.1733 4.992 38.064C3.92533 39.3867 3.392 40.88 3.392 42.544C3.392 45.4027 5.056 47.3013 8.384 48.24ZM38.69 46.768C37.6233 46.768 36.7487 46.2773 36.066 45.296C35.3833 44.3147 35.042 43.056 35.042 41.52C35.042 40.2827 35.2553 39.024 35.682 37.744C37.2607 32.9653 39.202 30.4693 41.506 30.256C41.762 29.9573 42.1247 29.808 42.594 29.808C43.4473 29.808 44.2793 30.192 45.09 30.96C45.9433 31.728 46.4127 32.5387 46.498 33.392C47.0527 34.0747 47.8633 34.416 48.93 34.416C49.2713 34.416 49.7833 34.3733 50.466 34.288C51.1487 34.2027 51.6607 34.16 52.002 34.16C52.1727 34.16 52.2153 34.2667 52.13 34.48C52.0873 34.6507 51.874 34.8427 51.49 35.056C50.722 35.44 49.762 35.6747 48.61 35.76H47.842C47.1167 35.76 46.5833 35.6747 46.242 35.504C46.4553 37.1253 45.6873 39.4507 43.938 42.48C42.3593 45.3387 40.61 46.768 38.69 46.768ZM39.074 45.488C40.1833 45.488 41.378 44.4853 42.658 42.48C42.9993 41.9253 43.3193 41.3067 43.618 40.624C43.9593 39.9413 44.2367 39.1733 44.45 38.32C44.8767 36.8693 45.0473 35.824 44.962 35.184C43.3833 34.928 42.466 34.0107 42.21 32.432C41.058 32.7733 39.9487 34.2453 38.882 36.848C37.9007 39.28 37.41 41.2427 37.41 42.736C37.41 44.5707 37.9647 45.488 39.074 45.488ZM49.4005 46.192C49.2725 46.192 49.2085 46.128 49.2085 46C49.1232 44.8053 49.3792 42.5013 49.9765 39.088C50.2752 37.3813 50.5525 35.952 50.8085 34.8C51.1072 33.6053 51.3632 32.7093 51.5765 32.112C50.2538 32.4107 49.5498 32.944 49.4645 33.712C49.3792 34.224 49.2298 34.48 49.0165 34.48C48.7605 34.48 48.6752 34.224 48.7605 33.712C48.8032 32.5173 49.8912 31.6 52.0245 30.96C52.5792 29.1253 53.2405 27.3333 54.0085 25.584C54.8192 23.8347 55.7152 22.128 56.6965 20.464C59.0005 16.7093 61.4325 13.8507 63.9925 11.888C66.5952 9.88266 69.2405 8.88 71.9285 8.88C75.3845 8.88 77.6885 10.3307 78.8405 13.232C79.1392 13.9573 79.2885 14.7467 79.2885 15.6C79.2885 18.0747 78.0725 20.2293 75.6405 22.064C72.0138 24.88 64.7392 28.016 53.8165 31.472C53.2192 33.0933 52.4938 36.5067 51.6405 41.712L56.9525 34.672C57.0378 34.16 57.3365 33.6053 57.8485 33.008C58.4032 32.368 58.8512 32.048 59.1925 32.048C59.4912 32.048 59.6405 32.2827 59.6405 32.752C59.6405 32.8373 59.6405 32.944 59.6405 33.072C59.6405 33.2 59.6192 33.328 59.5765 33.456C59.0645 36.912 58.8085 39.216 58.8085 40.368C58.8085 43.0987 59.2992 44.464 60.2805 44.464C61.3898 44.464 62.9045 43.3333 64.8245 41.072L66.1685 39.408C66.2965 39.28 66.4032 39.408 66.4885 39.792C66.1472 40.56 65.2725 41.6693 63.8645 43.12C61.9445 45.1253 60.3018 46.128 58.9365 46.128C58.4672 46.128 58.0832 46.0427 57.7845 45.872C56.7605 45.36 56.2485 43.632 56.2485 40.688C56.2485 39.92 56.2698 39.1947 56.3125 38.512C56.3978 37.8293 56.4832 37.1893 56.5685 36.592C55.5445 37.7867 53.8592 39.856 51.5125 42.8C51.4272 43.7813 51.1285 44.592 50.6165 45.232C50.1472 45.872 49.7418 46.192 49.4005 46.192ZM54.0725 30.384C57.0592 29.5307 60.7072 28.1013 65.0165 26.096C69.7098 23.92 73.1445 22 75.3205 20.336C77.4538 18.672 78.5205 16.9653 78.5205 15.216C78.5205 14.7467 78.4352 14.32 78.2645 13.936C77.4112 11.8027 75.3632 10.736 72.1205 10.736C71.2245 10.736 70.4352 10.8213 69.7525 10.992C65.2298 11.8027 61.6458 14.4053 59.0005 18.8C58.5312 19.5253 57.8912 20.848 57.0805 22.768C56.2698 24.7307 55.2672 27.2693 54.0725 30.384ZM69.3805 46.768C68.1005 46.768 67.0338 46.384 66.1805 45.616C65.3272 44.8053 64.9005 43.44 64.9005 41.52C64.9005 41.008 64.9432 40.4533 65.0285 39.856C65.4125 37.68 66.3085 35.6107 67.7165 33.648C69.4658 31.2587 71.2792 30.064 73.1565 30.064C74.1378 30.064 75.0552 30.3413 75.9085 30.896C76.7618 31.408 77.1885 32.176 77.1885 33.2C77.1885 34.352 76.7192 35.5467 75.7805 36.784H77.0605C77.2738 36.784 77.4018 36.8053 77.4445 36.848C77.4445 37.104 76.6552 37.3813 75.0765 37.68C74.1378 38.7467 73.4338 39.28 72.9645 39.28C72.8792 39.28 72.8365 39.2373 72.8365 39.152C72.8365 39.1947 73.1565 38.768 73.7965 37.872C73.2418 37.872 72.4952 37.9147 71.5565 38C70.6605 38.0427 69.5725 38.1493 68.2925 38.32C67.8232 39.6 67.5885 40.7947 67.5885 41.904C67.5885 43.312 67.9725 44.336 68.7405 44.976C69.2098 45.4027 69.7858 45.616 70.4685 45.616C70.5965 45.616 70.7245 45.616 70.8525 45.616C70.9805 45.616 71.1085 45.5947 71.2365 45.552C73.9672 45.0827 76.6125 43.504 79.1725 40.816C79.3858 40.5173 79.5565 40.4747 79.6845 40.688C79.7272 40.7307 79.7485 40.7947 79.7485 40.88C79.7485 41.0507 79.6205 41.264 79.3645 41.52C78.4685 42.672 77.0605 43.8027 75.1405 44.912C73.0072 46.1493 71.0872 46.768 69.3805 46.768ZM68.9325 36.976C69.5298 36.9333 70.2978 36.912 71.2365 36.912L74.4365 36.848C74.9058 35.9093 75.2045 35.1627 75.3325 34.608C75.4605 34.0533 75.5245 33.6053 75.5245 33.264C75.5245 32.368 75.1832 31.92 74.5005 31.92C73.6472 31.92 72.7085 32.432 71.6845 33.456C71.0872 34.0533 70.5538 34.6507 70.0845 35.248C69.6152 35.8027 69.2312 36.3787 68.9325 36.976ZM68.3955 68.592C64.6835 68.592 62.3155 67.0133 61.2915 63.856C61.0355 63.1733 60.9075 62.4907 60.9075 61.808C60.9075 59.248 62.2302 57.0293 64.8755 55.152C68.6302 52.592 76.0755 49.8613 87.2115 46.96C87.6382 46.064 88.1075 44.1867 88.6195 41.328L89.7715 35.376C88.0222 38.576 86.1662 41.3067 84.2035 43.568C84.0328 44.0373 83.6915 44.592 83.1795 45.232C82.7102 45.8293 82.2835 46.128 81.8995 46.128C81.6008 46.128 81.4515 45.8933 81.4515 45.424C81.4515 45.1253 81.4728 44.8693 81.5155 44.656C82.1128 41.6693 82.4115 39.5147 82.4115 38.192C82.4115 36.272 81.9635 35.312 81.0675 35.312C80.7262 35.312 80.2568 35.4827 79.6595 35.824C79.4462 35.952 79.2968 36.016 79.2115 36.016C79.0408 36.016 78.9555 35.952 78.9555 35.824C78.9555 35.5253 79.1475 35.2693 79.5315 35.056C80.5982 34.2453 81.5795 33.84 82.4755 33.84C82.8595 33.84 83.2008 33.9253 83.4995 34.096C84.3102 34.5227 84.7155 35.7813 84.7155 37.872C84.7155 39.3653 84.5662 40.688 84.2675 41.84C84.9502 40.9867 85.7608 39.9413 86.6995 38.704C87.6382 37.424 88.7262 35.952 89.9635 34.288C90.1342 32.88 90.7102 32.176 91.6915 32.176C92.2888 32.176 92.5875 32.3467 92.5875 32.688C92.5875 33.8827 92.2035 36.1653 91.4355 39.536C90.6675 43.0347 90.0062 45.3387 89.4515 46.448C90.7742 46.1493 91.4995 45.6373 91.6275 44.912C91.7128 44.4427 91.8835 44.208 92.1395 44.208C92.3102 44.208 92.3955 44.3787 92.3955 44.72C92.3955 46 91.2435 46.96 88.9395 47.6C87.6595 51.184 85.9315 54.576 83.7555 57.776C81.2808 61.4027 78.7422 64.112 76.1395 65.904C73.5368 67.696 70.9555 68.592 68.3955 68.592ZM68.5235 66.736C73.3448 66.736 77.3342 64.6453 80.4915 60.464C81.8995 58.6293 84.0328 54.4693 86.8915 47.984C83.9475 48.6667 80.2142 49.9253 75.6915 51.76C70.9555 53.68 67.4782 55.408 65.2595 56.944C62.8702 58.5653 61.6755 60.272 61.6755 62.064C61.6755 62.448 61.7395 62.832 61.8675 63.216C62.6355 65.5627 64.8542 66.736 68.5235 66.736ZM98.6795 46.32C96.5462 46.32 95.4795 44.8267 95.4795 41.84C95.4795 40.6027 95.6715 39.0453 96.0555 37.168H95.8635C95.5648 37.168 95.4155 37.0613 95.4155 36.848C95.4155 36.5067 95.7995 35.9093 96.5675 35.056C99.0848 24.432 102.456 17.3493 106.68 13.808C107.618 13.04 108.6 12.656 109.624 12.656C111.032 12.656 111.736 13.3813 111.736 14.832C111.736 17.9893 110.221 21.5733 107.192 25.584C105.485 27.7173 102.754 30.6613 98.9995 34.416C98.0182 37.744 97.5275 40.3893 97.5275 42.352C97.5275 44.2293 98.1675 45.168 99.4475 45.168C100.429 45.168 101.602 44.784 102.968 44.016C104.333 43.248 105.4 42.3733 106.168 41.392C106.466 41.008 106.701 40.816 106.872 40.816C106.957 40.816 107 40.9013 107 41.072C107 41.5413 106.872 41.9253 106.616 42.224C105.848 43.12 104.674 43.9947 103.095 44.848C101.261 45.8293 99.7888 46.32 98.6795 46.32ZM99.1915 33.008C101.496 30.8747 103.821 28.1867 106.168 24.944C109.154 20.8053 110.69 17.6053 110.776 15.344V15.152C110.776 14.128 110.477 13.616 109.88 13.616C109.154 13.616 108.322 14.2133 107.384 15.408C106.786 16.1333 106.104 17.1787 105.336 18.544C104.568 19.8667 103.714 21.552 102.776 23.6C101.922 25.4773 101.197 27.2053 100.6 28.784C100.002 30.32 99.5328 31.728 99.1915 33.008ZM123.615 49.648C123.359 49.648 123.103 49.648 122.847 49.648C122.633 49.648 122.399 49.6267 122.143 49.584C120.479 49.4133 119.113 48.8373 118.047 47.856C116.98 46.8747 116.447 45.5947 116.447 44.016C116.447 42.096 117.172 40.3893 118.623 38.896C119.903 37.5733 121.524 36.592 123.487 35.952C125.876 35.1413 128.543 34.5227 131.487 34.096C130.42 31.92 129.887 29.5093 129.887 26.864C129.887 21.6587 131.167 17.4773 133.727 14.32C135.945 11.5893 138.569 10.224 141.599 10.224C143.817 10.224 145.673 11.0133 147.167 12.592C148.66 14.128 149.407 16.304 149.407 19.12C149.407 21.936 148.532 25.2 146.783 28.912C146.441 29.6373 146.057 30.3413 145.631 31.024C145.247 31.664 144.82 32.3253 144.351 33.008H147.231C147.444 32.7947 147.764 32.4107 148.191 31.856C148.617 31.3013 149.151 30.5973 149.791 29.744L154.975 22.704C155.572 21.8507 156.127 21.104 156.639 20.464C157.151 19.7813 157.599 19.2053 157.983 18.736L158.495 15.28C158.58 14.3413 158.623 13.7867 158.623 13.616C158.623 11.952 158.217 11.12 157.407 11.12C157.023 11.12 156.575 11.312 156.062 11.696C155.337 12.1653 154.569 12.8907 153.759 13.872C153.033 14.7253 152.607 15.3013 152.479 15.6C152.308 15.9413 152.116 16.112 151.903 16.112C151.732 16.112 151.647 16.0053 151.647 15.792C151.647 15.6213 151.668 15.4933 151.711 15.408C152.521 13.5733 153.929 12.0373 155.935 10.8C156.916 10.1173 157.855 9.776 158.751 9.776C160.287 9.776 161.055 10.7787 161.055 12.784C161.055 13.2533 160.991 14.1707 160.863 15.536L160.351 20.976C160.137 23.4507 159.924 25.648 159.711 27.568C159.497 29.4453 159.348 31.0667 159.263 32.432C161.353 32.2613 162.697 32.0053 163.295 31.664C163.508 31.4933 163.7 31.408 163.871 31.408C163.956 31.408 163.999 31.472 163.999 31.6C163.999 31.856 163.807 32.112 163.423 32.368C162.484 32.9227 161.097 33.3707 159.263 33.712C159.263 34.1813 159.241 34.6507 159.199 35.12C159.199 35.5467 159.199 35.9733 159.199 36.4C159.199 39.088 159.369 41.1147 159.711 42.48C160.351 45.2533 161.439 46.64 162.975 46.64C164.809 46.64 166.431 45.04 167.839 41.84C167.967 41.5413 168.116 41.392 168.287 41.392C168.543 41.392 168.607 41.6267 168.479 42.096C167.881 43.888 166.921 45.3173 165.599 46.384C164.319 47.4933 162.996 48.048 161.631 48.048C158.985 48.048 157.364 46.1493 156.767 42.352C156.639 41.6693 156.553 40.9227 156.511 40.112C156.468 39.2587 156.447 38.32 156.447 37.296C156.447 36.8267 156.447 36.3147 156.447 35.76C156.447 35.2053 156.468 34.6293 156.511 34.032C156.084 34.0747 155.209 34.096 153.887 34.096H148.511C147.401 35.3333 146.228 36.528 144.991 37.68C143.796 38.832 142.537 39.9627 141.215 41.072C141.385 41.072 141.535 41.0933 141.663 41.136C141.833 41.136 142.004 41.136 142.175 41.136C145.247 41.136 147.977 39.5573 150.367 36.4C150.409 36.272 150.516 36.2507 150.687 36.336C150.857 36.464 150.879 36.592 150.751 36.72C148.191 40.0907 145.268 41.776 141.983 41.776C141.471 41.776 141.001 41.7333 140.575 41.648C136.137 45.3173 132.169 47.6853 128.671 48.752C127.817 49.0507 126.964 49.264 126.111 49.392C125.257 49.5627 124.425 49.648 123.615 49.648ZM132.383 33.968C135.881 33.456 139.593 33.1573 143.519 33.072C144.543 31.5787 145.417 30.0853 146.143 28.592C147.764 25.264 148.575 22.2773 148.575 19.632C148.575 17.1147 147.871 15.0667 146.463 13.488C145.097 11.8667 143.348 11.056 141.215 11.056C138.484 11.056 136.159 12.336 134.239 14.896C131.977 17.7973 130.847 21.7867 130.847 26.864C130.847 29.424 131.359 31.792 132.383 33.968ZM152.671 32.752C153.823 32.752 155.145 32.7093 156.639 32.624C156.724 30.9173 156.852 29.104 157.023 27.184C157.236 25.2213 157.513 23.1307 157.855 20.912C157.684 21.2107 157.385 21.7013 156.959 22.384C156.575 23.024 156.02 23.8133 155.295 24.752L149.663 32.688C150.473 32.7307 151.476 32.752 152.671 32.752ZM139.743 40.752L146.463 33.968C145.695 33.9253 144.777 33.9253 143.711 33.968C142.9 35.1627 142.025 36.272 141.087 37.296C140.191 38.32 139.252 39.3013 138.271 40.24C138.825 40.4533 139.316 40.624 139.743 40.752ZM137.631 39.856C139.551 38.064 141.279 36.1227 142.815 34.032C139.999 34.2027 136.756 34.6293 133.087 35.312C134.324 37.36 135.839 38.8747 137.631 39.856ZM125.087 48.048C129.524 48.048 134.217 45.808 139.167 41.328L137.695 40.752C133.3 44.5493 128.948 46.448 124.639 46.448C123.401 46.448 122.271 46.2987 121.247 46C121.119 45.9147 121.055 45.8293 121.055 45.744C121.055 45.488 121.161 45.4027 121.375 45.488C122.399 45.744 123.423 45.872 124.447 45.872C128.543 45.872 132.745 44.0373 137.055 40.368C135.135 39.3013 133.535 37.6587 132.255 35.44C130.292 35.7813 128.543 36.144 127.007 36.528C125.471 36.912 124.148 37.2747 123.039 37.616C119.199 38.9387 117.279 40.816 117.279 43.248C117.279 44.4853 117.876 45.5307 119.071 46.384C120.223 47.2373 121.631 47.7493 123.295 47.92C123.892 48.0053 124.489 48.048 125.087 48.048ZM166.338 47.728C164.717 47.728 163.906 47.3867 163.906 46.704C163.906 45.8933 164.589 45.4453 165.954 45.36C167.746 45.2747 169.965 45.0613 172.61 44.72C172.951 44.1653 173.122 43.6747 173.122 43.248C173.122 42.5653 172.631 41.7973 171.65 40.944C169.303 38.896 168.13 36.9333 168.13 35.056C168.13 34.416 168.279 33.8187 168.578 33.264C170.029 30.7893 171.821 29.552 173.954 29.552C174.85 29.552 175.618 29.7867 176.258 30.256C176.898 30.7253 177.218 31.2373 177.218 31.792C177.218 31.9627 177.175 32.1333 177.09 32.304C177.047 32.432 176.983 32.496 176.898 32.496C176.813 32.496 176.706 32.368 176.578 32.112C176.493 31.3867 176.087 31.024 175.362 31.024C174.295 31.024 173.186 31.6 172.034 32.752C170.925 33.9467 170.37 35.0773 170.37 36.144C170.37 37.0827 170.989 38.2987 172.226 39.792C173.463 41.2427 174.082 42.3307 174.082 43.056C174.082 43.3973 173.975 43.824 173.762 44.336C174.317 44.08 174.999 43.7173 175.81 43.248C176.663 42.7787 177.666 42.2027 178.818 41.52C178.946 41.6053 178.455 42.1387 177.346 43.12L173.25 45.552C172.909 46.1493 172.013 46.6613 170.562 47.088C169.239 47.5147 167.831 47.728 166.338 47.728ZM179.026 46.192C178.898 46.192 178.834 46.128 178.834 46C178.748 44.8053 179.004 42.5013 179.602 39.088C179.9 37.3813 180.178 35.952 180.434 34.8C180.732 33.6053 180.988 32.7093 181.202 32.112C179.879 32.4107 179.175 32.944 179.09 33.712C179.004 34.224 178.855 34.48 178.642 34.48C178.386 34.48 178.3 34.224 178.386 33.712C178.428 32.5173 179.516 31.6 181.65 30.96C182.204 29.1253 182.866 27.3333 183.634 25.584C184.444 23.8347 185.34 22.128 186.322 20.464C188.626 16.7093 191.058 13.8507 193.618 11.888C196.22 9.88266 198.866 8.88 201.554 8.88C205.01 8.88 207.314 10.3307 208.466 13.232C208.764 13.9573 208.914 14.7467 208.914 15.6C208.914 18.0747 207.698 20.2293 205.266 22.064C201.639 24.88 194.364 28.016 183.442 31.472C182.844 33.0933 182.119 36.5067 181.266 41.712L186.578 34.672C186.663 34.16 186.962 33.6053 187.474 33.008C188.028 32.368 188.476 32.048 188.818 32.048C189.116 32.048 189.266 32.2827 189.266 32.752C189.266 32.8373 189.266 32.944 189.266 33.072C189.266 33.2 189.244 33.328 189.202 33.456C188.69 36.912 188.434 39.216 188.434 40.368C188.434 43.0987 188.924 44.464 189.906 44.464C191.015 44.464 192.53 43.3333 194.45 41.072L195.794 39.408C195.922 39.28 196.028 39.408 196.114 39.792C195.772 40.56 194.898 41.6693 193.49 43.12C191.57 45.1253 189.927 46.128 188.562 46.128C188.092 46.128 187.708 46.0427 187.41 45.872C186.386 45.36 185.874 43.632 185.874 40.688C185.874 39.92 185.895 39.1947 185.938 38.512C186.023 37.8293 186.108 37.1893 186.194 36.592C185.17 37.7867 183.484 39.856 181.138 42.8C181.052 43.7813 180.754 44.592 180.242 45.232C179.772 45.872 179.367 46.192 179.026 46.192ZM183.698 30.384C186.684 29.5307 190.332 28.1013 194.642 26.096C199.335 23.92 202.77 22 204.946 20.336C207.079 18.672 208.146 16.9653 208.146 15.216C208.146 14.7467 208.06 14.32 207.89 13.936C207.036 11.8027 204.988 10.736 201.746 10.736C200.85 10.736 200.06 10.8213 199.378 10.992C194.855 11.8027 191.271 14.4053 188.626 18.8C188.156 19.5253 187.516 20.848 186.706 22.768C185.895 24.7307 184.892 27.2693 183.698 30.384ZM199.006 46.768C197.726 46.768 196.659 46.384 195.806 45.616C194.952 44.8053 194.526 43.44 194.526 41.52C194.526 41.008 194.568 40.4533 194.654 39.856C195.038 37.68 195.934 35.6107 197.342 33.648C199.091 31.2587 200.904 30.064 202.782 30.064C203.763 30.064 204.68 30.3413 205.534 30.896C206.387 31.408 206.814 32.176 206.814 33.2C206.814 34.352 206.344 35.5467 205.406 36.784H206.686C206.899 36.784 207.027 36.8053 207.07 36.848C207.07 37.104 206.28 37.3813 204.702 37.68C203.763 38.7467 203.059 39.28 202.59 39.28C202.504 39.28 202.462 39.2373 202.462 39.152C202.462 39.1947 202.782 38.768 203.422 37.872C202.867 37.872 202.12 37.9147 201.182 38C200.286 38.0427 199.198 38.1493 197.918 38.32C197.448 39.6 197.214 40.7947 197.214 41.904C197.214 43.312 197.598 44.336 198.366 44.976C198.835 45.4027 199.411 45.616 200.094 45.616C200.222 45.616 200.35 45.616 200.478 45.616C200.606 45.616 200.734 45.5947 200.862 45.552C203.592 45.0827 206.238 43.504 208.798 40.816C209.011 40.5173 209.182 40.4747 209.31 40.688C209.352 40.7307 209.374 40.7947 209.374 40.88C209.374 41.0507 209.246 41.264 208.99 41.52C208.094 42.672 206.686 43.8027 204.766 44.912C202.632 46.1493 200.712 46.768 199.006 46.768ZM198.558 36.976C199.155 36.9333 199.923 36.912 200.862 36.912L204.062 36.848C204.531 35.9093 204.83 35.1627 204.958 34.608C205.086 34.0533 205.15 33.6053 205.15 33.264C205.15 32.368 204.808 31.92 204.126 31.92C203.272 31.92 202.334 32.432 201.31 33.456C200.712 34.0533 200.179 34.6507 199.71 35.248C199.24 35.8027 198.856 36.3787 198.558 36.976ZM221.061 47.664C218.842 47.664 217.733 46.2347 217.733 43.376C217.733 41.84 218.053 39.92 218.693 37.616L219.717 33.968L215.237 39.088C214.17 40.3253 213.338 41.3493 212.741 42.16C212.143 42.9707 211.781 43.5467 211.653 43.888C211.141 45.2533 210.351 45.936 209.285 45.936C208.901 45.936 208.773 45.744 208.901 45.36L209.924 41.392C210.266 40.1547 210.501 39.024 210.629 38C210.757 36.9333 210.821 35.9947 210.821 35.184C210.821 34.8427 210.799 34.544 210.757 34.288C210.714 34.032 210.693 33.776 210.693 33.52C210.693 32.9653 210.97 32.4533 211.525 31.984C212.079 31.5147 212.634 31.28 213.189 31.28C213.829 31.28 214.085 31.6427 213.957 32.368C213.829 33.0933 213.679 33.84 213.509 34.608C213.381 35.3333 213.253 36.0587 213.125 36.784L212.101 41.456C214.661 39.1093 217.37 35.696 220.229 31.216C220.399 30.9173 220.805 30.768 221.445 30.768C222.469 30.768 223.002 30.9813 223.045 31.408C223.13 31.792 222.959 32.56 222.533 33.712C221.893 35.5893 221.445 37.0613 221.189 38.128C220.549 40.816 220.229 42.9493 220.229 44.528C220.229 46.064 220.57 46.832 221.253 46.832C222.021 46.832 222.895 46.4053 223.877 45.552C224.773 44.784 225.199 44.4 225.157 44.4C225.285 44.4 225.306 44.5707 225.221 44.912C225.178 45.2533 224.965 45.616 224.581 46C223.471 47.1093 222.298 47.664 221.061 47.664ZM227.52 46.256C226.155 46.0427 225.472 45.0827 225.472 43.376C225.472 40.7733 226.667 37.8933 229.056 34.736C231.531 31.408 234.091 29.744 236.736 29.744C237.632 29.744 238.443 29.9573 239.168 30.384C239.936 30.768 240.32 31.3867 240.32 32.24C240.32 33.2213 239.915 33.776 239.104 33.904C239.36 33.4773 239.488 33.0507 239.488 32.624C239.488 31.6853 238.955 31.216 237.888 31.216C236.864 31.216 235.755 31.728 234.56 32.752C231.616 35.2693 229.461 38.192 228.096 41.52C227.669 42.544 227.456 43.3973 227.456 44.08C227.456 44.6347 227.648 44.912 228.032 44.912C228.459 44.912 229.205 44.4213 230.272 43.44C230.997 42.7573 232.576 40.688 235.008 37.232C235.648 36.336 236.16 35.888 236.544 35.888C236.885 35.888 237.056 36.784 237.056 38.576V42.16C237.44 44.0373 238.101 44.976 239.04 44.976C239.552 44.976 240.171 44.8053 240.896 44.464C241.664 44.08 242.411 43.4827 243.136 42.672L244.288 41.456C244.416 41.4133 244.565 41.4987 244.736 41.712C244.565 42.1813 243.819 42.9707 242.496 44.08C240.832 45.488 239.296 46.192 237.888 46.192C237.504 46.192 237.12 46.128 236.736 46C235.627 45.616 234.901 44.4213 234.56 42.416C234.475 41.8613 234.389 41.392 234.304 41.008C234.261 40.624 234.24 40.304 234.24 40.048C234.24 39.92 234.24 39.8133 234.24 39.728C233.984 40.24 233.237 41.3067 232 42.928C230.165 45.3173 228.672 46.4267 227.52 46.256Z" />
</svg>