<svg id="Layer_2" data-name="Layer 2" xmlns="http://www.w3.org/2000/svg" viewBox="0 0 88.19 89.49">
  <g>
    <path class="cls-1"
      d="M87.96,12.11c-.28-.55-.75-.88-1.4-.97-.33-.06-.62-.05-.85.02v-.1c.1-.31.13-.55.12-.74,0-.19-.06-.38-.16-.58-.14-.27-.33-.49-.57-.65-.24-.16-.5-.25-.79-.26-.28,0-.57.06-.85.2-.21.11-.39.24-.53.38-.14.14-.26.32-.36.54,0-.25-.04-.47-.14-.65-.16-.32-.39-.57-.68-.76-.29-.19-.61-.28-.97-.29-.36,0-.71.08-1.06.26-.03.02-.05.04-.08.06.02-.03.04-.05.06-.08.18-.35.26-.71.25-1.06-.01-.36-.11-.68-.29-.97-.19-.29-.44-.52-.76-.68-.18-.09-.4-.14-.65-.14.22-.1.4-.22.54-.36.14-.14.27-.32.38-.53.15-.28.21-.57.2-.85,0-.28-.09-.55-.26-.79-.16-.24-.38-.43-.65-.57-.2-.1-.39-.16-.58-.16-.19,0-.43.03-.74.11h-.1c.07-.22.08-.5.02-.84-.1-.65-.42-1.12-.97-1.4-.34-.17-.69-.25-1.06-.23-.37.02-.71.13-1.03.32-.32.2-.56.46-.73.79-.34.65-.25,1.31.27,1.95-.57.17-.97.48-1.21.94-.14.27-.2.56-.17.86.03.3.12.58.3.83.17.26.4.46.68.6.16.08.37.15.64.19-.18.12-.36.35-.54.7-.16.32-.22.65-.18,1,.04.34.17.66.39.96.22.29.51.53.85.71.36.19.77.22,1.19.12.43-.11.81-.32,1.14-.63l-.02.14c-.1.76-.29,1.42-.57,1.98-.16.3-.33.58-.53.83-.19.25-.41.47-.65.68-.45.37-.88.61-1.28.7-.4.09-.79.05-1.15-.14-.35-.18-.59-.46-.72-.84-.13-.38-.1-.74.08-1.1.1-.2.25-.36.43-.49.19-.12.39-.2.61-.23.22-.03.42,0,.6.1.16.08.29.2.4.34.11.15.17.31.2.48.02.17,0,.31-.07.45-.08.15-.19.26-.34.32-.15.06-.29.06-.4,0-.15-.07-.24-.18-.28-.33-.04-.14-.02-.3.05-.49l-.32-.05c-.06.17-.09.32-.08.47,0,.15.05.28.12.39.07.11.18.2.31.27.23.12.46.13.71.04.25-.09.44-.25.56-.48.09-.18.12-.38.09-.6-.03-.22-.11-.43-.25-.61-.14-.19-.32-.34-.53-.45-.18-.09-.36-.14-.56-.15-.2-.01-.39.02-.59.09-.19.07-.37.18-.52.32-.16.14-.28.3-.39.5-.14.27-.2.56-.18.87.02.31.11.6.28.85.16.26.38.46.66.61.2.1.43.16.7.18.26.02.54,0,.82-.08.29-.07.55-.18.8-.33-.15.24-.25.51-.33.8-.07.29-.1.56-.08.82.01.27.07.5.18.7.14.28.34.5.6.66.26.17.54.26.85.28.31.02.6-.04.87-.18.2-.1.36-.23.5-.38.14-.16.24-.33.32-.52.07-.19.1-.39.09-.59,0-.2-.06-.38-.15-.56-.11-.22-.26-.4-.45-.54-.19-.14-.39-.22-.62-.25-.22-.03-.42,0-.6.09-.24.12-.4.31-.48.56-.09.25-.07.49.04.71.07.14.16.24.27.31.11.07.24.11.39.12.15,0,.31-.02.47-.08l-.05-.32c-.19.07-.35.08-.49.05-.14-.04-.25-.13-.33-.28-.06-.12-.06-.25,0-.4.06-.15.17-.27.32-.34.13-.07.28-.09.45-.07.17.02.33.09.48.2.15.11.26.24.34.4.09.18.13.38.1.6-.03.22-.11.42-.23.61-.12.18-.29.33-.49.43-.35.18-.72.2-1.1.08-.38-.13-.66-.37-.84-.72-.19-.36-.23-.75-.14-1.15.09-.4.33-.83.7-1.28.2-.24.43-.46.68-.65.25-.19.52-.37.83-.53.56-.28,1.22-.47,1.98-.57l.14-.02c-.31.33-.52.71-.63,1.14-.11.43-.07.83.11,1.2.18.35.41.63.71.85.29.22.61.35.96.39.35.04.68-.02,1-.18.34-.17.58-.35.69-.54.05.27.11.48.19.64.14.28.35.5.6.68.26.17.53.27.83.3.3.03.59-.03.86-.17.46-.23.78-.63.94-1.2.65.52,1.3.6,1.95.27.33-.17.6-.41.8-.73.2-.32.31-.66.32-1.03.02-.37-.06-.72-.23-1.06ZM75.51,9.63c-.37.11-.76.07-1.15-.13-.45-.23-.76-.58-.91-1.04-.15-.46-.12-.91.1-1.34.09-.18.18-.29.27-.36l.43-.32s.04-.04.11-.11c-.41.01-.75-.05-1.04-.2-.25-.13-.45-.3-.6-.51-.15-.21-.23-.45-.24-.71-.02-.26.04-.5.16-.74.21-.42.67-.71,1.38-.9-.32-.25-.53-.55-.62-.91-.09-.36-.05-.71.13-1.05.11-.22.26-.4.43-.55.18-.15.38-.25.59-.33.22-.07.44-.11.69-.09.24,0,.46.07.66.17.52.27.83.74.91,1.43.06.36.02.66-.1.9,0,0-.01.01-.02.02,0,.01-.02.03-.03.05.3-.16.58-.25.86-.27.28-.02.54.04.78.16.23.12.41.28.54.48.13.2.21.43.23.67.02.24-.03.48-.15.72-.23.46-.65.81-1.25,1.07.04,0,.08,0,.1.02.02,0,.04,0,.05,0,.27.04.48.08.63.12.15.04.28.08.41.15.25.12.44.31.58.56.13.25.2.53.2.84,0,.31-.08.61-.23.9-.27.52-.62.83-1.04.91-.43.09-.9,0-1.42-.27.06-.57.16-.99.3-1.27.12-.24.27-.42.45-.55.18-.13.33-.16.46-.09.08.04.13.12.16.22.03.11.02.2-.02.28-.04.07-.11.13-.22.2l.06.18c.2-.06.34-.16.42-.3.05-.11.08-.21.07-.32,0-.11-.04-.2-.1-.29-.06-.09-.13-.16-.23-.21-.21-.11-.42-.11-.63,0-.21.11-.39.3-.53.57-.08.16-.15.32-.21.47-.04-.36-.08-.69-.13-1-.09-.45-.14-.75-.15-.9-.01-.14-.01-.34,0-.57.04-.42.13-.77.27-1.04.1-.2.23-.34.36-.41.13-.07.27-.07.41,0,.04.02.07.06.1.1.04.07.06.15.07.22,0,.07,0,.14-.03.19-.04.08-.13.13-.28.15l.11.23c.18-.03.32-.13.41-.32.08-.16.09-.32.04-.48-.06-.16-.17-.28-.33-.37-.2-.1-.4-.1-.61,0-.2.1-.38.29-.52.57-.08.16-.16.49-.23.98-.16-.51-.29-.89-.37-1.15-.13-.4-.31-.83-.53-1.29-.11-.22-.25-.44-.4-.66l-.07.04c.23.44.38.81.47,1.1.12.34.23.65.33.94.04.14.09.29.15.44.13.39.2.67.23.85-.26-.42-.47-.71-.64-.89-.17-.17-.38-.32-.63-.46-.18-.09-.35-.15-.5-.16-.15,0-.29.02-.41.09-.12.07-.22.18-.29.32-.07.14-.09.28-.06.42.04.14.13.24.28.32.14.07.28.09.42.06l-.06-.27c-.06.05-.13.05-.2.01-.07-.04-.11-.09-.13-.18-.02-.08-.01-.16.02-.24.07-.13.18-.2.33-.22.15-.01.33.03.53.13.37.19.69.46.95.82.16.22.29.45.39.68.1.24.19.53.26.87.08.34.14.75.2,1.22-.16-.31-.31-.53-.43-.67-.12-.13-.29-.26-.49-.36-.26-.13-.5-.17-.73-.12-.22.05-.39.19-.5.41-.09.17-.11.34-.06.5.04.17.14.29.28.36.12.06.23.09.31.07.09-.01.18-.07.27-.17l-.13-.2c-.12.02-.21.02-.27-.02-.07-.04-.13-.1-.18-.2-.04-.1-.05-.18-.01-.24.06-.13.18-.2.34-.23.16-.03.32,0,.48.08.37.18.67.47.92.86.15.24.22.52.2.83-.39.35-.78.58-1.15.69ZM77.64,11.51c-.45.12-.87.29-1.26.49-.15.08-.29.16-.42.25.09-.14.17-.27.25-.42.2-.39.36-.82.49-1.26.12-.45.2-.9.22-1.34.1.08.18.13.23.16.3.15.61.22.93.21.27-.01.51-.1.75-.22-.13.24-.21.49-.22.76-.01.32.06.63.21.93.03.06.08.14.16.23-.45.03-.9.1-1.34.22ZM87.78,13.67c-.07.21-.18.41-.33.59-.15.18-.33.32-.55.44-.34.17-.69.21-1.04.13-.36-.09-.66-.3-.91-.62-.18.71-.48,1.16-.9,1.38-.24.12-.48.17-.74.16-.26-.02-.49-.1-.71-.24-.21-.15-.38-.35-.51-.6-.14-.28-.21-.63-.2-1.04-.07.07-.11.11-.11.11l-.32.43c-.06.08-.18.17-.36.27-.43.22-.88.25-1.34.1-.47-.15-.81-.46-1.05-.91-.2-.39-.25-.78-.13-1.15.11-.37.35-.76.69-1.15.31-.02.59.05.83.2.39.25.68.55.86.92.08.16.11.32.08.48-.03.16-.1.28-.23.34-.06.03-.15.03-.24-.01-.09-.04-.16-.1-.2-.18-.03-.06-.04-.15-.02-.27l-.21-.13c-.1.09-.16.18-.17.27-.01.09,0,.19.07.31.07.15.2.24.36.28.17.04.33.03.5-.06.22-.12.36-.28.41-.5.05-.22.01-.46-.12-.72-.1-.2-.23-.36-.36-.49-.14-.12-.36-.27-.67-.43.47.06.87.12,1.22.2.34.08.64.16.87.26.23.1.46.23.68.39.36.27.63.58.81.95.11.21.15.39.13.54-.01.15-.09.26-.22.33-.08.04-.16.05-.24.03-.08-.02-.14-.06-.18-.13-.04-.07-.03-.14.01-.2l-.27-.07c-.03.14-.01.28.06.42.07.15.18.24.32.28.14.03.28.01.42-.06.14-.07.25-.17.32-.29.07-.12.1-.26.09-.41-.01-.15-.06-.32-.16-.51-.13-.25-.29-.47-.46-.63-.17-.17-.47-.38-.88-.64.18.02.46.1.85.23.15.06.3.11.44.15.29.09.6.2.94.33.29.09.66.24,1.1.47l.04-.07c-.22-.15-.44-.29-.66-.4-.46-.22-.89-.4-1.3-.53-.26-.08-.64-.2-1.15-.37.49-.07.82-.14.98-.22.28-.14.47-.32.57-.52.1-.2.11-.4,0-.61-.08-.16-.21-.28-.37-.33-.16-.06-.32-.04-.48.04-.18.1-.29.23-.32.41l.23.11c.02-.14.07-.23.15-.28.05-.03.11-.03.19-.03.08,0,.15.03.23.07.05.02.08.06.1.1.07.14.07.28,0,.41-.07.13-.21.25-.41.36-.28.14-.62.23-1.04.27-.24.01-.43.01-.57,0-.15-.01-.45-.06-.9-.15-.3-.05-.64-.09-1-.13.16-.06.31-.13.47-.21.27-.14.46-.31.57-.53.11-.21.11-.42,0-.63-.05-.09-.12-.17-.21-.23-.09-.06-.19-.09-.3-.1-.11,0-.21.02-.32.07-.14.07-.25.21-.3.42l.18.06c.06-.11.13-.19.2-.22.08-.04.17-.04.28-.02.11.03.18.08.22.16.07.12.03.28-.09.46-.13.18-.31.33-.55.45-.27.14-.69.24-1.27.3-.26-.52-.35-.99-.27-1.42.09-.43.39-.78.91-1.04.29-.15.59-.22.9-.23.31,0,.59.06.84.2.25.14.43.33.56.58.06.12.11.25.15.41.04.15.08.36.12.62,0,.01,0,.03,0,.05,0,.02.01.06.02.1.26-.6.61-1.02,1.07-1.25.23-.12.47-.17.72-.15.25.02.47.1.67.23.2.13.37.31.48.54.12.24.18.5.16.78-.01.28-.1.57-.27.86.02-.01.04-.02.05-.03,0,0,.02-.01.02-.02.24-.12.55-.16.9-.1.69.09,1.16.39,1.43.91.1.2.16.42.17.66.01.24-.02.47-.09.69Z" />
    <path class="cls-1"
      d="M16.66,11.48c-.1-.2-.23-.37-.39-.5-.16-.14-.33-.24-.52-.32-.19-.07-.39-.1-.59-.09-.2,0-.38.05-.56.15-.22.11-.4.26-.54.45-.14.19-.22.39-.25.62-.03.22,0,.42.09.6.12.23.31.4.56.48.25.09.49.07.71-.04.14-.07.24-.16.31-.27.07-.11.11-.24.12-.39,0-.15-.02-.31-.08-.47l-.32.05c.07.19.08.35.05.49-.04.14-.13.25-.28.33-.11.06-.25.06-.4,0-.15-.06-.27-.17-.34-.32-.07-.13-.09-.28-.07-.45.02-.17.09-.33.2-.48.11-.14.24-.26.4-.34.18-.09.38-.13.6-.1.22.03.42.11.61.23.19.13.33.29.43.49.18.35.2.72.08,1.1-.13.38-.37.66-.72.84-.36.19-.75.23-1.15.14-.4-.09-.83-.33-1.28-.7-.24-.2-.46-.43-.65-.67-.19-.25-.37-.53-.53-.83-.28-.56-.47-1.22-.57-1.97l-.02-.14c.33.31.71.52,1.14.63.43.11.83.07,1.2-.12.35-.17.63-.41.85-.7.22-.29.35-.61.39-.96.04-.35-.02-.68-.18-1-.17-.35-.35-.58-.54-.69.27-.05.48-.11.64-.19.28-.14.5-.34.68-.6.17-.26.27-.53.3-.83.03-.3-.03-.59-.17-.86-.23-.46-.64-.78-1.21-.94.52-.65.61-1.3.27-1.95-.17-.33-.41-.6-.73-.8-.32-.2-.66-.3-1.03-.32-.37-.02-.72.06-1.06.23-.55.28-.88.75-.97,1.4-.06.33-.05.62.02.85h-.1c-.31-.09-.56-.13-.74-.12-.19,0-.38.06-.58.16-.27.14-.49.33-.65.57-.16.24-.25.5-.26.79,0,.28.06.57.2.85.11.21.24.39.38.53.14.14.32.26.54.36-.25,0-.47.05-.65.14-.32.16-.57.39-.76.68-.19.29-.28.62-.29.97,0,.36.08.71.26,1.06.02.03.04.05.06.08-.03-.02-.05-.04-.08-.06-.35-.18-.71-.26-1.06-.25-.36,0-.68.11-.97.29-.29.19-.52.44-.68.76-.09.17-.14.4-.14.65-.1-.22-.22-.4-.36-.54-.14-.14-.32-.27-.53-.38-.28-.15-.56-.21-.85-.2-.28,0-.55.09-.79.26-.24.16-.43.38-.57.65-.1.2-.15.39-.16.58-.01.19.03.44.11.74v.11c-.22-.07-.5-.08-.84-.02-.65.1-1.12.42-1.4.97-.17.34-.25.69-.23,1.06.02.37.13.71.32,1.03.2.32.46.56.8.73.65.34,1.31.25,1.95-.27.17.57.48.97.94,1.21.27.14.56.2.86.17.3-.03.58-.12.83-.3.26-.17.46-.4.6-.68.08-.16.14-.37.19-.64.12.18.35.36.69.54.32.16.65.22,1,.18.34-.04.66-.17.96-.39.29-.22.53-.51.71-.85.19-.37.23-.76.11-1.2-.11-.43-.32-.81-.63-1.14l.14.02c.76.1,1.42.29,1.98.57.3.16.58.33.83.53.25.19.47.41.68.65.37.45.61.87.7,1.28.09.4.05.79-.14,1.15-.18.35-.46.59-.84.72-.38.13-.74.1-1.1-.08-.2-.1-.36-.24-.49-.43-.13-.19-.2-.39-.23-.61s0-.42.1-.6c.08-.16.2-.29.34-.4.15-.11.31-.17.48-.2.17-.02.32,0,.45.07.15.08.26.19.32.34.06.15.06.29,0,.4-.07.15-.18.24-.33.28-.14.04-.3.02-.49-.05l-.05.32c.17.06.32.09.47.08.15,0,.28-.05.39-.12.11-.07.2-.18.27-.31.12-.23.13-.46.04-.71-.09-.25-.25-.44-.48-.56-.18-.1-.38-.12-.6-.1-.22.03-.43.11-.61.25-.19.14-.34.32-.45.54-.09.18-.14.36-.14.56-.01.2.02.39.09.59.07.19.18.37.32.52.14.16.3.28.5.39.27.14.56.2.87.18.31-.02.6-.11.85-.28.26-.16.46-.38.6-.66.1-.2.16-.43.18-.7.02-.26-.01-.54-.08-.82-.07-.29-.18-.55-.33-.8.24.15.51.25.8.33.29.07.56.1.82.08.26-.01.5-.08.7-.18.28-.14.5-.34.66-.61.17-.26.26-.54.28-.85.02-.31-.04-.6-.18-.87ZM8.77,6.57c.14-.25.33-.43.58-.56.12-.06.25-.11.41-.15.15-.04.36-.08.63-.12,0,0,.03,0,.05,0,.02,0,.06,0,.1-.02-.6-.25-1.02-.61-1.25-1.07-.12-.23-.17-.47-.15-.72.02-.24.1-.47.23-.67.13-.2.31-.36.54-.48.24-.12.5-.18.78-.16.28.01.57.1.86.27-.01-.02-.02-.04-.03-.05,0,0-.01-.02-.02-.02-.12-.24-.16-.55-.1-.9.08-.69.39-1.16.91-1.43.2-.1.42-.16.66-.17.24-.01.47.02.69.09.21.07.41.18.59.33.18.15.32.33.43.55.17.34.21.69.13,1.05-.09.36-.3.66-.62.91.7.18,1.16.48,1.37.9.12.24.17.48.16.74-.02.26-.1.49-.24.71-.15.21-.35.38-.6.51-.28.14-.63.21-1.04.2.07.07.11.11.11.11l.43.32c.09.06.18.18.27.36.22.43.25.88.1,1.34-.15.47-.46.81-.91,1.04-.39.2-.78.25-1.15.13-.37-.12-.76-.35-1.15-.69-.02-.31.05-.59.2-.83.25-.39.55-.68.92-.86.16-.08.32-.11.48-.08.16.03.27.11.34.23.03.07.03.15-.01.24-.04.1-.1.16-.18.2-.06.03-.15.04-.27.01l-.13.2c.09.1.18.16.27.17.09.02.19,0,.31-.07.15-.07.24-.2.28-.36.04-.17.02-.33-.06-.5-.11-.22-.28-.36-.5-.41-.22-.05-.46-.01-.73.12-.2.11-.36.23-.49.36-.12.13-.27.36-.43.67.06-.47.12-.87.2-1.21.07-.34.16-.64.26-.87.1-.23.23-.46.39-.68.27-.36.58-.63.95-.82.21-.11.38-.15.53-.13.15.01.26.09.33.22.04.08.05.16.03.24s-.06.14-.13.18c-.07.04-.14.03-.2-.01l-.07.27c.14.03.28.01.42-.06.15-.08.24-.18.28-.32.03-.14.01-.28-.06-.42-.07-.14-.17-.25-.29-.32-.12-.07-.26-.1-.41-.09-.15.01-.32.06-.51.16-.26.13-.47.29-.63.46-.16.17-.38.47-.64.88.02-.18.1-.46.23-.86.06-.15.11-.29.15-.44.09-.29.2-.6.33-.94.09-.29.24-.66.47-1.1l-.06-.04c-.15.22-.29.44-.4.67-.22.46-.4.89-.53,1.29-.08.26-.2.64-.37,1.15-.07-.49-.14-.82-.23-.98-.14-.28-.32-.47-.52-.57-.2-.1-.4-.11-.61,0-.17.08-.28.21-.33.36-.06.16-.04.32.04.48.1.18.23.29.41.32l.11-.23c-.14-.02-.24-.07-.28-.15-.02-.05-.03-.11-.03-.19,0-.08.03-.15.07-.22.02-.05.06-.08.1-.1.14-.07.28-.07.41,0,.13.07.25.21.36.41.14.28.23.62.27,1.04.02.24.02.43,0,.57-.01.15-.06.45-.15.9-.05.3-.09.64-.13,1-.06-.15-.13-.31-.21-.47-.14-.27-.31-.46-.53-.57-.21-.11-.42-.11-.63,0-.1.05-.17.12-.23.21-.06.09-.09.19-.1.29,0,.11.02.21.07.32.07.14.21.25.42.3l.06-.18c-.11-.06-.19-.13-.22-.2-.04-.08-.04-.17-.02-.28.03-.11.08-.18.16-.22.12-.06.28-.03.46.1.18.13.33.31.46.55.14.27.24.69.3,1.26-.52.26-.99.36-1.42.27-.43-.08-.78-.39-1.04-.91-.15-.29-.22-.59-.23-.9,0-.31.06-.59.2-.84ZM9.61,12.68c.11.37.07.76-.13,1.15-.23.45-.58.76-1.04.91-.46.15-.91.12-1.34-.1-.18-.09-.3-.18-.36-.27l-.32-.43s-.04-.04-.11-.11c.01.41-.05.75-.2,1.04-.13.25-.3.45-.51.6-.21.15-.45.23-.7.25-.26.01-.5-.04-.74-.16-.42-.21-.71-.67-.9-1.37-.25.32-.55.53-.91.62-.36.09-.71.05-1.05-.13-.22-.11-.4-.25-.55-.43-.14-.18-.25-.38-.33-.59-.07-.22-.11-.44-.09-.69,0-.24.07-.46.17-.66.27-.52.74-.83,1.43-.91.36-.05.66-.02.9.1,0,0,.01.02.02.02.01,0,.03.02.05.03-.16-.3-.25-.58-.27-.86-.02-.28.04-.54.16-.78.12-.23.28-.41.48-.54.2-.13.43-.21.67-.23.25-.02.48.03.72.15.46.23.81.65,1.07,1.25,0-.04,0-.08.02-.1,0-.02,0-.04,0-.05.04-.27.08-.48.12-.63.04-.15.08-.29.15-.4.12-.25.31-.44.56-.58.25-.13.53-.2.84-.2.31,0,.61.08.9.23.52.27.83.62.91,1.04.08.43,0,.9-.27,1.42-.57-.06-.99-.16-1.26-.3-.24-.12-.42-.27-.55-.46-.13-.18-.16-.33-.09-.46.04-.08.11-.13.22-.16.11-.03.2-.03.28.02.07.04.13.11.2.22l.18-.06c-.06-.2-.16-.34-.3-.42-.1-.05-.21-.08-.32-.07-.11,0-.21.04-.29.1-.09.05-.16.13-.21.23-.11.21-.11.42,0,.63.11.21.3.39.57.53.16.08.32.15.47.21-.36.04-.69.08-1,.13-.45.09-.75.14-.9.15-.14.01-.34.01-.57,0-.42-.04-.77-.13-1.04-.27-.2-.1-.34-.22-.41-.36-.07-.13-.07-.27,0-.41.02-.04.06-.07.1-.1.07-.04.15-.06.22-.07.07,0,.14,0,.19.03.08.04.13.13.15.28l.23-.11c-.03-.18-.13-.32-.32-.42-.16-.08-.32-.1-.48-.04-.16.06-.28.17-.37.33-.1.2-.1.4,0,.61.1.2.29.38.57.52.16.08.49.16.98.22-.51.16-.89.29-1.15.37-.4.13-.83.31-1.29.53-.22.11-.44.24-.67.4l.04.07c.44-.23.81-.38,1.1-.47.34-.13.65-.23.94-.33.14-.04.28-.09.44-.15.39-.12.67-.2.85-.22-.42.26-.71.47-.89.64-.17.17-.32.38-.46.63-.09.18-.15.35-.16.5,0,.15.02.29.09.41.07.12.18.22.32.29.14.07.28.09.42.06.14-.04.24-.13.32-.28.07-.14.09-.28.06-.42l-.27.07c.05.06.05.13.01.2-.04.07-.09.11-.18.13-.08.02-.16.01-.24-.02-.13-.07-.2-.18-.22-.33-.02-.15.03-.33.13-.53.19-.37.46-.68.82-.95.22-.16.45-.29.68-.39.24-.1.53-.19.87-.26.34-.08.75-.14,1.22-.2-.31.16-.53.31-.67.43-.13.12-.26.29-.36.49-.13.26-.17.5-.12.73.05.22.19.39.41.5.17.09.34.11.5.06.17-.04.29-.14.36-.29.06-.12.09-.23.07-.31-.01-.09-.07-.18-.17-.27l-.21.13c.02.12.02.21-.02.27-.04.07-.1.13-.2.18-.1.04-.18.05-.24.01-.13-.06-.2-.18-.23-.34-.03-.16,0-.32.08-.48.19-.37.47-.67.86-.92.24-.15.52-.22.83-.2.35.39.58.78.69,1.15ZM10.55,11.5c-.45-.12-.9-.2-1.35-.22.08-.1.13-.18.16-.24.15-.3.22-.61.21-.93-.01-.27-.1-.51-.22-.75.24.13.49.21.75.22.32.01.63-.06.93-.21.06-.03.14-.08.24-.16.03.45.1.9.22,1.34.12.45.28.87.49,1.26.08.15.16.28.25.42-.13-.08-.27-.17-.42-.25-.39-.2-.82-.36-1.26-.49Z" />
    <path class="cls-1"
      d="M87.86,75.29c-.2-.32-.46-.56-.8-.73-.66-.33-1.31-.25-1.95.27-.17-.57-.48-.97-.94-1.21-.27-.14-.56-.2-.86-.17-.3.03-.58.12-.83.29-.26.17-.46.4-.6.68-.08.16-.14.37-.19.64-.12-.18-.35-.36-.69-.54-.32-.16-.65-.22-1-.18-.34.04-.66.17-.96.39-.29.22-.53.51-.71.85-.19.37-.22.77-.11,1.2.11.43.32.81.63,1.14l-.14-.02c-.76-.1-1.42-.29-1.98-.57-.3-.16-.58-.33-.83-.53-.25-.19-.47-.41-.68-.65-.37-.45-.61-.88-.7-1.28-.09-.4-.05-.79.14-1.15.18-.35.46-.59.84-.72.38-.13.75-.1,1.1.08.2.1.36.25.49.43.13.19.2.39.23.61.03.22,0,.42-.1.6-.08.16-.19.29-.34.4-.15.11-.31.17-.48.2-.17.02-.32,0-.45-.07-.15-.08-.26-.19-.32-.34-.06-.15-.06-.29,0-.4.07-.15.18-.24.33-.28.14-.04.3-.02.49.04l.05-.32c-.17-.06-.32-.09-.47-.08-.15,0-.28.05-.39.12-.11.07-.2.18-.27.31-.12.23-.13.46-.04.71.09.25.25.44.48.56.18.09.38.12.6.09.22-.03.43-.11.62-.25.19-.14.34-.32.45-.54.09-.18.14-.36.15-.56.01-.2-.02-.39-.09-.59-.07-.19-.18-.37-.32-.52-.14-.16-.3-.28-.5-.38-.27-.14-.56-.2-.87-.18-.31.02-.6.11-.85.28-.26.16-.46.38-.6.66-.1.2-.16.43-.18.7-.02.26,0,.54.08.82.07.29.18.55.33.8-.24-.15-.51-.26-.8-.33-.29-.07-.56-.1-.82-.08-.26.01-.5.08-.7.18-.28.14-.5.35-.66.61-.17.26-.26.54-.28.85-.02.31.04.6.18.87.1.2.23.37.39.5.16.14.33.24.52.31.19.07.39.11.59.09.2,0,.38-.06.56-.15.22-.11.4-.26.53-.45.14-.19.22-.39.25-.62.03-.22,0-.42-.09-.6-.12-.23-.31-.4-.56-.48-.25-.09-.49-.07-.71.04-.14.07-.24.16-.31.27-.07.11-.11.24-.12.39,0,.15.02.31.08.47l.32-.05c-.07-.19-.08-.35-.05-.49.04-.14.13-.25.28-.33.11-.06.25-.06.4,0,.15.06.27.17.34.32.07.13.09.28.07.45-.02.17-.09.33-.2.48-.11.15-.24.26-.4.34-.18.09-.38.13-.6.1-.22-.03-.42-.11-.61-.23-.18-.12-.33-.29-.43-.49-.18-.35-.2-.72-.08-1.1.13-.38.37-.66.72-.84.37-.19.75-.23,1.15-.14.4.09.83.33,1.28.7.24.2.46.43.65.67.2.25.37.52.53.83.28.56.47,1.22.57,1.98l.02.14c-.33-.31-.71-.52-1.14-.63-.43-.11-.83-.07-1.19.12-.35.18-.63.41-.85.71-.22.29-.35.61-.39.96-.04.35.02.68.18,1,.17.35.35.58.54.69-.27.05-.48.11-.64.19-.28.15-.5.34-.68.6-.17.26-.27.54-.3.83-.02.3.03.59.17.86.23.46.64.78,1.21.94-.52.65-.6,1.3-.27,1.95.17.33.41.6.73.8.32.2.66.3,1.03.32.37.02.72-.06,1.06-.23.55-.28.88-.75.97-1.4.06-.33.06-.62-.02-.85h.1c.31.1.56.13.74.12.19,0,.38-.06.58-.16.27-.14.49-.33.65-.57.16-.24.25-.5.26-.79,0-.28-.06-.57-.2-.85-.11-.21-.24-.39-.38-.53-.14-.14-.32-.26-.54-.36.25,0,.47-.04.65-.14.32-.16.57-.39.76-.68.19-.29.28-.61.29-.97,0-.36-.08-.71-.25-1.06-.02-.03-.04-.05-.06-.08.03.02.05.04.08.06.35.18.71.26,1.06.26.36-.01.68-.11.97-.29.29-.19.52-.44.68-.76.09-.18.14-.4.14-.65.1.22.22.4.36.54.14.14.32.27.53.38.28.15.56.21.85.2.28,0,.55-.09.79-.26.24-.16.43-.38.57-.65.1-.19.15-.39.16-.57,0-.19-.03-.44-.11-.74v-.1c.22.07.5.08.84.02.65-.1,1.12-.42,1.4-.97.17-.34.25-.69.23-1.06-.02-.37-.13-.71-.32-1.03ZM76.2,77.66c-.08-.15-.16-.29-.25-.42.14.08.27.17.42.25.39.2.82.36,1.26.49.45.12.89.2,1.34.22-.08.1-.13.18-.16.23-.15.3-.22.61-.21.93.01.27.1.51.22.75-.24-.13-.49-.21-.75-.22-.32,0-.63.06-.93.21-.06.03-.14.08-.23.16-.03-.45-.1-.9-.22-1.34-.12-.45-.29-.87-.49-1.26ZM79.42,82.91c-.14.25-.33.43-.58.56-.12.06-.25.11-.41.15-.15.04-.36.08-.63.12-.01,0-.03,0-.05,0-.02,0-.06.01-.1.02.6.26,1.02.61,1.25,1.07.12.23.17.47.15.72-.02.25-.1.47-.23.67-.13.2-.31.36-.54.48-.24.12-.5.18-.78.16-.28-.02-.56-.1-.86-.27.01.02.02.04.03.05,0,0,.01.02.02.02.12.24.16.55.1.9-.09.69-.39,1.16-.91,1.43-.2.1-.42.16-.66.17-.24.01-.47-.02-.69-.09-.21-.07-.41-.18-.59-.33-.18-.15-.32-.33-.43-.55-.17-.34-.21-.69-.13-1.04.09-.36.3-.67.62-.92-.7-.18-1.16-.48-1.38-.9-.12-.24-.17-.48-.16-.74.02-.26.1-.49.24-.71.15-.21.35-.38.6-.51.28-.15.63-.21,1.04-.2-.07-.07-.11-.11-.11-.11l-.43-.32c-.09-.06-.18-.18-.27-.36-.22-.43-.25-.88-.1-1.34.15-.47.46-.81.91-1.05.39-.2.78-.25,1.15-.13.37.11.76.35,1.15.69.02.31-.05.59-.2.83-.25.39-.55.68-.92.86-.16.08-.32.11-.48.08-.16-.03-.28-.1-.34-.23-.03-.06-.03-.15.01-.24.04-.1.1-.16.18-.2.06-.03.15-.04.27-.01l.13-.21c-.09-.1-.18-.16-.27-.17-.09-.01-.19,0-.31.07-.15.07-.24.2-.28.36-.04.17-.03.33.06.5.11.22.28.36.5.41.22.05.46.01.73-.12.2-.1.36-.23.49-.36.12-.13.27-.36.43-.67-.06.47-.12.87-.2,1.22-.07.34-.16.63-.26.87-.1.23-.23.46-.39.68-.27.36-.58.63-.95.81-.2.11-.38.15-.53.13-.15-.02-.26-.09-.33-.22-.04-.07-.05-.15-.02-.24.02-.08.06-.14.13-.18.07-.04.14-.03.2.01l.06-.27c-.14-.03-.28-.01-.42.06-.15.07-.24.18-.28.32-.03.14-.01.28.06.42.07.14.17.25.29.32.12.07.26.1.41.09.15,0,.32-.06.5-.16.26-.13.47-.29.63-.46.16-.17.38-.47.64-.88-.02.18-.1.46-.23.85-.06.15-.11.3-.15.44-.09.29-.2.6-.33.94-.09.29-.24.66-.47,1.1l.07.04c.15-.22.29-.44.4-.66.22-.46.4-.89.53-1.29.08-.26.2-.64.37-1.15.07.49.14.82.23.98.14.28.32.47.52.57.2.1.4.11.61,0,.17-.09.28-.21.33-.37.06-.16.04-.32-.04-.48-.1-.18-.23-.29-.41-.32l-.11.23c.14.02.24.07.28.15.03.05.03.11.03.19,0,.08-.03.15-.07.23-.02.05-.06.08-.1.1-.14.07-.28.07-.41,0-.13-.07-.25-.21-.36-.41-.14-.28-.23-.62-.27-1.04-.01-.24-.01-.43,0-.58.01-.15.06-.45.15-.9.05-.3.09-.64.13-1,.06.16.13.31.21.47.14.27.31.46.53.57.21.11.42.11.63,0,.1-.05.17-.12.23-.21.06-.09.09-.19.1-.29,0-.11-.02-.21-.07-.32-.07-.14-.21-.25-.42-.3l-.06.18c.11.06.19.13.22.2.04.08.04.17.02.28-.03.11-.08.18-.16.22-.12.06-.28.03-.46-.1-.18-.13-.33-.31-.45-.55-.14-.27-.24-.69-.3-1.26.52-.27.99-.35,1.42-.27.43.09.78.39,1.04.91.15.29.22.59.23.9,0,.31-.06.59-.2.84ZM87.7,77.17c-.27.52-.74.82-1.43.91-.36.06-.66.02-.9-.1,0,0-.01-.01-.02-.02,0,0-.03-.02-.05-.03.16.29.25.58.27.86.02.28-.04.54-.16.78-.12.23-.28.41-.48.54-.2.13-.43.21-.67.23-.25.02-.48-.03-.72-.15-.46-.23-.81-.65-1.07-1.25,0,.04,0,.08-.02.1,0,.02,0,.04,0,.05-.04.27-.08.48-.12.62-.04.15-.08.29-.15.41-.13.25-.31.44-.56.58-.25.13-.53.2-.84.2-.31,0-.61-.08-.9-.23-.52-.27-.83-.62-.91-1.04-.09-.43,0-.9.27-1.42.57.06.99.16,1.27.3.24.12.42.27.55.45.13.18.16.34.09.46-.04.08-.11.13-.22.16-.11.03-.2.02-.28-.02-.07-.04-.13-.11-.2-.22l-.18.06c.06.2.16.34.3.42.11.05.21.08.32.07.11,0,.2-.04.3-.1.09-.06.16-.13.21-.23.11-.21.11-.42,0-.63-.11-.21-.3-.39-.57-.53-.16-.08-.32-.15-.47-.21.36-.04.69-.08,1-.13.45-.09.75-.14.9-.15.14-.01.34-.01.57,0,.42.04.77.13,1.04.27.2.1.34.22.41.36.07.13.07.27,0,.41-.02.04-.06.07-.1.1-.07.04-.15.06-.23.07-.07,0-.14,0-.19-.03-.08-.04-.13-.13-.15-.28l-.23.11c.03.18.14.32.32.41.16.08.32.09.48.04.16-.06.28-.17.37-.33.1-.2.1-.4,0-.61-.1-.2-.29-.38-.57-.52-.16-.08-.49-.16-.98-.22.51-.16.89-.29,1.15-.37.4-.13.83-.31,1.3-.53.22-.11.44-.25.66-.4l-.04-.06c-.44.23-.81.38-1.1.47-.34.12-.65.23-.94.33-.14.04-.28.09-.44.15-.39.13-.67.2-.85.23.42-.26.71-.47.88-.64.17-.17.32-.38.46-.63.09-.18.14-.35.16-.51,0-.15-.02-.29-.09-.41-.07-.12-.18-.22-.32-.29-.14-.07-.28-.09-.42-.06-.14.04-.24.13-.32.28-.07.14-.09.28-.06.42l.27-.06c-.05-.06-.05-.13-.01-.2.04-.07.09-.11.18-.13.08-.02.16-.01.24.03.13.07.21.18.22.33.02.15-.03.33-.13.54-.19.37-.46.68-.81.95-.22.16-.45.29-.68.39-.24.1-.53.18-.87.26-.35.08-.75.15-1.22.2.31-.16.53-.31.67-.43.13-.12.26-.29.36-.49.13-.26.17-.5.12-.72-.05-.22-.19-.39-.41-.5-.17-.09-.34-.11-.5-.06-.16.04-.29.14-.36.29-.06.12-.09.22-.07.31.01.09.07.18.17.27l.21-.13c-.02-.12-.02-.21.02-.27.04-.08.1-.13.2-.18.1-.04.18-.05.24-.01.13.06.2.18.23.34.03.16,0,.32-.08.48-.19.37-.47.67-.86.92-.24.15-.52.22-.83.2-.34-.39-.58-.78-.69-1.15-.11-.37-.07-.76.13-1.15.23-.45.58-.76,1.05-.91.46-.15.91-.12,1.34.1.18.09.3.18.36.27l.32.43s.04.04.11.11c-.01-.41.05-.75.2-1.04.13-.25.3-.45.51-.6.21-.15.45-.23.71-.24.26-.02.5.04.74.16.42.21.71.67.9,1.38.25-.32.55-.53.91-.62.36-.09.71-.05,1.04.13.22.11.4.25.55.43.15.18.25.38.33.59.07.22.11.44.09.69,0,.24-.06.46-.17.66Z" />
    <path class="cls-1"
      d="M16.56,76.28c-.16-.26-.38-.46-.66-.6-.2-.1-.43-.16-.7-.18-.26-.02-.54,0-.82.08-.29.07-.55.18-.8.33.15-.25.25-.51.33-.8.07-.29.1-.56.08-.82-.02-.26-.08-.5-.18-.69-.14-.28-.34-.5-.6-.66-.26-.17-.54-.26-.85-.28-.31-.02-.6.04-.87.18-.2.1-.37.23-.5.39-.14.16-.24.33-.32.52-.07.19-.1.39-.09.59,0,.2.05.38.14.56.11.22.26.4.45.54.19.14.39.22.61.25.22.03.42,0,.6-.09.23-.12.4-.3.48-.56.09-.25.07-.48-.04-.71-.07-.14-.16-.24-.27-.31-.11-.07-.24-.11-.39-.12-.15,0-.31.02-.47.08l.05.32c.19-.07.35-.08.49-.05.14.04.25.13.33.28.06.12.06.25,0,.4-.06.15-.17.27-.32.34-.13.07-.28.09-.45.07-.17-.02-.33-.09-.48-.2-.15-.11-.26-.24-.34-.4-.09-.18-.13-.38-.1-.6s.11-.42.23-.6c.12-.19.29-.33.49-.43.35-.18.72-.2,1.1-.08.38.13.66.37.84.72.19.37.23.75.14,1.15-.09.4-.33.83-.7,1.28-.2.24-.43.46-.68.66-.25.19-.53.37-.83.53-.56.28-1.21.47-1.98.57l-.14.02c.31-.33.52-.71.63-1.14.11-.43.07-.83-.11-1.2-.18-.34-.41-.63-.71-.85-.29-.22-.61-.35-.96-.39-.35-.04-.68.02-1,.18-.35.17-.57.36-.69.54-.05-.27-.11-.48-.19-.64-.14-.28-.34-.51-.6-.68-.26-.17-.53-.27-.83-.3-.3-.03-.59.03-.86.17-.46.23-.78.63-.94,1.2-.65-.52-1.3-.61-1.95-.27-.33.17-.6.41-.8.73-.2.32-.31.66-.32,1.03-.02.37.06.72.23,1.06.28.55.75.87,1.4.97.34.06.62.05.85-.02v.1c-.1.31-.13.56-.12.74,0,.19.06.38.16.58.14.27.33.49.57.65.24.16.5.25.79.26.28,0,.57-.06.85-.2.21-.11.39-.24.53-.38.14-.14.25-.32.36-.54,0,.26.04.47.14.65.16.32.39.57.68.76.29.19.61.28.97.29.36,0,.71-.08,1.06-.26.03-.02.05-.04.08-.06-.02.03-.04.05-.06.08-.18.35-.26.71-.26,1.06.01.36.11.68.29.97.19.29.44.52.76.68.18.09.39.14.65.14-.22.1-.4.22-.54.36-.14.14-.27.32-.38.53-.14.28-.21.57-.2.85,0,.28.09.55.26.79.16.24.38.43.65.57.2.1.39.15.58.16.19,0,.44-.03.74-.11h.1c-.07.22-.08.5-.02.84.1.65.42,1.12.97,1.4.34.17.69.25,1.06.23.37-.02.71-.13,1.03-.32.32-.2.56-.46.73-.8.34-.65.25-1.3-.27-1.95.57-.17.97-.48,1.21-.94.14-.27.2-.56.17-.86-.03-.3-.12-.58-.3-.84-.17-.25-.4-.45-.68-.6-.16-.08-.37-.14-.64-.19.18-.12.36-.35.54-.69.16-.32.22-.65.18-1-.04-.35-.17-.66-.39-.96-.22-.29-.51-.53-.85-.71-.36-.19-.77-.23-1.2-.12-.43.11-.81.32-1.14.63l.02-.14c.1-.76.29-1.42.57-1.97.16-.31.33-.58.53-.83.19-.25.41-.47.65-.67.45-.37.88-.61,1.28-.7.4-.09.79-.05,1.15.14.35.18.59.46.72.84.13.38.1.75-.08,1.1-.1.2-.24.36-.43.49-.19.12-.39.2-.61.23-.22.03-.42,0-.6-.1-.16-.08-.29-.2-.4-.34-.11-.15-.17-.31-.2-.48-.02-.17,0-.32.07-.45.08-.15.19-.26.34-.32.15-.06.29-.06.4,0,.15.08.24.18.28.33.04.14.02.3-.05.49l.32.05c.06-.17.09-.33.08-.47,0-.15-.05-.28-.12-.39-.07-.11-.18-.2-.31-.27-.23-.12-.46-.13-.71-.04-.25.08-.44.25-.56.48-.09.18-.12.38-.09.6.03.22.11.43.25.62.14.19.32.34.54.45.18.09.36.14.56.14.2,0,.39-.02.59-.09.19-.07.37-.18.52-.32.16-.14.28-.3.39-.5.14-.27.2-.56.18-.87-.02-.31-.11-.6-.28-.85ZM8.3,80.68c-.29.15-.58.22-.9.23-.31,0-.59-.06-.84-.2-.25-.14-.43-.33-.56-.58-.06-.12-.11-.25-.15-.41-.04-.15-.08-.36-.12-.63,0,0,0-.03,0-.05,0-.02-.01-.06-.02-.1-.26.6-.61,1.02-1.07,1.25-.23.12-.47.17-.72.15-.25-.02-.47-.1-.67-.23-.2-.13-.36-.31-.48-.54-.12-.24-.18-.5-.16-.78.01-.28.1-.57.27-.86-.02.01-.04.02-.05.03,0,0-.02.01-.02.02-.24.12-.55.16-.9.1-.69-.08-1.16-.39-1.43-.91-.1-.2-.16-.42-.17-.66-.01-.24.02-.47.09-.69.07-.21.18-.41.33-.59.15-.18.33-.32.55-.43.34-.17.69-.21,1.05-.13.36.09.66.3.91.62.19-.7.48-1.16.9-1.37.24-.12.48-.17.74-.16.26.02.49.1.7.24.21.15.38.35.51.6.14.28.21.63.2,1.04.07-.07.11-.11.11-.11l.32-.43c.06-.09.18-.18.36-.27.43-.22.88-.25,1.34-.1.47.15.81.46,1.04.91.2.39.25.78.13,1.15-.11.37-.35.76-.69,1.15-.31.02-.59-.05-.83-.2-.39-.25-.68-.55-.86-.92-.08-.16-.11-.32-.08-.48.03-.16.1-.27.23-.34.06-.03.14-.03.24.01.09.05.16.11.2.18.03.06.04.15.02.27l.21.13c.1-.09.16-.18.17-.27.01-.09,0-.19-.07-.31-.07-.15-.2-.24-.36-.29-.17-.04-.33-.02-.5.06-.22.11-.36.28-.41.5-.05.22-.01.46.12.73.1.2.23.36.36.49.13.12.36.27.67.43-.47-.06-.87-.12-1.22-.2-.34-.07-.64-.16-.87-.26-.23-.1-.46-.23-.68-.39-.36-.27-.63-.58-.82-.95-.11-.2-.15-.38-.13-.53.01-.15.09-.26.22-.33.08-.04.16-.04.24-.02.08.02.14.07.18.13.04.08.03.14-.01.2l.27.07c.03-.14.01-.28-.06-.42-.08-.15-.18-.24-.32-.28-.14-.03-.28-.02-.42.06-.14.07-.25.17-.32.29-.07.12-.1.26-.09.41,0,.15.06.32.16.51.13.26.29.47.46.63.17.17.47.38.89.64-.18-.02-.46-.1-.85-.23-.15-.06-.3-.11-.44-.15-.29-.09-.6-.2-.94-.33-.29-.09-.66-.24-1.1-.47l-.04.07c.22.15.44.29.67.4.46.22.89.4,1.29.53.26.08.64.2,1.15.37-.49.07-.82.14-.98.22-.28.14-.47.32-.57.52-.1.2-.11.4,0,.61.09.17.21.28.37.33.16.06.31.04.48-.04.18-.1.29-.23.32-.41l-.23-.11c-.02.14-.07.24-.15.28-.05.02-.11.03-.19.03-.08,0-.15-.03-.22-.07-.05-.02-.08-.06-.1-.1-.07-.14-.07-.28,0-.41.07-.13.21-.25.41-.36.28-.14.62-.23,1.04-.27.24-.02.43-.02.57,0,.15.01.45.06.9.15.3.05.64.09,1,.13-.16.06-.31.13-.47.21-.27.14-.46.32-.57.53-.11.21-.11.42,0,.63.05.1.12.17.21.23.09.06.19.09.29.1.11,0,.21-.02.32-.07.14-.07.25-.21.3-.42l-.18-.06c-.06.11-.13.19-.2.22-.08.04-.17.04-.28.01-.11-.03-.18-.08-.22-.16-.06-.12-.03-.28.09-.46.13-.18.31-.33.55-.46.27-.14.69-.24,1.26-.3.26.52.35.99.27,1.42-.09.43-.39.78-.91,1.04ZM12.68,79.88c.37-.11.76-.07,1.15.13.45.23.76.58.91,1.04.15.46.12.91-.1,1.34-.09.18-.18.3-.27.36l-.43.32s-.04.04-.11.11c.41-.01.75.05,1.04.2.25.13.45.3.6.51.15.21.23.45.24.7.02.26-.04.5-.16.74-.21.42-.67.71-1.37.9.32.25.53.55.62.91.09.36.05.71-.13,1.05-.11.22-.25.4-.43.55-.18.14-.38.25-.59.33-.22.07-.44.11-.69.09-.24,0-.46-.07-.66-.17-.52-.27-.83-.74-.91-1.43-.06-.36-.02-.66.1-.9,0,0,.01-.01.02-.02,0,0,.02-.03.03-.05-.3.16-.58.25-.86.27-.28.02-.54-.04-.78-.16-.23-.12-.41-.28-.54-.48-.13-.2-.21-.43-.23-.67-.02-.25.03-.48.15-.72.23-.46.65-.81,1.25-1.07-.04,0-.08,0-.1-.02-.02,0-.04,0-.05,0-.27-.04-.48-.08-.63-.12-.15-.04-.29-.08-.41-.14-.25-.13-.44-.31-.58-.56-.13-.25-.2-.53-.2-.84,0-.31.08-.61.23-.9.27-.52.62-.83,1.04-.91.43-.08.9,0,1.42.27-.06.57-.16.99-.3,1.27-.12.24-.27.42-.46.55-.18.13-.33.16-.46.09-.08-.04-.13-.11-.16-.22-.03-.11-.02-.2.02-.28.04-.07.11-.13.22-.2l-.06-.18c-.2.06-.34.16-.42.3-.05.11-.08.21-.07.31,0,.11.04.21.1.29.06.09.13.16.23.21.21.11.42.11.63,0,.21-.11.39-.3.53-.57.08-.16.15-.32.21-.47.04.36.08.69.13,1,.09.45.14.75.15.9.01.15.01.34,0,.58-.04.42-.13.77-.27,1.04-.1.2-.22.34-.36.41-.13.07-.27.07-.41,0-.04-.02-.07-.06-.1-.1-.04-.07-.06-.15-.07-.23,0-.07,0-.14.03-.19.04-.08.13-.13.28-.15l-.11-.23c-.18.03-.32.13-.41.32-.08.16-.09.32-.04.48.06.16.17.28.33.37.2.1.4.1.61,0,.2-.1.38-.29.52-.57.08-.16.16-.49.23-.98.16.51.29.89.37,1.15.13.4.31.83.53,1.29.11.22.24.44.4.66l.06-.04c-.23-.44-.38-.81-.47-1.1-.12-.34-.23-.65-.33-.94-.04-.14-.09-.28-.15-.44-.13-.39-.2-.67-.23-.86.26.42.47.71.64.89.17.17.38.32.63.46.18.09.35.14.51.15.15,0,.29-.02.41-.09.12-.07.22-.18.29-.32.07-.14.09-.28.06-.42-.04-.14-.13-.24-.28-.32-.14-.07-.28-.09-.42-.06l.07.27c.06-.05.13-.05.2-.01.07.04.11.09.13.17.02.08.01.16-.03.24-.07.13-.18.2-.33.22-.15.02-.33-.03-.53-.13-.37-.19-.68-.46-.95-.82-.16-.22-.29-.45-.39-.68-.1-.24-.19-.53-.26-.87-.08-.35-.14-.75-.2-1.22.16.31.31.53.43.67.12.14.29.26.49.36.26.13.5.17.73.12.22-.05.39-.19.5-.41.09-.17.11-.34.06-.5-.04-.17-.14-.29-.28-.36-.12-.06-.23-.09-.31-.07-.09.01-.18.07-.27.17l.13.2c.12-.02.21-.01.27.02.07.04.13.1.18.2.04.1.05.18.01.25-.06.13-.18.2-.34.23-.16.03-.32,0-.48-.08-.37-.19-.67-.47-.92-.86-.15-.24-.22-.52-.2-.83.39-.35.78-.58,1.15-.69ZM11.99,77.67c-.2.4-.36.82-.49,1.26-.12.45-.2.9-.22,1.35-.1-.08-.18-.13-.24-.16-.3-.15-.61-.22-.93-.21-.27.01-.51.1-.75.22.13-.24.21-.49.22-.76.01-.32-.06-.63-.21-.93-.03-.06-.08-.14-.16-.24.45-.03.9-.1,1.35-.22.45-.12.87-.29,1.26-.49.15-.08.28-.16.42-.25-.08.13-.17.27-.25.42Z" />
    <rect class="cls-1" x="15.65" y="6.97" width="56.61" height="1.01" />
    <polygon class="cls-1" points="16.82 10.01 71.09 10.01 71.64 9.55 16.27 9.55 16.82 10.01" />
    <rect class="cls-1" x="15.65" y="81.44" width="56.61" height="1.01" />
    <polygon class="cls-1" points="16.82 79.41 71.09 79.41 71.64 79.86 16.27 79.86 16.82 79.41" />
    <rect class="cls-1" x="6.09" y="16.35" width="1.01" height="56.6" />
    <polygon class="cls-1" points="9.13 71.79 9.13 17.52 8.68 16.97 8.68 72.34 9.13 71.79" />
    <rect class="cls-1" x="80.56" y="16.35" width="1.01" height="56.6" />
    <polygon class="cls-1" points="78.53 71.79 78.53 17.52 78.99 16.97 78.99 72.34 78.53 71.79" />
  </g>

</svg>