<?xml version="1.0" encoding="UTF-8"?>
<svg id="Layer_2" data-name="Layer 2" xmlns="http://www.w3.org/2000/svg" viewBox="0 0 910.39 382.85"
  preserveAspectRatio="none">

  <g id="Projects">
    <path class="cls-1"
      d="M902.19,274.51c-4.92-4.89-10.53-7.25-16.92-7.06.56-3.15,1.61-6.45,3.16-9.81,1.59-3.36,3.23-5.96,5-7.73,2.47-2.51,4.39-3.14,5.62-1.9l.78.94c.67,1.09,1.07,1.68,1.2,1.81l2.12.86,2.09-.79.87-2.38-1.23-2.54c-1.54-1.5-3.58-1.96-6.2-1.36-2.57.57-5.14,2.1-7.61,4.57-4.58,4.63-7.96,10.82-10.2,18.57-1.57.09-3.14.34-4.7.7-.06-.09-.1-.19-.16-.27l-.47.41c-2,.51-3.99,1.22-5.97,2.18-3.69,1.77-7.19,4.31-10.44,7.56l-5.72,7.19-3.14,6.61c-.22-1.3-.36-2.66-.36-4.08.01-3.82,1-7.66,2.9-11.54.18.03.35.08.54.08l1.5-.5.6-1.31-.49-1.16-1.23-.5c-.09,0-.46.09-1.17.25l-.71.05c-.99,0-1.5-.99-1.5-3,0-1.42.36-3.12,1.09-5.08.75-1.98,1.62-3.72,2.67-5.19,2.48,2.61,5.69,3.94,9.58,3.94,3.29,0,6.27-.91,8.95-2.78,2.71-1.88,4.83-4.49,6.36-7.82,1.54-3.35,2.31-7.04,2.31-11.12.03-3.15-.5-6.35-1.52-9.61-1.02-3.29-2.4-6.19-4.15-8.72l-.63.52c.51,1.2.75,2.41.75,3.63,0,2.89-1.02,5.69-3.07,8.38l-2.88,3.39c-1.02,1.02-2.6,2.46-4.71,4.31-1.82,1.63-3.28,2.95-4.36,3.92l-2.89,2.88-2.21,2.62-1.95,2.75c-1.32-1.57-2.36-3.41-3.07-5.54-.72-2.14-1.07-4.48-1.07-7.01,0-3.89,1.03-7.81,3-11.75.28.08.57.12.87.12l1.5-.51.6-1.29-.5-1.17-1.21-.5c-.09,0-.47.07-1.18.24l-.7.07c-1,0-1.5-1.01-1.5-3.01,0-1.42.37-3.12,1.1-5.1.72-1.97,1.61-3.7,2.66-5.19,2.48,2.62,5.68,3.93,9.59,3.95,3.27,0,6.26-.92,8.94-2.79,2.69-1.86,4.81-4.47,6.36-7.81,1.53-3.34,2.31-7.05,2.31-11.13,0-2.14-.25-4.3-.73-6.5.48-2.2.73-4.36.73-6.5,0-4.08-.78-7.8-2.31-11.13-1.55-3.35-3.67-5.96-6.36-7.82-2.69-1.87-5.67-2.79-8.94-2.79-3.91.02-7.11,1.32-9.59,3.94-1.05-1.48-1.94-3.22-2.66-5.19-.72-1.98-1.1-3.66-1.1-5.09,0-2,.49-3.01,1.5-3.01l.7.07c.71.16,1.09.24,1.18.24l1.21-.5.5-1.17-.6-1.3-1.5-.51c-.3,0-.6.04-.87.12-1.97-3.94-2.99-7.87-3-11.76,0-2.53.35-4.86,1.07-7,.71-2.13,1.75-3.98,3.07-5.54l1.95,2.75,2.21,2.62,2.89,2.88c1.09.97,2.54,2.3,4.36,3.92,2.11,1.86,3.69,3.29,4.71,4.32l2.88,3.39c2.05,2.69,3.07,5.49,3.07,8.38,0,1.22-.24,2.43-.75,3.63l.63.51c1.75-2.53,3.13-5.43,4.15-8.73,1.02-3.25,1.55-6.45,1.52-9.61,0-4.08-.77-7.77-2.31-11.12-1.54-3.33-3.65-5.94-6.36-7.82-2.68-1.87-5.66-2.78-8.95-2.78-3.89,0-7.1,1.33-9.58,3.94-1.05-1.48-1.92-3.21-2.67-5.19-.73-1.96-1.09-3.66-1.09-5.08,0-2.01.51-3,1.5-3l.71.05c.71.16,1.08.24,1.17.24l1.23-.5.49-1.17-.6-1.31-1.5-.51c-.19,0-.36.04-.54.08-1.89-3.87-2.88-7.71-2.9-11.54,0-1.43.14-2.78.36-4.08l3.14,6.61,5.72,7.19c3.25,3.25,6.74,5.78,10.44,7.56,1.97.95,3.96,1.66,5.96,2.17l.47.41c.06-.09.1-.19.16-.27,1.56.36,3.13.62,4.7.71,2.24,7.74,5.62,13.94,10.2,18.57,2.48,2.48,5.04,4,7.61,4.58,2.62.59,4.66.12,6.2-1.37l1.23-2.54-.87-2.39-2.09-.79-2.12.86c-.13.13-.53.72-1.2,1.8l-.78.95c-1.23,1.23-3.15.61-5.62-1.91-1.77-1.77-3.41-4.37-5-7.73-1.55-3.35-2.6-6.65-3.16-9.8,6.39.18,12-2.18,16.92-7.06,4.07-4.07,6.67-8.96,7.68-14.66,1.07-5.7.45-11.59-1.82-17.7-2.25-6.1-5.91-11.71-10.98-16.83-3.92-3.91-8.55-7.24-13.92-10.08-5.27-2.77-10.53-4.62-15.79-5.65-1.03-5.26-2.88-10.52-5.65-15.79-2.83-5.37-6.16-10.01-10.07-13.93-5.12-5.07-10.72-8.73-16.82-10.98-6.1-2.26-11.99-2.88-17.71-1.83-5.69,1.02-10.59,3.61-14.66,7.68-4.88,4.93-7.23,10.55-7.05,16.93-3.15-.56-6.45-1.6-9.8-3.16-3.36-1.59-5.96-3.24-7.73-5-2.51-2.47-3.14-4.39-1.91-5.63l.96-.77c1.09-.68,1.67-1.08,1.79-1.21l.86-2.12-.78-2.08-2.39-.88-2.54,1.23c-1.49,1.54-1.95,3.58-1.36,6.2.58,2.57,2.1,5.13,4.58,7.61,4.62,4.59,10.82,7.97,18.57,10.21.21,3.8,1.21,7.57,3.01,11.29,1.79,3.7,4.32,7.2,7.56,10.45l7.18,5.7,8.16,3.88.32.07c-1.57.34-3.19.57-4.94.57-3.83-.01-7.66-1-11.54-2.9.03-.18.08-.36.08-.54l-.5-1.5-1.31-.6-1.16.49-.5,1.23c0,.09.09.46.24,1.17l.05.71c0,.98-.99,1.5-3,1.49-1.42,0-3.12-.36-5.08-1.09-1.98-.75-3.71-1.62-5.19-2.66,2.61-2.48,3.94-5.69,3.94-9.58,0-3.3-.91-6.27-2.78-8.95-1.88-2.71-4.49-4.82-7.81-6.36-3.35-1.54-7.04-2.31-11.12-2.31-3.15-.03-6.36.5-9.61,1.53-3.3,1.02-6.19,2.4-8.73,4.14l.51.64c1.21-.51,2.42-.76,3.64-.76,2.89,0,5.69,1.03,8.38,3.07l3.39,2.88c1.03,1.01,2.46,2.59,4.32,4.71,1.62,1.82,2.94,3.27,3.92,4.36l2.88,2.88,2.62,2.22,2.75,1.95c-1.57,1.32-3.42,2.36-5.54,3.07-2.14.72-4.47,1.07-7,1.07-3.89,0-7.81-1.03-11.76-3,.08-.28.13-.57.13-.88l-.52-1.49-1.29-.6-1.17.5-.5,1.21c0,.09.07.47.23,1.18l.07.69c0,1-1.01,1.5-3.01,1.5-1.42,0-3.11-.37-5.09-1.1-1.97-.73-3.7-1.61-5.19-2.66,2.62-2.48,3.93-5.68,3.94-9.6,0-3.27-.92-6.25-2.79-8.94-1.86-2.69-4.47-4.81-7.81-6.36-3.33-1.53-7.05-2.32-11.12-2.32-3.14,0-6.32.51-9.61,1.53-3.27,1.02-6.18,2.41-8.72,4.15l.53.65c1.19-.52,2.39-.77,3.61-.77,2.91,0,5.7,1.03,8.39,3.09l3.39,2.87c1.02,1.02,2.46,2.59,4.32,4.69,1.62,1.85,2.93,3.28,3.92,4.35l2.86,2.89,2.62,2.21,2.77,1.97c-1.57,1.33-3.43,2.37-5.56,3.07-2.14.73-4.47,1.08-7,1.08-3.89,0-7.81-1.03-11.76-3,.08-.28.12-.58.12-.88l-.5-1.49-1.31-.62-1.16.5-.5,1.22c0,.09.08.48.25,1.19l.05.69c0,1.01-1,1.5-3,1.5-1.43,0-3.12-.37-5.1-1.11-1.97-.72-3.72-1.6-5.19-2.63,2.61-2.51,3.93-5.69,3.93-9.6.02-3.28-.92-6.28-2.78-8.96-1.86-2.69-4.47-4.8-7.82-6.34-3.33-1.55-7.06-2.32-11.12-2.33-3.14,0-6.33.5-9.61,1.54-3.27,1.02-6.19,2.41-8.72,4.14l.54.65c1.19-.53,2.41-.78,3.6-.78,2.92,0,5.7,1.03,8.4,3.1l3.37,2.86c1.03,1.03,2.47,2.6,4.34,4.71,1.62,1.83,2.93,3.28,3.92,4.37l2.85,2.87,2.62,2.23,2.77,1.95c-1.59,1.34-3.42,2.36-5.55,3.09-2.13.72-4.48,1.05-6.99,1.05-3.91,0-7.82-1.02-11.76-2.99.08-.28.13-.57.13-.88l-.51-1.5-1.3-.62-1.18.52-.51,1.21c0,.08.11.47.26,1.18l.05.7c0,1-.99,1.49-3,1.49-1.42,0-3.12-.37-5.1-1.09-1.97-.73-3.69-1.6-5.19-2.65,2.63-2.5,3.95-5.69,3.95-9.59,0-3.28-.9-6.27-2.78-8.97-1.87-2.68-4.48-4.8-7.83-6.34-3.33-1.53-7.04-2.32-11.11-2.33-3.14,0-6.33.53-9.6,1.53-3.29,1.03-6.18,2.41-8.71,4.14l.52.65c1.2-.5,2.4-.77,3.63-.74,2.89,0,5.69,1.03,8.38,3.06l3.38,2.88c1.02,1.02,2.47,2.59,4.33,4.7,1.62,1.82,2.94,3.29,3.92,4.36l2.85,2.88,2.64,2.22,2.75,1.94c-1.57,1.36-3.43,2.38-5.56,3.09-2.13.72-4.46,1.07-6.98,1.06-3.9,0-7.82-1.01-11.77-2.98.09-.28.13-.58.13-.89l-.52-1.51-1.3-.6-1.15.52-.5,1.19c0,.1.08.49.24,1.2l.07.69c0,.99-1.02,1.51-3.02,1.49-1.43,0-3.11-.39-5.08-1.09-1.98-.72-3.71-1.62-5.2-2.66,2.63-2.48,3.94-5.68,3.95-9.6,0-3.26-.92-6.25-2.8-8.94-1.84-2.71-4.45-4.82-7.8-6.35-3.36-1.54-7.05-2.32-11.14-2.34-3.12,0-6.32.52-9.6,1.54-3.27,1.02-6.18,2.41-8.71,4.15l.52.63c1.21-.51,2.4-.75,3.62-.75,2.89,0,5.7,1.03,8.39,3.09l3.37,2.85c1.02,1.05,2.47,2.61,4.33,4.72,1.62,1.82,2.93,3.28,3.93,4.36l2.86,2.88,2.63,2.21,2.76,1.95c-1.57,1.34-3.43,2.35-5.56,3.09-2.14.7-4.47,1.05-7,1.05-3.81-.01-7.64-1-11.5-2.88.03-.18.08-.37.08-.56l-.51-1.5-1.31-.6-1.17.49-.5,1.23c0,.09.09.46.25,1.17l.05.71c0,.98-1,1.5-3.01,1.49-1.42,0-3.12-.36-5.08-1.09-1.98-.75-3.71-1.62-5.19-2.66,2.61-2.48,3.93-5.69,3.94-9.58,0-3.3-.92-6.27-2.78-8.95-1.88-2.71-4.49-4.82-7.82-6.36-3.35-1.54-7.04-2.31-11.12-2.31-3.15-.03-6.35.5-9.61,1.53-3.3,1.02-6.2,2.4-8.73,4.14l.51.64c1.2-.51,2.41-.76,3.63-.76,2.89,0,5.69,1.03,8.38,3.07l3.39,2.88c1.03,1.01,2.46,2.59,4.32,4.71,1.62,1.82,2.94,3.27,3.92,4.36l2.88,2.88,2.62,2.22,2.75,1.95c-1.57,1.32-3.42,2.36-5.55,3.07-2.14.72-4.47,1.07-6.99,1.07-3.89,0-7.82-1.03-11.76-3,.08-.28.12-.57.12-.88l-.52-1.49-1.29-.6-1.16.5-.51,1.21c0,.09.07.47.24,1.18l.07.69c0,1-1.01,1.5-3.01,1.5-1.43,0-3.11-.37-5.1-1.1-1.98-.73-3.7-1.61-5.19-2.66,2.63-2.48,3.93-5.68,3.95-9.6,0-3.27-.92-6.25-2.79-8.94-1.86-2.69-4.47-4.81-7.81-6.36-3.33-1.53-7.05-2.32-11.13-2.32-3.14,0-6.32.51-9.6,1.53-3.27,1.02-6.18,2.41-8.72,4.15l.54.65c1.19-.52,2.39-.77,3.61-.77,2.91,0,5.71,1.03,8.39,3.09l3.4,2.87c1.02,1.02,2.45,2.59,4.3,4.69,1.62,1.85,2.93,3.28,3.92,4.35l2.87,2.89,2.62,2.21,2.77,1.97c-1.57,1.33-3.43,2.37-5.56,3.07-2.14.73-4.47,1.08-7.01,1.08-3.89,0-7.81-1.03-11.76-3,.08-.28.13-.58.13-.88l-.5-1.49-1.31-.62-1.16.5-.49,1.22c0,.09.08.48.26,1.19l.05.69c0,1.01-1.01,1.5-3,1.5-1.43,0-3.13-.37-5.1-1.11-1.97-.72-3.72-1.6-5.19-2.63,2.62-2.51,3.93-5.69,3.93-9.6.02-3.28-.92-6.28-2.78-8.96-1.86-2.69-4.47-4.8-7.82-6.34-3.34-1.55-7.06-2.32-11.12-2.33-1.85,0-3.72.2-5.61.55-1.89-.36-3.76-.55-5.61-.55-4.07.01-7.78.78-11.12,2.33-3.35,1.53-5.96,3.65-7.82,6.34-1.86,2.68-2.8,5.68-2.78,8.96,0,3.91,1.32,7.09,3.93,9.6-1.47,1.03-3.22,1.91-5.19,2.63-1.97.74-3.67,1.11-5.1,1.11-1.99,0-3-.49-3-1.5l.05-.69c.18-.71.25-1.09.25-1.19l-.49-1.22-1.16-.5-1.31.62-.5,1.49c0,.3.04.6.13.88-3.95,1.97-7.87,3-11.76,3-2.53,0-4.86-.35-7-1.08-2.13-.7-3.99-1.74-5.56-3.07l2.77-1.97,2.62-2.21,2.86-2.89c.99-1.06,2.3-2.5,3.92-4.35,1.86-2.1,3.3-3.67,4.31-4.69l3.4-2.87c2.68-2.06,5.47-3.09,8.39-3.09,1.22,0,2.42.25,3.61.77l.54-.65c-2.54-1.74-5.45-3.12-8.72-4.15-3.28-1.02-6.47-1.53-9.61-1.53-4.07,0-7.79.79-11.13,2.32-3.34,1.56-5.95,3.67-7.82,6.36-1.86,2.69-2.79,5.67-2.79,8.94.02,3.92,1.32,7.12,3.95,9.6-1.49,1.05-3.22,1.93-5.19,2.66-1.98.73-3.67,1.1-5.1,1.1-2,0-3-.5-3-1.5l.07-.69c.16-.71.23-1.1.23-1.18l-.5-1.21-1.17-.5-1.29.6-.52,1.49c0,.31.04.6.12.88-3.94,1.97-7.87,2.99-11.75,3-2.53,0-4.86-.35-7-1.07-2.13-.71-3.98-1.75-5.54-3.07l2.75-1.95,2.62-2.22,2.88-2.88c.97-1.08,2.29-2.53,3.91-4.36,1.86-2.12,3.29-3.7,4.32-4.71l3.38-2.88c2.69-2.05,5.49-3.07,8.39-3.07,1.21,0,2.43.25,3.63.76l.52-.64c-2.53-1.74-5.43-3.12-8.72-4.14-3.26-1.03-6.46-1.56-9.61-1.53-4.07,0-7.77.77-11.12,2.31-3.32,1.54-5.93,3.65-7.82,6.36-1.86,2.69-2.78,5.66-2.78,8.95,0,3.89,1.34,7.11,3.94,9.58-1.48,1.04-3.21,1.91-5.19,2.66-1.96.74-3.66,1.09-5.08,1.09-2.01,0-3-.51-3-1.49l.05-.71c.16-.71.24-1.08.24-1.17l-.5-1.23-1.17-.49-1.31.6-.51,1.5c0,.2.04.38.08.56-3.86,1.88-7.69,2.87-11.5,2.88-2.53,0-4.86-.35-7-1.05-2.13-.75-3.99-1.76-5.56-3.09l2.76-1.95,2.62-2.21,2.87-2.88c.99-1.08,2.3-2.54,3.93-4.36,1.85-2.11,3.3-3.67,4.32-4.72l3.38-2.85c2.68-2.06,5.49-3.09,8.39-3.09,1.22,0,2.41.24,3.62.75l.53-.63c-2.53-1.74-5.44-3.13-8.71-4.15-3.28-1.02-6.47-1.54-9.6-1.54-4.09.02-7.78.8-11.14,2.34-3.34,1.53-5.95,3.65-7.8,6.35-1.88,2.69-2.8,5.68-2.8,8.94.02,3.92,1.32,7.12,3.95,9.6-1.5,1.04-3.23,1.94-5.2,2.66-1.98.7-3.66,1.09-5.09,1.09-2,.02-3.02-.5-3.02-1.49l.07-.69c.16-.71.24-1.1.24-1.2l-.51-1.19-1.15-.52-1.3.6-.51,1.51c0,.31.05.61.13.89-3.94,1.96-7.87,2.98-11.76,2.98-2.52.02-4.86-.34-6.99-1.06-2.14-.71-3.99-1.73-5.55-3.09l2.75-1.94,2.64-2.22,2.85-2.88c.98-1.07,2.3-2.53,3.92-4.36,1.86-2.12,3.31-3.68,4.33-4.7l3.37-2.88c2.69-2.03,5.49-3.06,8.38-3.06,1.23-.03,2.43.24,3.63.74l.52-.65c-2.53-1.74-5.43-3.11-8.71-4.14-3.28-1-6.47-1.53-9.61-1.53-4.06.01-7.78.8-11.11,2.33-3.35,1.53-5.96,3.66-7.82,6.34-1.88,2.7-2.79,5.69-2.79,8.97,0,3.9,1.32,7.09,3.95,9.59-1.49,1.06-3.22,1.93-5.19,2.65-1.98.72-3.68,1.09-5.1,1.09-2.01,0-3-.49-3-1.49l.05-.7c.16-.7.26-1.09.26-1.18l-.5-1.21-1.18-.52-1.3.62-.51,1.5c0,.31.04.6.13.88-3.95,1.97-7.85,2.99-11.76,2.99-2.53,0-4.87-.33-7-1.05-2.13-.73-3.97-1.74-5.55-3.09l2.76-1.95,2.62-2.23,2.86-2.87c.99-1.09,2.29-2.54,3.92-4.37,1.86-2.11,3.31-3.68,4.34-4.71l3.37-2.86c2.7-2.07,5.49-3.1,8.4-3.1,1.2,0,2.41.25,3.6.78l.54-.65c-2.53-1.73-5.45-3.12-8.72-4.14-3.27-1.04-6.45-1.54-9.61-1.54-4.06.01-7.78.78-11.11,2.33-3.36,1.53-5.96,3.65-7.82,6.34-1.86,2.68-2.8,5.68-2.78,8.96,0,3.91,1.31,7.09,3.93,9.6-1.47,1.03-3.22,1.91-5.19,2.63-1.97.74-3.67,1.11-5.1,1.11-1.99,0-3-.49-3-1.5l.05-.69c.18-.71.25-1.09.25-1.19l-.49-1.22-1.16-.5-1.31.62-.5,1.49c0,.3.04.6.13.88-3.95,1.97-7.87,3-11.76,3-2.53,0-4.86-.35-7-1.08-2.13-.7-3.99-1.74-5.56-3.07l2.76-1.97,2.62-2.21,2.86-2.89c.99-1.06,2.3-2.5,3.92-4.35,1.86-2.1,3.3-3.67,4.31-4.69l3.39-2.87c2.68-2.06,5.47-3.09,8.39-3.09,1.22,0,2.41.25,3.61.77l.54-.65c-2.54-1.74-5.45-3.12-8.72-4.15-3.28-1.02-6.47-1.53-9.61-1.53-4.08,0-7.79.79-11.12,2.32-3.34,1.56-5.96,3.67-7.82,6.36-1.87,2.69-2.79,5.67-2.79,8.94.02,3.92,1.32,7.12,3.95,9.6-1.49,1.05-3.22,1.93-5.19,2.66-1.98.73-3.67,1.1-5.1,1.1-2,0-3.01-.5-3.01-1.5l.07-.69c.17-.71.23-1.1.23-1.18l-.5-1.21-1.17-.5-1.29.6-.52,1.49c0,.31.04.6.12.88-3.94,1.97-7.87,2.99-11.76,3-2.53,0-4.86-.35-7-1.07-2.13-.71-3.98-1.75-5.54-3.07l2.75-1.95,2.62-2.22,2.88-2.88c.97-1.08,2.29-2.53,3.92-4.36,1.86-2.12,3.29-3.7,4.32-4.71l3.38-2.88c2.69-2.05,5.49-3.07,8.38-3.07,1.22,0,2.43.25,3.63.76l.52-.64c-2.53-1.74-5.43-3.12-8.72-4.14-3.26-1.03-6.46-1.56-9.61-1.53-4.08,0-7.77.77-11.12,2.31-3.32,1.54-5.93,3.65-7.81,6.36-1.87,2.69-2.78,5.66-2.78,8.95,0,3.89,1.34,7.11,3.94,9.58-1.48,1.04-3.22,1.91-5.19,2.66-1.96.74-3.66,1.09-5.08,1.09-2.01,0-3-.51-3-1.49l.05-.71c.16-.71.25-1.08.25-1.17l-.5-1.23-1.17-.49-1.31.6-.51,1.5c0,.19.04.37.08.54-3.87,1.89-7.71,2.88-11.54,2.9-2.17,0-4.17-.31-6.05-.83l1.02-.22,8.17-3.88,7.18-5.71c3.24-3.25,5.78-6.74,7.57-10.44.78-1.62,1.39-3.25,1.87-4.88l.12-.14s-.04-.02-.06-.04c.59-2.07.97-4.15,1.09-6.23,7.75-2.24,13.94-5.62,18.57-10.21,2.47-2.47,4-5.04,4.57-7.61.58-2.62.13-4.66-1.37-6.2l-2.54-1.23-2.39.88-.77,2.08.85,2.12c.13.13.71.53,1.79,1.21l.96.77c1.24,1.24.61,3.15-1.91,5.63-1.77,1.77-4.37,3.41-7.72,5-3.35,1.55-6.65,2.6-9.81,3.15.18-6.37-2.18-11.99-7.05-16.93-4.07-4.07-8.98-6.65-14.67-7.68-5.71-1.06-11.61-.43-17.7,1.83-6.1,2.25-11.71,5.91-16.83,10.98-3.91,3.91-7.24,8.55-10.08,13.92-2.77,5.26-4.62,10.53-5.65,15.79-5.27,1.04-10.53,2.89-15.79,5.66-5.38,2.83-10.02,6.16-13.93,10.08-5.07,5.11-8.73,10.73-10.98,16.82-2.27,6.11-2.89,12-1.82,17.7,1.02,5.69,3.61,10.59,7.68,14.66,4.92,4.89,10.53,7.25,16.92,7.06-.56,3.15-1.61,6.45-3.16,9.81-1.6,3.36-3.24,5.96-5.01,7.73-2.47,2.51-4.38,3.14-5.62,1.9l-.78-.95c-.67-1.09-1.07-1.68-1.2-1.8l-2.12-.86-2.09.79-.88,2.38,1.23,2.55c1.53,1.49,3.57,1.95,6.2,1.36,2.56-.57,5.13-2.1,7.6-4.57,4.59-4.63,7.97-10.82,10.2-18.57,1.63-.09,3.25-.36,4.86-.73.15.23.26.49.41.72l.64-.55c-.06-.13-.07-.25-.12-.38,1.85-.5,3.69-1.18,5.51-2.07,3.7-1.78,7.19-4.31,10.44-7.56l5.72-7.19,3.35-7.06c.34,1.56.57,3.19.57,4.94,0,3.83-1,7.66-2.9,11.54-.18-.03-.35-.08-.54-.08l-1.5.51-.6,1.31.49,1.17,1.23.5c.09,0,.46-.09,1.17-.24l.71-.05c.98,0,1.5.99,1.49,3,0,1.42-.36,3.12-1.09,5.08-.75,1.98-1.62,3.71-2.66,5.19-2.48-2.61-5.69-3.94-9.58-3.94-3.3,0-6.27.91-8.96,2.78-2.7,1.88-4.82,4.49-6.36,7.82-1.54,3.35-2.31,7.04-2.31,11.12-.02,3.15.5,6.35,1.53,9.61,1.02,3.3,2.4,6.2,4.14,8.73l.64-.51c-.51-1.2-.76-2.42-.76-3.63,0-2.89,1.02-5.69,3.07-8.38l2.88-3.39c1.01-1.03,2.59-2.46,4.71-4.32,1.82-1.62,3.27-2.95,4.36-3.92l2.88-2.88,2.22-2.62,1.95-2.75c1.32,1.57,2.36,3.41,3.08,5.54.72,2.14,1.07,4.47,1.07,7,0,3.89-1.03,7.82-3,11.76-.28-.08-.57-.12-.88-.12l-1.49.51-.6,1.3.5,1.17,1.21.5c.09,0,.47-.07,1.18-.24l.69-.07c1,0,1.5,1.01,1.5,3.01,0,1.43-.38,3.12-1.1,5.09-.73,1.98-1.61,3.71-2.66,5.19-2.48-2.62-5.68-3.92-9.6-3.94-3.27,0-6.25.92-8.94,2.79-2.68,1.86-4.8,4.47-6.36,7.82-1.53,3.33-2.32,7.05-2.32,11.13,0,2.14.26,4.3.73,6.5-.48,2.2-.73,4.36-.73,6.5,0,4.08.79,7.79,2.32,11.13,1.56,3.34,3.67,5.95,6.36,7.81,2.69,1.87,5.67,2.79,8.94,2.79,3.92-.02,7.12-1.32,9.6-3.95,1.05,1.49,1.93,3.22,2.66,5.19.72,1.98,1.1,3.67,1.1,5.1,0,2-.5,3.01-1.5,3.01l-.69-.07c-.71-.17-1.1-.24-1.18-.24l-1.21.5-.5,1.17.6,1.29,1.49.51c.31,0,.6-.04.88-.12,1.97,3.94,2.99,7.87,3,11.75,0,2.53-.35,4.86-1.07,7.01-.71,2.13-1.76,3.97-3.08,5.54l-1.95-2.75-2.22-2.62-2.88-2.88c-1.09-.97-2.54-2.29-4.36-3.92-2.12-1.85-3.7-3.29-4.71-4.31l-2.88-3.39c-2.05-2.69-3.07-5.49-3.07-8.38,0-1.22.25-2.43.76-3.63l-.64-.52c-1.74,2.53-3.12,5.43-4.14,8.72-1.03,3.26-1.56,6.47-1.53,9.61,0,4.08.77,7.77,2.31,11.12,1.54,3.32,3.65,5.93,6.36,7.82,2.69,1.87,5.66,2.78,8.96,2.78,3.89,0,7.1-1.34,9.58-3.94,1.04,1.48,1.91,3.21,2.66,5.19.74,1.96,1.09,3.66,1.09,5.08,0,2.01-.51,3-1.49,3l-.71-.05c-.71-.16-1.08-.25-1.17-.25l-1.23.5-.49,1.16.6,1.31,1.5.5c.19,0,.36-.05.54-.08,1.89,3.88,2.89,7.72,2.9,11.54,0,1.75-.23,3.37-.57,4.94l-3.35-7.06-5.72-7.19c-3.25-3.25-6.74-5.78-10.44-7.55-1.82-.88-3.66-1.57-5.51-2.07.05-.12.07-.25.12-.37l-.64-.55c-.15.22-.26.49-.41.72-1.61-.38-3.23-.65-4.86-.74-2.23-7.74-5.62-13.94-10.2-18.57-2.48-2.47-5.04-4-7.6-4.57-2.63-.59-4.67-.13-6.2,1.36l-1.23,2.54.88,2.39,2.09.78,2.12-.86c.13-.13.53-.72,1.2-1.81l.78-.95c1.24-1.23,3.15-.61,5.62,1.9,1.77,1.77,3.41,4.37,5.01,7.74,1.55,3.35,2.6,6.64,3.16,9.8-6.39-.19-12,2.18-16.92,7.06-4.07,4.07-6.67,8.96-7.68,14.66-1.07,5.7-.44,11.59,1.82,17.7,2.25,6.1,5.91,11.71,10.98,16.82,3.91,3.91,8.55,7.24,13.93,10.07,5.26,2.77,10.52,4.62,15.79,5.66,1.03,5.26,2.88,10.52,5.65,15.79,2.83,5.37,6.16,10.01,10.08,13.92,5.12,5.08,10.73,8.73,16.83,10.98,6.1,2.26,11.99,2.88,17.7,1.83,5.69-1.02,10.59-3.6,14.67-7.68,4.87-4.93,7.23-10.55,7.05-16.93,3.15.55,6.45,1.6,9.81,3.16,3.35,1.59,5.96,3.23,7.72,5,2.52,2.48,3.15,4.4,1.91,5.63l-.96.77c-1.08.67-1.66,1.08-1.79,1.21l-.85,2.12.77,2.09,2.39.88,2.54-1.23c1.5-1.54,1.95-3.58,1.37-6.2-.58-2.58-2.1-5.14-4.57-7.61-4.63-4.59-10.82-7.97-18.57-10.21-.11-2.08-.49-4.16-1.09-6.23.02-.01.04-.02.06-.04l-.12-.14c-.48-1.64-1.09-3.27-1.87-4.88-1.78-3.7-4.32-7.2-7.57-10.45l-7.18-5.71-8.17-3.88-1.01-.22c1.88-.52,3.88-.83,6.04-.83,3.82.01,7.66,1.01,11.53,2.9-.03.18-.08.35-.08.54l.51,1.5,1.31.6,1.17-.49.5-1.23c0-.09-.09-.45-.25-1.17l-.05-.71c0-.98.99-1.5,3-1.49,1.42,0,3.12.36,5.08,1.09,1.98.75,3.71,1.61,5.19,2.66-2.61,2.48-3.94,5.69-3.94,9.59,0,3.29.91,6.26,2.78,8.95,1.88,2.7,4.49,4.82,7.81,6.36,3.35,1.54,7.04,2.31,11.12,2.31,3.15.03,6.35-.5,9.61-1.53,3.29-1.01,6.19-2.4,8.72-4.14l-.52-.64c-1.2.51-2.41.76-3.63.76-2.89,0-5.69-1.03-8.38-3.08l-3.38-2.88c-1.03-1.01-2.46-2.59-4.32-4.71-1.62-1.82-2.95-3.27-3.92-4.36l-2.88-2.88-2.62-2.21-2.75-1.95c1.57-1.32,3.41-2.36,5.54-3.08,2.14-.72,4.47-1.07,7-1.07,3.89.01,7.81,1.03,11.75,3-.08.28-.12.57-.12.88l.52,1.49,1.29.6,1.17-.5.5-1.21c0-.09-.07-.47-.23-1.18l-.07-.69c0-1,1.01-1.5,3.01-1.5,1.43,0,3.12.38,5.1,1.1,1.98.73,3.7,1.61,5.19,2.66-2.62,2.48-3.93,5.68-3.95,9.6,0,3.27.92,6.25,2.79,8.94,1.86,2.68,4.47,4.8,7.82,6.35,3.33,1.53,7.05,2.32,11.12,2.32,3.14,0,6.32-.51,9.61-1.53,3.27-1.02,6.18-2.41,8.72-4.15l-.54-.65c-1.19.52-2.39.76-3.61.76-2.92,0-5.71-1.02-8.39-3.08l-3.39-2.87c-1.02-1.02-2.46-2.59-4.31-4.69-1.62-1.85-2.93-3.28-3.92-4.35l-2.86-2.89-2.62-2.21-2.76-1.97c1.57-1.34,3.42-2.37,5.56-3.07,2.14-.73,4.47-1.08,7-1.08,3.89,0,7.81,1.04,11.76,3.01-.08.28-.13.57-.13.88l.5,1.49,1.31.62,1.16-.5.49-1.22c0-.1-.08-.48-.25-1.19l-.05-.69c0-1.01,1.01-1.5,3-1.5,1.43,0,3.13.37,5.1,1.11,1.97.72,3.72,1.59,5.19,2.63-2.62,2.51-3.93,5.69-3.93,9.6-.02,3.28.92,6.27,2.78,8.95,1.86,2.69,4.46,4.81,7.82,6.33,3.34,1.55,7.05,2.33,11.11,2.33,3.15,0,6.34-.5,9.61-1.54,3.28-1.02,6.2-2.41,8.72-4.14l-.54-.65c-1.19.53-2.4.78-3.6.78-2.91,0-5.7-1.04-8.4-3.1l-3.37-2.85c-1.03-1.03-2.48-2.6-4.34-4.71-1.62-1.83-2.93-3.28-3.92-4.37l-2.86-2.86-2.62-2.23-2.76-1.95c1.58-1.34,3.41-2.37,5.55-3.09,2.13-.72,4.47-1.06,7-1.06,3.9,0,7.81,1.02,11.76,2.99-.08.28-.13.57-.13.88l.51,1.5,1.3.63,1.18-.52.5-1.21c0-.08-.1-.47-.26-1.17l-.05-.7c0-1,1-1.5,3-1.5,1.42,0,3.12.38,5.1,1.1,1.97.72,3.69,1.59,5.19,2.65-2.62,2.5-3.95,5.69-3.95,9.59,0,3.28.9,6.26,2.79,8.96,1.86,2.68,4.47,4.81,7.82,6.33,3.33,1.54,7.05,2.32,11.11,2.33,3.14,0,6.34-.53,9.61-1.53,3.28-1.03,6.18-2.41,8.71-4.14l-.52-.65c-1.19.51-2.4.77-3.63.75-2.9,0-5.69-1.03-8.38-3.05l-3.37-2.88c-1.02-1.03-2.47-2.59-4.33-4.71-1.62-1.83-2.94-3.29-3.92-4.36l-2.85-2.88-2.64-2.21-2.75-1.95c1.56-1.36,3.42-2.37,5.55-3.09,2.13-.72,4.47-1.07,6.99-1.05,3.89,0,7.82,1.01,11.76,2.97-.08.28-.13.58-.13.89l.51,1.51,1.3.6,1.15-.52.51-1.19c0-.1-.08-.49-.24-1.21l-.07-.69c0-.98,1.02-1.5,3.02-1.48,1.43,0,3.11.38,5.09,1.09,1.97.72,3.7,1.62,5.2,2.66-2.63,2.48-3.93,5.67-3.95,9.6,0,3.25.92,6.25,2.8,8.94,1.85,2.7,4.45,4.82,7.8,6.35,3.36,1.54,7.04,2.32,11.14,2.34,3.13,0,6.33-.52,9.6-1.54,3.27-1.01,6.18-2.41,8.71-4.15l-.53-.63c-1.2.52-2.4.75-3.62.75-2.9,0-5.71-1.03-8.39-3.09l-3.38-2.85c-1.03-1.05-2.47-2.61-4.32-4.72-1.63-1.83-2.94-3.28-3.93-4.36l-2.87-2.89-2.62-2.21-2.76-1.96c1.57-1.34,3.43-2.35,5.56-3.09,2.14-.71,4.47-1.06,7-1.06,3.81.01,7.64,1,11.5,2.88-.03.18-.08.37-.08.56l.51,1.5,1.31.6,1.17-.49.5-1.23c0-.09-.09-.45-.24-1.17l-.05-.71c0-.98,1-1.5,3-1.49,1.42,0,3.12.36,5.08,1.09,1.98.75,3.71,1.61,5.19,2.66-2.61,2.48-3.94,5.69-3.94,9.59,0,3.29.92,6.26,2.78,8.95,1.88,2.7,4.5,4.82,7.82,6.36,3.35,1.54,7.05,2.31,11.12,2.31,3.15.03,6.35-.5,9.61-1.53,3.3-1.01,6.19-2.4,8.72-4.14l-.52-.64c-1.2.51-2.41.76-3.63.76-2.9,0-5.7-1.03-8.39-3.08l-3.38-2.88c-1.03-1.01-2.46-2.59-4.32-4.71-1.62-1.82-2.94-3.27-3.91-4.36l-2.88-2.88-2.62-2.21-2.75-1.95c1.57-1.32,3.42-2.36,5.54-3.08,2.14-.72,4.47-1.07,7-1.07,3.89.01,7.81,1.03,11.75,3-.08.28-.12.57-.12.88l.52,1.49,1.29.6,1.17-.5.5-1.21c0-.09-.07-.47-.23-1.18l-.07-.69c0-1,1-1.5,3-1.5,1.43,0,3.12.38,5.1,1.1,1.97.73,3.7,1.61,5.19,2.66-2.62,2.48-3.93,5.68-3.95,9.6,0,3.27.92,6.25,2.79,8.94,1.86,2.68,4.47,4.8,7.82,6.35,3.33,1.53,7.05,2.32,11.13,2.32,3.14,0,6.33-.51,9.61-1.53,3.27-1.02,6.18-2.41,8.72-4.15l-.54-.65c-1.19.52-2.39.76-3.61.76-2.92,0-5.71-1.02-8.39-3.08l-3.4-2.87c-1.01-1.02-2.45-2.59-4.31-4.69-1.62-1.85-2.93-3.28-3.92-4.35l-2.86-2.89-2.62-2.21-2.77-1.97c1.57-1.34,3.42-2.37,5.56-3.07,2.14-.73,4.47-1.08,7-1.08,3.89,0,7.81,1.04,11.76,3.01-.08.28-.13.57-.13.88l.5,1.49,1.31.62,1.16-.5.49-1.22c0-.1-.07-.48-.25-1.19l-.05-.69c0-1.01,1.01-1.5,3-1.5,1.43,0,3.13.37,5.1,1.11,1.97.72,3.72,1.59,5.19,2.63-2.62,2.51-3.93,5.69-3.93,9.6-.02,3.28.92,6.27,2.78,8.95,1.86,2.69,4.47,4.81,7.82,6.33,3.34,1.55,7.05,2.33,11.12,2.33,1.85,0,3.72-.2,5.61-.55,1.89.36,3.76.55,5.61.55,4.06,0,7.78-.78,11.12-2.33,3.35-1.53,5.96-3.64,7.82-6.33,1.86-2.68,2.8-5.68,2.78-8.95,0-3.91-1.32-7.09-3.93-9.6,1.47-1.04,3.22-1.91,5.19-2.63,1.97-.74,3.67-1.11,5.1-1.11,2,0,3,.49,3,1.5l-.05.69c-.18.71-.26,1.09-.26,1.19l.49,1.22,1.16.5,1.31-.62.5-1.49c0-.3-.04-.59-.13-.88,3.95-1.97,7.87-3.01,11.75-3.01,2.54,0,4.87.35,7.01,1.08,2.13.7,3.99,1.73,5.56,3.07l-2.77,1.97-2.62,2.21-2.87,2.89c-.99,1.07-2.3,2.5-3.92,4.35-1.85,2.1-3.29,3.67-4.3,4.69l-3.4,2.87c-2.68,2.06-5.47,3.08-8.39,3.08-1.22,0-2.41-.24-3.61-.76l-.54.65c2.54,1.74,5.45,3.12,8.72,4.15,3.29,1.02,6.47,1.53,9.6,1.53,4.08,0,7.8-.78,11.13-2.32,3.34-1.56,5.95-3.67,7.81-6.35,1.87-2.69,2.79-5.67,2.79-8.94-.02-3.92-1.32-7.12-3.95-9.6,1.49-1.05,3.22-1.93,5.19-2.66,1.98-.72,3.67-1.1,5.1-1.1,2,0,3.01.5,3.01,1.5l-.07.69c-.17.71-.24,1.09-.24,1.18l.51,1.21,1.16.5,1.29-.6.52-1.49c0-.31-.04-.6-.12-.88,3.94-1.96,7.87-2.99,11.76-3,2.53,0,4.86.35,6.99,1.07,2.13.71,3.97,1.75,5.55,3.08l-2.75,1.95-2.62,2.21-2.88,2.88c-.98,1.09-2.3,2.54-3.92,4.36-1.86,2.12-3.29,3.7-4.32,4.71l-3.39,2.88c-2.69,2.05-5.49,3.08-8.38,3.08-1.22,0-2.43-.25-3.63-.76l-.51.64c2.53,1.74,5.43,3.12,8.73,4.14,3.26,1.03,6.45,1.56,9.61,1.53,4.08,0,7.77-.77,11.12-2.31,3.32-1.54,5.94-3.66,7.82-6.36,1.87-2.69,2.78-5.66,2.78-8.95,0-3.9-1.33-7.11-3.94-9.59,1.48-1.05,3.21-1.91,5.19-2.66,1.96-.74,3.66-1.09,5.08-1.09,2.01,0,3.01.51,3.01,1.49l-.05.71c-.16.71-.25,1.08-.25,1.17l.5,1.23,1.17.49,1.31-.6.51-1.5c0-.2-.05-.38-.08-.56,3.86-1.88,7.69-2.87,11.5-2.88,2.53,0,4.86.35,7,1.06,2.13.74,3.99,1.75,5.56,3.09l-2.76,1.96-2.63,2.21-2.86,2.89c-1,1.08-2.31,2.53-3.93,4.36-1.85,2.11-3.3,3.67-4.33,4.72l-3.37,2.85c-2.69,2.06-5.5,3.09-8.39,3.09-1.22,0-2.41-.23-3.62-.75l-.52.63c2.54,1.74,5.44,3.13,8.71,4.15,3.28,1.02,6.48,1.54,9.6,1.54,4.1-.02,7.79-.8,11.14-2.34,3.34-1.53,5.95-3.65,7.8-6.35,1.89-2.69,2.8-5.69,2.8-8.94-.01-3.93-1.32-7.11-3.95-9.6,1.49-1.04,3.22-1.94,5.2-2.66,1.97-.7,3.65-1.09,5.08-1.09,2-.01,3.02.5,3.02,1.48l-.07.69c-.16.72-.24,1.1-.24,1.21l.5,1.19,1.15.52,1.3-.6.52-1.51c0-.31-.05-.61-.13-.89,3.94-1.96,7.87-2.97,11.77-2.97,2.52-.02,4.85.34,6.98,1.05,2.13.71,3.99,1.73,5.56,3.09l-2.75,1.95-2.64,2.21-2.85,2.88c-.98,1.07-2.3,2.52-3.92,4.36-1.86,2.12-3.31,3.68-4.33,4.71l-3.38,2.88c-2.68,2.03-5.48,3.05-8.38,3.05-1.23.03-2.43-.24-3.63-.75l-.52.65c2.53,1.73,5.43,3.11,8.71,4.14,3.27,1,6.47,1.53,9.6,1.53,4.07-.01,7.78-.79,11.11-2.33,3.35-1.53,5.96-3.65,7.83-6.33,1.88-2.7,2.78-5.69,2.78-8.96,0-3.9-1.32-7.09-3.95-9.59,1.5-1.05,3.22-1.93,5.19-2.65,1.98-.72,3.68-1.1,5.1-1.1,2.01,0,3,.49,3,1.5l-.05.7c-.15.7-.26,1.09-.26,1.17l.51,1.21,1.18.52,1.3-.63.51-1.5c0-.31-.04-.6-.13-.88,3.95-1.97,7.85-2.99,11.76-2.99,2.52,0,4.86.33,6.99,1.06,2.13.72,3.96,1.74,5.55,3.09l-2.77,1.95-2.62,2.23-2.85,2.86c-1,1.09-2.3,2.54-3.92,4.37-1.86,2.11-3.31,3.68-4.34,4.71l-3.37,2.85c-2.7,2.06-5.49,3.1-8.4,3.1-1.19,0-2.41-.26-3.6-.78l-.54.65c2.53,1.73,5.45,3.11,8.72,4.14,3.28,1.03,6.46,1.54,9.61,1.54,4.06,0,7.79-.78,11.12-2.33,3.36-1.53,5.96-3.64,7.82-6.33,1.85-2.68,2.79-5.68,2.78-8.95,0-3.91-1.32-7.09-3.93-9.6,1.47-1.04,3.22-1.91,5.19-2.63,1.97-.74,3.67-1.11,5.1-1.11,2,0,3,.49,3,1.5l-.05.69c-.17.71-.25,1.09-.25,1.19l.5,1.22,1.16.5,1.31-.62.5-1.49c0-.3-.04-.59-.12-.87,3.95-1.97,7.87-3.01,11.76-3.01,2.53,0,4.86.35,7,1.08,2.13.7,3.99,1.73,5.56,3.07l-2.77,1.97-2.62,2.21-2.86,2.89c-1,1.07-2.31,2.5-3.92,4.35-1.86,2.1-3.3,3.67-4.32,4.69l-3.39,2.87c-2.68,2.06-5.47,3.08-8.39,3.08-1.22,0-2.42-.24-3.61-.76l-.53.65c2.54,1.74,5.45,3.12,8.72,4.15,3.29,1.02,6.47,1.53,9.61,1.53,4.07,0,7.79-.78,11.12-2.32,3.35-1.56,5.95-3.67,7.81-6.35,1.87-2.69,2.79-5.67,2.79-8.94-.01-3.92-1.32-7.12-3.94-9.6,1.49-1.05,3.22-1.93,5.19-2.66,1.98-.72,3.67-1.1,5.09-1.1,2,0,3.01.5,3.01,1.5l-.07.69c-.16.71-.23,1.09-.23,1.18l.5,1.21,1.17.5,1.29-.6.52-1.49c0-.3-.04-.6-.13-.88,3.94-1.97,7.86-2.99,11.76-3,2.53,0,4.86.35,7,1.07,2.13.71,3.97,1.75,5.54,3.08l-2.75,1.95-2.62,2.21-2.88,2.88c-.98,1.09-2.3,2.54-3.92,4.36-1.86,2.12-3.29,3.7-4.32,4.71l-3.39,2.88c-2.69,2.05-5.48,3.08-8.38,3.08-1.22,0-2.43-.25-3.64-.76l-.51.64c2.54,1.74,5.43,3.12,8.73,4.14,3.25,1.03,6.46,1.56,9.61,1.53,4.07,0,7.77-.77,11.12-2.31,3.32-1.54,5.93-3.66,7.81-6.36,1.87-2.69,2.78-5.66,2.78-8.95,0-3.9-1.33-7.11-3.94-9.59,1.48-1.05,3.21-1.91,5.19-2.66,1.96-.74,3.66-1.09,5.08-1.09,2.01,0,3,.51,3,1.49l-.05.71c-.16.71-.24,1.08-.24,1.17l.5,1.23,1.16.49,1.31-.6.5-1.5c0-.19-.05-.36-.08-.55,3.88-1.89,7.71-2.89,11.54-2.9,1.75,0,3.38.23,4.94.57l-.32.07-8.16,3.88-7.18,5.71c-3.24,3.24-5.78,6.74-7.56,10.45-1.8,3.72-2.8,7.49-3.01,11.29-7.75,2.23-13.94,5.62-18.57,10.2-2.48,2.47-4,5.04-4.58,7.6-.59,2.62-.13,4.66,1.36,6.2l2.54,1.23,2.39-.88.78-2.09-.86-2.12c-.13-.13-.71-.53-1.79-1.2l-.96-.78c-1.23-1.23-.6-3.15,1.91-5.62,1.77-1.77,4.37-3.41,7.73-5,3.35-1.56,6.65-2.6,9.8-3.16-.18,6.38,2.18,12,7.05,16.93,4.07,4.07,8.98,6.66,14.66,7.68,5.71,1.06,11.61.43,17.71-1.83,6.1-2.26,11.71-5.91,16.82-10.98,3.92-3.92,7.25-8.56,10.07-13.93,2.77-5.26,4.63-10.52,5.65-15.79,5.26-1.04,10.53-2.89,15.79-5.65,5.37-2.83,10.01-6.17,13.92-10.08,5.08-5.11,8.73-10.73,10.98-16.82,2.27-6.1,2.89-12,1.82-17.7-1.01-5.69-3.61-10.59-7.68-14.66ZM858.48,255.1c1.06-1.06,3.01-2.82,5.77-5.27,8.13-7.21,12.33-14.18,12.6-20.93h.48l1.5,4.92c.32,1.79.49,3.79.47,5.99,0,2.76-.33,5.32-.95,7.62-.63,2.29-1.58,4.38-2.81,6.25-1.58,2.29-3.44,4.06-5.64,5.33-2.18,1.27-4.45,1.92-6.78,1.9-2.75,0-5.25-.9-7.49-2.71l2.84-3.1ZM863.14,121.93c2.33-.02,4.6.63,6.78,1.9,2.2,1.27,4.06,3.04,5.64,5.33,1.23,1.87,2.18,3.96,2.81,6.25.62,2.3.95,4.86.95,7.62.01,2.2-.15,4.2-.47,6l-1.5,4.92h-.48c-.27-6.75-4.46-13.72-12.6-20.93-2.76-2.45-4.71-4.21-5.77-5.27l-2.84-3.1c2.24-1.8,4.75-2.71,7.49-2.71ZM52.32,127.75c-1.07,1.07-3.02,2.82-5.78,5.27-8.13,7.21-12.32,14.18-12.59,20.93h-.48l-1.5-4.92c-.33-1.8-.5-3.79-.48-6,0-2.76.33-5.32.94-7.62.63-2.29,1.58-4.38,2.81-6.25,1.58-2.29,3.43-4.06,5.63-5.33,2.18-1.28,4.45-1.92,6.78-1.9,2.75,0,5.25.91,7.5,2.71l-2.84,3.1ZM47.66,260.92c-2.33.03-4.6-.63-6.78-1.9-2.2-1.27-4.05-3.04-5.63-5.33-1.24-1.87-2.18-3.96-2.81-6.25-.62-2.3-.94-4.86-.94-7.62-.02-2.2.14-4.2.48-5.99l1.5-4.92h.48c.27,6.75,4.46,13.72,12.59,20.93,2.76,2.45,4.71,4.21,5.78,5.27l2.84,3.1c-2.25,1.8-4.75,2.71-7.5,2.71ZM877.68,273.1l1.41,4.64-.48,5.75.05,7.17c.01.29.03.64.04.95-.63,2.3-1.56,4.4-2.79,6.27-1.59,2.28-3.47,4.06-5.65,5.33-2.18,1.25-4.44,1.9-6.77,1.88-2.75,0-5.25-.92-7.51-2.71l2.85-3.12c1.07-1.03,3.01-2.81,5.79-5.27,8.11-7.19,12.31-14.17,12.59-20.92l.47.02ZM880.14,271.55l-.62,3.59c-.42-1.15-.85-2.28-1.37-3.33.66-.11,1.33-.21,1.99-.26ZM859.27,282.05c3.16-3.16,6.52-5.64,10.07-7.43,2.26-1.09,4.53-1.88,6.8-2.41,0,.02,0,.04,0,.06,0,2.9-1.03,5.71-3.09,8.38l-2.85,3.39c-1.05,1.02-2.61,2.47-4.72,4.3-1.82,1.63-3.28,2.96-4.36,3.96l-2.89,2.85-2.22,2.62-1.95,2.77c-1.34-1.56-2.34-3.43-3.09-5.56-.07-.21-.09-.44-.15-.66,2.24-4.69,5.01-8.81,8.44-12.27ZM878.44,203.08c-.62,2.32-1.56,4.4-2.8,6.29-1.57,2.28-3.45,4.04-5.64,5.32-2.18,1.25-4.44,1.9-6.78,1.9-2.76-.02-5.25-.93-7.5-2.72l2.84-3.11c1.08-1.04,3-2.81,5.79-5.27,4.66-4.12,7.98-8.17,10.05-12.14.96,1.87,1.47,3.8,1.47,5.78,0,1.22-.24,2.41-.76,3.61l.65.53c1.48-2.16,2.65-4.65,3.61-7.35-.03,2.57-.33,5-.94,7.17ZM875.31,191.42c.97-2.31,1.54-4.59,1.63-6.86h.47l1.49,4.92c.11.61.18,1.28.26,1.94-.08.66-.14,1.33-.26,1.94l-1.49,4.92h-.47c-.09-2.27-.67-4.55-1.63-6.86ZM863.22,166.27c2.33,0,4.59.65,6.78,1.9,2.2,1.29,4.07,3.04,5.64,5.32,1.24,1.89,2.18,3.96,2.8,6.29.6,2.18.9,4.6.94,7.17-.96-2.69-2.13-5.18-3.61-7.35l-.65.54c.52,1.19.76,2.39.76,3.61,0,1.98-.51,3.91-1.46,5.78-2.08-3.98-5.39-8.02-10.05-12.15-2.79-2.46-4.71-4.23-5.79-5.27l-2.84-3.12c2.25-1.79,4.74-2.7,7.5-2.72ZM855.79,173.61l2.2,2.62,2.9,2.86c1.06,1,2.5,2.3,4.34,3.92,2.1,1.85,3.67,3.3,4.69,4.31l2.86,3.4c.18.23.31.47.47.7-.16.24-.29.47-.47.71l-2.86,3.39c-1.02,1.02-2.59,2.46-4.69,4.32-1.84,1.62-3.28,2.93-4.34,3.92l-2.9,2.87-2.2,2.62-1.98,2.76c-1.34-1.57-2.37-3.42-3.07-5.56-.72-2.14-1.08-4.47-1.08-7,0-2.32.39-4.65,1.09-7l2.35,3.64c-.84-1.56-1.47-3.11-2-4.67.53-1.55,1.16-3.1,2-4.67l-2.35,3.64c-.71-2.34-1.09-4.68-1.09-7,0-2.53.36-4.86,1.08-7,.7-2.13,1.73-3.99,3.07-5.56l1.98,2.76ZM869.34,108.23c-3.55-1.79-6.9-4.27-10.07-7.43-3.43-3.46-6.2-7.58-8.44-12.27.06-.21.09-.45.16-.66.75-2.13,1.75-3.99,3.09-5.55l1.95,2.77,2.22,2.61,2.89,2.85c1.07,1,2.54,2.33,4.36,3.95,2.11,1.84,3.67,3.28,4.72,4.31l2.85,3.38c2.06,2.68,3.09,5.49,3.09,8.39,0,.02,0,.04,0,.06-2.27-.53-4.54-1.32-6.8-2.41ZM879.1,105.12l-1.41,4.64-.47.02c-.28-6.75-4.48-13.73-12.59-20.91-2.78-2.46-4.71-4.24-5.79-5.27l-2.85-3.12c2.26-1.8,4.76-2.71,7.51-2.71,2.33-.02,4.59.63,6.77,1.88,2.18,1.27,4.06,3.06,5.65,5.33,1.24,1.87,2.16,3.97,2.79,6.27-.01.32-.03.66-.04.96l-.05,7.16.48,5.76ZM878.15,111.04c.52-1.05.95-2.19,1.37-3.34l.62,3.6c-.67-.05-1.33-.16-1.99-.26ZM875.35,47.53l7.99,4.25c2.65,1.82,5.33,4.12,8.1,6.89,3.45,3.45,6.22,7.02,8.32,10.69,2.09,3.66,3.56,7.46,4.34,11.34.86,4.83.74,9.41-.39,13.72-1.17,4.3-3.18,7.93-6.12,10.82-3.42,3.43-7.68,5.42-12.76,5.99l-.33-7.45c.05-2.63.25-7.27.64-13.82,1.17-19.12-2.32-33.09-10.4-41.87l.61-.56ZM805.54,13.18c2.91-2.91,6.53-4.94,10.83-6.1,4.3-1.12,8.88-1.25,13.71-.4,3.89.8,7.68,2.25,11.34,4.35,3.67,2.09,7.24,4.86,10.7,8.32,2.76,2.76,5.08,5.46,6.88,8.09l4.26,8-.57.6c-8.79-8.08-22.75-11.58-41.86-10.4-6.56.39-11.19.59-13.82.64l-7.45-.33c.57-5.08,2.55-9.35,5.98-12.78ZM811.93,32.17h1.5c2.57.03,4.95.31,7.12.91,2.3.63,4.41,1.56,6.27,2.8,2.28,1.59,4.06,3.47,5.34,5.65,1.25,2.19,1.89,4.45,1.88,6.78,0,2.74-.91,5.24-2.71,7.5l-3.11-2.85c-1.03-1.07-2.81-3.01-5.28-5.78-7.19-8.12-14.16-12.31-20.91-12.59v-.47s4.91-1.49,4.91-1.49c1.5-.28,3.18-.41,4.99-.45ZM805.4,31.68h.18c-2.01.65-3.84,1.48-5.57,2.39-.24-1.13-.43-2.27-.51-3.4l5.9,1.01ZM809.99,51.51c-3.15-3.15-5.63-6.51-7.43-10.06-.92-1.91-1.63-3.81-2.16-5.72.27-.02.54-.08.81-.08,2.89,0,5.7,1.03,8.38,3.09l3.38,2.85c1.02,1.05,2.46,2.61,4.3,4.72,1.63,1.82,2.96,3.28,3.95,4.36l2.85,2.88,2.61,2.21,2.78,1.95c-1.55,1.33-3.41,2.34-5.52,3.08-5.43-2.35-10.09-5.44-13.97-9.28ZM784.05,53.31c-1.07-1.06-2.82-3.01-5.28-5.77-7.2-8.13-14.18-12.32-20.93-12.59v-.48l4.93-1.51c1.79-.33,3.79-.49,5.99-.48,2.76,0,5.32.33,7.62.95,2.29.64,4.38,1.58,6.25,2.82,2.29,1.58,4.06,3.43,5.33,5.64,1.27,2.18,1.92,4.44,1.9,6.78,0,2.75-.91,5.25-2.71,7.5l-3.1-2.85ZM739.7,53.23c-1.05-1.08-2.81-3-5.27-5.79-7.2-8.13-14.15-12.3-20.92-12.59v-.47l4.92-1.49c1.78-.32,3.78-.5,5.99-.49,2.74,0,5.31.32,7.61.96,2.32.62,4.39,1.56,6.29,2.8,2.27,1.56,4.03,3.44,5.32,5.64,1.25,2.18,1.9,4.44,1.9,6.78-.02,2.76-.93,5.25-2.72,7.5l-3.11-2.84ZM695.36,53.12c-1.06-1.06-2.82-2.98-5.29-5.77-7.19-8.11-14.16-12.3-20.91-12.57v-.49l4.91-1.49c1.79-.33,3.79-.48,5.99-.48,2.76,0,5.3.31,7.61.94,2.31.64,4.38,1.58,6.28,2.81,2.27,1.59,4.06,3.46,5.32,5.66,1.29,2.18,1.91,4.43,1.91,6.77,0,2.73-.91,5.25-2.71,7.49l-3.1-2.85ZM651.02,53.04c-1.07-1.08-2.82-3.01-5.29-5.77-7.2-8.14-14.17-12.32-20.93-12.59v-.47l4.92-1.5c1.8-.34,3.79-.52,6-.48,2.76,0,5.3.3,7.62.95,2.3.63,4.39,1.56,6.26,2.79,2.28,1.57,4.06,3.46,5.32,5.64,1.27,2.17,1.91,4.45,1.91,6.79-.01,2.74-.91,5.24-2.71,7.47l-3.1-2.83ZM606.67,52.96c-1.04-1.07-2.81-3.01-5.29-5.78-7.18-8.12-14.16-12.31-20.91-12.59l.02-.47,4.91-1.49c1.78-.33,3.77-.49,5.98-.49,2.76,0,5.32.31,7.61.95,2.3.63,4.4,1.56,6.29,2.8,2.26,1.59,4.04,3.47,5.31,5.65,1.27,2.19,1.91,4.45,1.9,6.78,0,2.74-.91,5.24-2.71,7.5l-3.11-2.85ZM562.53,53.31c-1.06-1.06-2.82-3.01-5.27-5.77-7.21-8.13-14.18-12.32-20.93-12.59v-.48l4.92-1.51c1.79-.33,3.8-.49,5.99-.48,2.76,0,5.32.33,7.63.95,2.29.64,4.38,1.58,6.25,2.82,2.29,1.58,4.06,3.43,5.33,5.64,1.27,2.18,1.92,4.44,1.91,6.78,0,2.75-.91,5.25-2.71,7.5l-3.1-2.85ZM518.18,53.23c-1.05-1.08-2.81-3-5.27-5.79-7.19-8.13-14.15-12.3-20.92-12.59v-.47l4.91-1.49c1.78-.32,3.78-.5,6-.49,2.74,0,5.3.32,7.6.96,2.33.62,4.4,1.56,6.28,2.8,2.28,1.56,4.04,3.44,5.32,5.64,1.25,2.18,1.9,4.44,1.9,6.78-.02,2.76-.93,5.25-2.72,7.5l-3.12-2.84ZM472.44,36.06c2.27,1.59,4.06,3.46,5.32,5.66,1.29,2.18,1.91,4.43,1.91,6.77,0,2.73-.91,5.25-2.71,7.49l-3.11-2.85c-1.06-1.06-2.82-2.98-5.29-5.77-3.82-4.31-7.58-7.48-11.28-9.57,2.17-1.29,4.39-1.96,6.69-1.96,1.2,0,2.41.25,3.6.78l.54-.65c-2.06-1.41-4.46-2.54-7.03-3.48,1.78.13,3.5.36,5.08.79,2.32.64,4.39,1.58,6.28,2.81ZM455.4,60.9c-1.84-.56-3.69-1.3-5.54-2.3l4.19,2.68h0c-1.93.48-3.87.75-5.8.75-2.53,0-4.86-.33-7-1.05-2.13-.73-3.97-1.74-5.55-3.09l2.77-1.95,2.62-2.23,2.86-2.87c.99-1.09,2.29-2.54,3.92-4.37,1.86-2.11,3.31-3.68,4.34-4.71l3.2-2.71,3.2,2.71c1.03,1.03,2.47,2.6,4.34,4.71,1.62,1.83,2.92,3.28,3.92,4.37l2.85,2.87,2.62,2.23,2.77,1.95c-1.58,1.34-3.42,2.36-5.55,3.09-2.14.72-4.48,1.05-6.99,1.05-1.93,0-3.87-.27-5.8-.74h0s4.19-2.68,4.19-2.68c-1.86,1-3.7,1.74-5.54,2.3ZM452.56,32.8c.9-.16,1.84-.29,2.84-.37,1,.08,1.95.2,2.84.37l4.91,1.49v.49c-2.55.1-5.14.77-7.75,1.99-2.62-1.22-5.2-1.89-7.75-1.99v-.49l4.91-1.49ZM431.13,48.49c0-2.34.62-4.59,1.9-6.77,1.26-2.2,3.05-4.07,5.32-5.66,1.9-1.23,3.96-2.17,6.28-2.81,1.58-.43,3.29-.65,5.08-.79-2.57.94-4.96,2.07-7.02,3.48l.54.65c1.19-.53,2.4-.78,3.6-.78,2.3,0,4.52.67,6.69,1.96-3.7,2.1-7.45,5.27-11.28,9.57-2.46,2.79-4.23,4.72-5.29,5.77l-3.11,2.85c-1.8-2.24-2.71-4.76-2.71-7.49ZM386.78,48.57c0-2.33.65-4.6,1.9-6.78,1.28-2.19,3.04-4.07,5.32-5.64,1.89-1.25,3.96-2.18,6.28-2.8,2.3-.64,4.86-.96,7.6-.96,2.22-.01,4.22.16,6,.49l4.91,1.49v.47c-6.76.28-13.72,4.46-20.91,12.59-2.46,2.79-4.23,4.71-5.28,5.79l-3.11,2.84c-1.79-2.25-2.7-4.74-2.72-7.5ZM342.45,48.66c-.02-2.33.63-4.6,1.9-6.78,1.27-2.2,3.04-4.06,5.33-5.64,1.87-1.24,3.96-2.18,6.25-2.82,2.3-.62,4.86-.95,7.62-.95,2.2-.01,4.2.15,6,.48l4.92,1.51v.48c-6.75.27-13.72,4.46-20.93,12.59-2.46,2.76-4.21,4.71-5.27,5.77l-3.11,2.85c-1.8-2.25-2.71-4.75-2.71-7.5ZM298.31,48.31c0-2.33.63-4.59,1.9-6.78,1.27-2.17,3.05-4.06,5.31-5.65,1.88-1.24,3.98-2.17,6.28-2.8,2.3-.64,4.85-.95,7.62-.95,2.21,0,4.2.15,5.98.49l4.91,1.49.02.47c-6.75.28-13.74,4.48-20.92,12.59-2.48,2.78-4.25,4.71-5.29,5.78l-3.11,2.85c-1.79-2.26-2.7-4.76-2.7-7.5ZM253.96,48.4c0-2.33.63-4.62,1.91-6.79,1.27-2.18,3.04-4.07,5.32-5.64,1.87-1.23,3.96-2.16,6.27-2.79,2.32-.65,4.85-.95,7.62-.95,2.21-.03,4.2.15,6,.48l4.92,1.5v.47c-6.76.27-13.73,4.45-20.93,12.59-2.47,2.77-4.23,4.69-5.28,5.77l-3.1,2.83c-1.81-2.24-2.71-4.74-2.72-7.47ZM209.62,48.49c0-2.34.62-4.59,1.9-6.77,1.26-2.2,3.04-4.07,5.32-5.66,1.89-1.23,3.96-2.17,6.28-2.81,2.31-.63,4.85-.93,7.61-.94,2.2,0,4.21.16,6,.48l4.91,1.49v.49c-6.75.26-13.72,4.46-20.92,12.57-2.47,2.79-4.23,4.72-5.29,5.77l-3.11,2.85c-1.8-2.24-2.71-4.76-2.71-7.49ZM165.27,48.57c0-2.33.65-4.6,1.9-6.78,1.28-2.19,3.04-4.07,5.32-5.64,1.89-1.25,3.96-2.18,6.29-2.8,2.3-.64,4.86-.96,7.6-.96,2.22-.01,4.22.16,6,.49l4.91,1.49v.47c-6.76.28-13.72,4.46-20.91,12.59-2.46,2.79-4.22,4.71-5.27,5.79l-3.11,2.84c-1.79-2.25-2.7-4.74-2.72-7.5ZM120.94,48.66c-.02-2.33.63-4.6,1.91-6.78,1.27-2.2,3.03-4.06,5.33-5.64,1.87-1.24,3.96-2.18,6.25-2.82,2.3-.62,4.86-.95,7.62-.95,2.2-.01,4.2.15,6,.48l4.92,1.51v.48c-6.75.27-13.72,4.46-20.93,12.59-2.46,2.76-4.21,4.71-5.27,5.77l-3.1,2.85c-1.8-2.25-2.71-4.75-2.71-7.5ZM100.4,51.11c-3.94,3.91-8.67,7.04-14.21,9.4-1.83-.72-3.49-1.61-4.87-2.79l2.78-1.95,2.61-2.21,2.85-2.88c1-1.08,2.32-2.54,3.95-4.36,1.84-2.11,3.28-3.67,4.3-4.72l3.39-2.85c2.68-2.06,5.49-3.09,8.39-3.09.11,0,.21.03.31.03-.52,1.79-1.21,3.58-2.07,5.37-1.79,3.55-4.27,6.91-7.42,10.06ZM97.86,32.13c2.22,0,4.21.15,6,.49l4.9,1.49.02.47c-6.75.28-13.73,4.48-20.92,12.59-2.46,2.78-4.24,4.71-5.27,5.78l-3.12,2.85c-1.8-2.26-2.71-4.76-2.71-7.5-.02-2.33.63-4.59,1.88-6.78,1.27-2.17,3.06-4.06,5.33-5.65,1.87-1.24,3.97-2.17,6.28-2.8,2.3-.64,4.84-.95,7.6-.95ZM110.34,33.82c-1.66-.85-3.41-1.61-5.32-2.2-.33-.1-.65-.18-.98-.27l.96-.08,5.89-1.01c-.09,1.19-.29,2.37-.55,3.56ZM51.38,27.04c1.8-2.63,4.12-5.33,6.88-8.09,3.46-3.46,7.03-6.24,10.7-8.32,3.67-2.1,7.46-3.56,11.35-4.35,4.82-.85,9.4-.72,13.71.4,4.3,1.16,7.92,3.18,10.84,6.1,3.42,3.43,5.41,7.69,5.98,12.77l-7.45.33c-2.64-.05-7.27-.25-13.82-.64-19.11-1.17-33.08,2.31-41.87,10.4l-.57-.61,4.26-8ZM25.55,110.82c-5.08-.57-9.34-2.56-12.77-5.99-2.93-2.9-4.95-6.52-6.11-10.82-1.12-4.31-1.25-8.89-.39-13.72.79-3.88,2.25-7.68,4.35-11.34,2.09-3.67,4.87-7.24,8.32-10.69,2.77-2.77,5.45-5.07,8.1-6.89l7.99-4.26.6.57c-8.07,8.78-11.56,22.75-10.4,41.87.39,6.56.59,11.19.64,13.82l-.33,7.45ZM33.12,109.76l-1.49-4.9c-.09-.5-.14-1.06-.21-1.59l.36-4.31-.04-5.9c.12-.6.2-1.23.36-1.81.63-2.3,1.56-4.41,2.8-6.28,1.59-2.28,3.47-4.06,5.65-5.33,2.18-1.25,4.45-1.9,6.78-1.88,2.74,0,5.24.91,7.5,2.71l-2.85,3.12c-1.07,1.03-3.01,2.81-5.79,5.27-8.11,7.19-12.31,14.17-12.59,20.91l-.47-.02ZM30.25,110.89l.7-4.03c.44,1.3.9,2.57,1.46,3.75-.72.12-1.44.23-2.16.28ZM51.11,100.39c-3.16,3.16-6.52,5.64-10.07,7.43-2.12,1.02-4.23,1.77-6.35,2.31.1-2.74,1.1-5.4,3.05-7.93l2.85-3.38c1.05-1.02,2.61-2.47,4.72-4.31,1.82-1.63,3.28-2.96,4.36-3.95l2.88-2.85,2.22-2.61,1.95-2.77c1.31,1.52,2.29,3.34,3.04,5.41-2.27,4.86-5.11,9.1-8.64,12.66ZM32.36,179.77c.62-2.32,1.56-4.4,2.8-6.29,1.57-2.28,3.45-4.03,5.64-5.32,2.18-1.25,4.44-1.9,6.78-1.9,2.76.02,5.25.93,7.49,2.72l-2.84,3.12c-1.08,1.05-3,2.81-5.79,5.27-4.66,4.13-7.98,8.17-10.05,12.15-.95-1.87-1.47-3.8-1.47-5.78,0-1.22.24-2.41.76-3.61l-.65-.54c-1.48,2.16-2.65,4.65-3.61,7.35.03-2.58.33-5,.94-7.17ZM35.49,191.42c-.97,2.31-1.54,4.6-1.63,6.86h-.47l-1.49-4.92c-.11-.61-.18-1.28-.25-1.94.08-.66.14-1.33.25-1.94l1.49-4.92h.47c.1,2.26.67,4.55,1.63,6.86ZM47.58,216.59c-2.34,0-4.6-.65-6.78-1.9-2.19-1.28-4.07-3.04-5.64-5.32-1.24-1.89-2.18-3.96-2.8-6.29-.6-2.18-.9-4.6-.94-7.17.96,2.7,2.13,5.19,3.61,7.35l.65-.53c-.52-1.19-.76-2.39-.76-3.61,0-1.98.51-3.91,1.47-5.78,2.07,3.98,5.39,8.02,10.05,12.15,2.79,2.46,4.71,4.23,5.79,5.27l2.84,3.11c-2.24,1.8-4.73,2.7-7.49,2.72ZM55.01,209.25l-2.21-2.62-2.89-2.87c-1.06-.99-2.5-2.3-4.35-3.92-2.1-1.86-3.67-3.3-4.69-4.32l-2.86-3.39c-.18-.23-.31-.47-.47-.71.16-.23.29-.47.47-.7l2.86-3.4c1.02-1.01,2.59-2.46,4.69-4.31,1.85-1.62,3.28-2.93,4.35-3.92l2.89-2.86,2.21-2.62,1.97-2.76c1.33,1.57,2.37,3.42,3.07,5.56.73,2.14,1.08,4.47,1.08,7,0,2.32-.39,4.65-1.09,7l-2.35-3.64c.84,1.56,1.47,3.12,2.01,4.67-.53,1.55-1.17,3.1-2.01,4.67l2.35-3.64c.71,2.34,1.09,4.67,1.09,6.99,0,2.53-.35,4.86-1.08,7-.7,2.14-1.73,3.99-3.07,5.56l-1.97-2.76ZM41.04,275.03c3.55,1.8,6.91,4.28,10.07,7.44,3.53,3.55,6.37,7.8,8.64,12.66-.74,2.07-1.72,3.89-3.03,5.42l-1.95-2.77-2.22-2.62-2.88-2.85c-1.07-1-2.53-2.32-4.36-3.96-2.11-1.83-3.67-3.28-4.72-4.3l-2.85-3.39c-1.95-2.54-2.95-5.19-3.05-7.93,2.12.53,4.24,1.29,6.35,2.31ZM31.42,279.59c.07-.53.11-1.09.21-1.59l1.49-4.9.47-.02c.28,6.74,4.48,13.73,12.59,20.92,2.78,2.46,4.72,4.24,5.79,5.27l2.85,3.12c-2.26,1.8-4.76,2.71-7.5,2.71-2.33.01-4.59-.63-6.78-1.88-2.17-1.27-4.05-3.06-5.65-5.33-1.24-1.87-2.17-3.97-2.8-6.28-.16-.57-.24-1.2-.36-1.81l.04-5.89-.36-4.32ZM32.41,272.24c-.56,1.18-1.02,2.45-1.46,3.75l-.7-4.03c.72.05,1.44.16,2.16.28ZM35.03,335.74l-7.99-4.26c-2.65-1.82-5.34-4.12-8.1-6.89-3.45-3.45-6.23-7.02-8.32-10.69-2.1-3.67-3.56-7.46-4.35-11.34-.86-4.83-.73-9.41.39-13.72,1.17-4.3,3.18-7.93,6.11-10.82,3.42-3.43,7.69-5.42,12.77-5.99l.33,7.45c-.05,2.63-.25,7.27-.64,13.82-1.16,19.13,2.32,33.09,10.4,41.87l-.6.56ZM104.85,370.08c-2.92,2.91-6.54,4.94-10.84,6.1-4.31,1.12-8.89,1.25-13.71.4-3.89-.8-7.68-2.25-11.35-4.35-3.67-2.09-7.24-4.87-10.7-8.33-2.76-2.76-5.07-5.46-6.88-8.1l-4.26-8,.57-.6c8.78,8.09,22.76,11.58,41.87,10.4,6.55-.39,11.19-.59,13.82-.64l7.45.33c-.57,5.08-2.55,9.35-5.98,12.78ZM97.86,350.72c-2.76,0-5.3-.31-7.6-.95-2.31-.63-4.41-1.56-6.28-2.79-2.28-1.6-4.06-3.47-5.33-5.65-1.25-2.18-1.9-4.45-1.88-6.78,0-2.74.91-5.24,2.71-7.5l3.12,2.84c1.03,1.08,2.81,3.01,5.27,5.79,7.19,8.12,14.17,12.31,20.92,12.59l-.02.47-4.9,1.49c-1.79.34-3.78.49-6,.49ZM110.88,352.59l-5.89-1.01-.97-.08c.33-.09.66-.17.99-.27,1.91-.59,3.66-1.35,5.32-2.2.26,1.18.46,2.37.55,3.56ZM100.4,331.75c3.15,3.15,5.63,6.51,7.42,10.06.86,1.79,1.56,3.58,2.07,5.37-.1,0-.2.03-.31.03-2.9,0-5.71-1.03-8.39-3.09l-3.39-2.85c-1.02-1.05-2.47-2.61-4.3-4.72-1.63-1.83-2.96-3.28-3.95-4.36l-2.85-2.89-2.61-2.21-2.78-1.96c1.39-1.19,3.04-2.08,4.88-2.79,5.54,2.36,10.27,5.5,14.21,9.4ZM126.75,329.54c1.06,1.06,2.81,3.01,5.27,5.77,7.21,8.13,14.18,12.32,20.93,12.6v.47l-4.92,1.5c-1.8.34-3.8.49-6,.48-2.76,0-5.32-.32-7.62-.94-2.29-.64-4.38-1.58-6.25-2.81-2.29-1.58-4.06-3.43-5.33-5.64-1.28-2.18-1.93-4.44-1.91-6.78,0-2.75.91-5.25,2.71-7.5l3.1,2.85ZM171.1,329.63c1.05,1.08,2.81,3,5.27,5.79,7.19,8.13,14.15,12.31,20.91,12.59v.47l-4.91,1.5c-1.78.32-3.78.5-6,.49-2.74,0-5.3-.32-7.6-.96-2.32-.62-4.4-1.56-6.29-2.8-2.28-1.57-4.04-3.45-5.32-5.64-1.25-2.18-1.9-4.44-1.9-6.78.02-2.76.93-5.25,2.72-7.49l3.11,2.84ZM215.44,329.73c1.06,1.06,2.82,2.99,5.29,5.78,7.2,8.1,14.16,12.3,20.92,12.56v.49l-4.91,1.5c-1.79.33-3.8.48-6,.48-2.77,0-5.3-.3-7.61-.94-2.32-.64-4.39-1.58-6.28-2.81-2.27-1.59-4.06-3.46-5.32-5.65-1.28-2.18-1.9-4.43-1.9-6.77,0-2.74.91-5.25,2.71-7.49l3.11,2.85ZM259.78,329.81c1.06,1.07,2.82,3,5.28,5.77,7.2,8.14,14.17,12.32,20.93,12.58v.47l-4.92,1.49c-1.8.34-3.79.52-6,.49-2.77,0-5.3-.3-7.62-.95-2.31-.63-4.39-1.57-6.27-2.79-2.28-1.58-4.05-3.46-5.32-5.65-1.28-2.16-1.91-4.45-1.91-6.78,0-2.74.91-5.24,2.72-7.48l3.1,2.84ZM304.13,329.89c1.04,1.08,2.81,3.01,5.29,5.79,7.18,8.12,14.17,12.31,20.92,12.59l-.02.47-4.91,1.49c-1.78.34-3.77.49-5.98.49-2.76,0-5.32-.31-7.62-.95-2.3-.63-4.4-1.56-6.28-2.79-2.26-1.6-4.04-3.47-5.31-5.65-1.27-2.18-1.9-4.45-1.9-6.78,0-2.74.91-5.24,2.7-7.5l3.11,2.84ZM348.27,329.54c1.06,1.06,2.82,3.01,5.27,5.77,7.2,8.13,14.18,12.32,20.93,12.6v.47l-4.92,1.5c-1.8.34-3.8.49-6,.48-2.76,0-5.32-.32-7.62-.94-2.29-.64-4.38-1.58-6.25-2.81-2.29-1.58-4.06-3.43-5.33-5.64-1.28-2.18-1.93-4.44-1.9-6.78,0-2.75.91-5.25,2.71-7.5l3.11,2.85ZM392.61,329.63c1.05,1.08,2.81,3,5.28,5.79,7.19,8.13,14.15,12.31,20.91,12.59v.47l-4.91,1.5c-1.78.32-3.78.5-6,.49-2.74,0-5.3-.32-7.6-.96-2.32-.62-4.4-1.56-6.28-2.8-2.28-1.57-4.04-3.45-5.32-5.64-1.25-2.18-1.9-4.44-1.9-6.78.02-2.76.93-5.25,2.72-7.49l3.11,2.84ZM438.35,346.79c-2.27-1.59-4.06-3.46-5.32-5.65-1.28-2.18-1.9-4.43-1.9-6.77,0-2.74.91-5.25,2.71-7.49l3.11,2.85c1.06,1.06,2.82,2.99,5.29,5.78,3.82,4.31,7.58,7.48,11.28,9.57-2.17,1.29-4.39,1.96-6.69,1.96-1.2,0-2.41-.26-3.6-.78l-.54.65c2.06,1.41,4.45,2.53,7.02,3.48-1.78-.14-3.5-.36-5.07-.79-2.32-.64-4.38-1.58-6.28-2.81ZM455.4,321.95c1.84.56,3.69,1.3,5.54,2.3l-4.19-2.69h0c1.94-.48,3.87-.75,5.8-.75,2.52,0,4.86.33,6.99,1.06,2.13.72,3.97,1.74,5.55,3.09l-2.77,1.95-2.62,2.23-2.85,2.86c-1,1.09-2.29,2.54-3.92,4.37-1.87,2.11-3.31,3.68-4.34,4.71l-3.2,2.71-3.2-2.71c-1.03-1.03-2.48-2.6-4.34-4.71-1.63-1.83-2.93-3.28-3.92-4.37l-2.86-2.86-2.62-2.23-2.77-1.95c1.58-1.34,3.41-2.37,5.55-3.09,2.13-.72,4.47-1.06,7-1.06,1.93,0,3.86.27,5.8.75h0l-4.19,2.69c1.86-1,3.7-1.74,5.54-2.3ZM458.24,350.06c-.89.16-1.84.28-2.84.36-1-.08-1.95-.2-2.84-.36l-4.91-1.5v-.49c2.55-.1,5.14-.77,7.75-1.99,2.62,1.22,5.2,1.89,7.75,1.99v.49l-4.91,1.5ZM479.67,334.37c0,2.34-.62,4.59-1.91,6.77-1.26,2.2-3.04,4.07-5.32,5.65-1.89,1.23-3.96,2.17-6.28,2.81-1.57.43-3.29.65-5.07.79,2.56-.94,4.96-2.06,7.02-3.48l-.54-.65c-1.19.53-2.4.78-3.6.78-2.3,0-4.52-.67-6.69-1.96,3.7-2.1,7.45-5.26,11.28-9.57,2.47-2.79,4.23-4.71,5.29-5.78l3.11-2.85c1.8,2.24,2.71,4.75,2.71,7.49ZM524.02,334.28c0,2.34-.65,4.6-1.9,6.78-1.28,2.19-3.04,4.07-5.32,5.64-1.89,1.24-3.96,2.18-6.28,2.8-2.3.64-4.86.96-7.6.96-2.22.01-4.22-.16-6-.49l-4.91-1.5v-.47c6.76-.28,13.72-4.46,20.92-12.59,2.46-2.79,4.22-4.71,5.27-5.79l3.12-2.84c1.79,2.25,2.7,4.73,2.72,7.49ZM568.35,334.19c.02,2.33-.63,4.6-1.91,6.78-1.27,2.2-3.04,4.06-5.33,5.64-1.87,1.23-3.96,2.18-6.25,2.81-2.3.62-4.86.94-7.63.94-2.2.02-4.2-.14-5.99-.48l-4.92-1.5v-.47c6.76-.28,13.72-4.47,20.93-12.6,2.45-2.76,4.21-4.71,5.27-5.77l3.1-2.85c1.8,2.25,2.71,4.75,2.71,7.5ZM612.48,334.55c0,2.33-.63,4.59-1.9,6.78-1.27,2.18-3.05,4.05-5.31,5.65-1.89,1.24-3.99,2.16-6.29,2.79-2.29.64-4.85.95-7.61.95-2.21,0-4.2-.15-5.98-.49l-4.91-1.49-.02-.47c6.75-.28,13.73-4.47,20.91-12.59,2.48-2.78,4.25-4.71,5.29-5.79l3.11-2.84c1.8,2.26,2.71,4.76,2.71,7.5ZM656.83,334.45c0,2.33-.63,4.62-1.91,6.78-1.26,2.19-3.04,4.07-5.32,5.65-1.87,1.22-3.96,2.15-6.26,2.79-2.32.65-4.86.95-7.62.95-2.21.03-4.2-.15-6-.49l-4.92-1.49v-.47c6.76-.26,13.73-4.45,20.93-12.58,2.46-2.76,4.22-4.69,5.29-5.77l3.1-2.84c1.81,2.24,2.7,4.74,2.71,7.48ZM701.18,334.37c0,2.34-.62,4.59-1.91,6.77-1.26,2.2-3.04,4.07-5.32,5.65-1.89,1.23-3.96,2.17-6.28,2.81-2.31.63-4.85.93-7.61.94-2.2,0-4.2-.15-5.99-.48l-4.91-1.5v-.49c6.75-.26,13.72-4.46,20.91-12.56,2.47-2.79,4.23-4.71,5.29-5.78l3.1-2.85c1.8,2.24,2.71,4.75,2.71,7.49ZM745.53,334.28c0,2.34-.65,4.6-1.9,6.78-1.29,2.19-3.05,4.07-5.32,5.64-1.9,1.24-3.97,2.18-6.29,2.8-2.3.64-4.86.96-7.61.96-2.22.01-4.22-.16-5.99-.49l-4.92-1.5v-.47c6.77-.28,13.72-4.46,20.92-12.59,2.46-2.79,4.22-4.71,5.27-5.79l3.11-2.84c1.79,2.25,2.7,4.73,2.72,7.49ZM789.86,334.19c.02,2.33-.63,4.6-1.9,6.78-1.27,2.2-3.04,4.06-5.33,5.64-1.87,1.23-3.96,2.18-6.25,2.81-2.3.62-4.86.94-7.62.94-2.2.02-4.2-.14-5.99-.48l-4.93-1.5v-.47c6.76-.28,13.73-4.47,20.93-12.6,2.45-2.76,4.21-4.71,5.28-5.77l3.1-2.85c1.8,2.25,2.71,4.75,2.71,7.5ZM809.99,331.34c3.88-3.85,8.53-6.93,13.96-9.28,2.12.74,3.97,1.74,5.53,3.08l-2.78,1.96-2.61,2.21-2.85,2.89c-.99,1.08-2.32,2.53-3.95,4.36-1.84,2.11-3.29,3.67-4.3,4.72l-3.38,2.85c-2.68,2.06-5.49,3.09-8.38,3.09-.27,0-.54-.06-.81-.08.52-1.91,1.24-3.82,2.16-5.73,1.8-3.54,4.28-6.91,7.43-10.06ZM813.42,350.69h-1.48c-1.81-.05-3.5-.18-5-.46l-4.9-1.49v-.47c6.74-.28,13.71-4.47,20.9-12.59,2.47-2.78,4.24-4.71,5.28-5.79l3.11-2.84c1.8,2.26,2.71,4.76,2.71,7.5.01,2.33-.63,4.59-1.88,6.78-1.28,2.18-3.06,4.05-5.34,5.65-1.87,1.24-3.97,2.16-6.27,2.79-2.17.6-4.56.88-7.13.92ZM800.01,348.78c1.74.92,3.57,1.74,5.59,2.38l-.2.02-5.9,1.01c.08-1.14.27-2.27.51-3.41ZM859.01,355.4c-1.8,2.64-4.12,5.33-6.88,8.1-3.46,3.46-7.03,6.24-10.7,8.32-3.67,2.1-7.45,3.55-11.34,4.35-4.83.85-9.41.72-13.71-.4-4.3-1.16-7.92-3.19-10.83-6.1-3.43-3.43-5.41-7.69-5.98-12.78l7.45-.33c2.63.05,7.26.24,13.82.64,19.11,1.17,33.08-2.31,41.86-10.4l.57.61-4.26,7.99ZM866.96,338.01l.08,1.08-1.08-.09c-.84,2.12-2.04,3.92-3.56,5.44-3.63,3.63-8.43,5.85-14.35,6.63l-7.79.67c-2.58-.03-6.35-.18-11.28-.52-1.41-.08-2.7-.15-3.93-.21.49-.19.99-.36,1.46-.58,3.35-1.53,5.96-3.65,7.81-6.35,1.87-2.69,2.79-5.69,2.79-8.94-.01-3.93-1.31-7.11-3.94-9.6,1.49-1.04,3.22-1.94,5.19-2.66,1.98-.7,3.68-1.09,5.09-1.09,2-.01,3.01.5,3.01,1.48l-.07.69c-.17.72-.25,1.1-.25,1.21l.51,1.19,1.15.52,1.3-.6.53-1.51c-.02-1.21-.65-2.22-1.94-3.03-1.26-.8-2.89-1.21-4.87-1.21-3.69.02-7.52,1.15-11.52,3.34-1.33-1.19-2.93-2.11-4.68-2.84,1.16-.43,2.28-.9,3.51-1.26l-4.27.92c-.1-.04-.18-.09-.27-.12-2.2-.77-4.61-1.15-7.21-1.15l-5.17.59-4.81,1.71-3.06,1.98c-.21-.89-.81-1.65-1.82-2.3-1.27-.8-2.9-1.21-4.9-1.19-3.66,0-7.5,1.11-11.49,3.32-1.61-1.44-3.53-2.55-5.72-3.32-2.21-.77-4.62-1.14-7.2-1.14l-5.16.59-4.82,1.71-3.31,2.14c-.26-.77-.84-1.44-1.73-2.01-1.28-.81-2.91-1.22-4.89-1.21-3.68,0-7.53,1.11-11.5,3.33-1.61-1.43-3.51-2.54-5.73-3.33-2.21-.75-4.63-1.15-7.21-1.12l-5.14.57-4.84,1.71-3.32,2.15c-.26-.77-.83-1.46-1.73-2.03-1.28-.79-2.9-1.2-4.9-1.2-3.66.03-7.5,1.14-11.49,3.34-1.61-1.44-3.51-2.56-5.73-3.31-2.21-.78-4.6-1.15-7.19-1.15l-5.15.61-4.83,1.71-3.3,2.12c-.27-.77-.84-1.44-1.74-2.02-1.27-.8-2.92-1.22-4.9-1.2-3.68,0-7.51,1.12-11.49,3.32-1.61-1.44-3.53-2.54-5.73-3.31-2.2-.78-4.62-1.15-7.2-1.15l-5.15.59-4.83,1.72-3.31,2.13c-.27-.77-.83-1.44-1.74-2.01-1.26-.8-2.9-1.21-4.88-1.21-3.69.02-7.53,1.15-11.52,3.34-1.59-1.43-3.52-2.54-5.72-3.31-2.19-.77-4.61-1.15-7.19-1.15l-5.16.59-4.82,1.71-3.03,1.96c-.22-.88-.82-1.64-1.82-2.27-1.27-.8-2.89-1.21-4.9-1.19-3.67,0-7.5,1.11-11.49,3.32-1.61-1.44-3.53-2.55-5.73-3.32-2.21-.77-4.62-1.14-7.2-1.14l-5.16.59-4.82,1.71-3.31,2.14c-.26-.77-.83-1.44-1.73-2.01-1.28-.81-2.92-1.22-4.89-1.21-3.68,0-7.53,1.11-11.5,3.33-1.62-1.43-3.52-2.54-5.73-3.33-2.21-.75-4.63-1.15-7.21-1.12l-5.14.57-4.85,1.71-3.31,2.15c-.27-.77-.83-1.46-1.73-2.03-1.28-.79-2.9-1.2-4.9-1.2-3.67.03-7.51,1.14-11.5,3.34-1.61-1.44-3.51-2.56-5.73-3.31-2.21-.78-4.6-1.15-7.2-1.15l-5.15.61-3.47,1.23-3.46-1.23-5.15-.61c-2.6,0-4.99.37-7.2,1.15-2.21.75-4.12,1.87-5.73,3.31-3.99-2.2-7.83-3.31-11.49-3.34-1.99,0-3.62.41-4.9,1.2-.9.57-1.47,1.26-1.73,2.03l-3.31-2.15-4.84-1.71-5.14-.57c-2.58-.03-5,.37-7.21,1.12-2.21.78-4.12,1.89-5.73,3.33-3.97-2.22-7.81-3.33-11.5-3.33-1.98,0-3.61.4-4.89,1.21-.9.56-1.47,1.24-1.73,2.01l-3.31-2.14-4.83-1.71-5.15-.59c-2.59,0-4.99.37-7.2,1.14-2.19.77-4.12,1.88-5.72,3.32-3.98-2.21-7.83-3.32-11.49-3.32-2-.02-3.63.39-4.9,1.19-.99.64-1.59,1.39-1.82,2.27l-3.02-1.95-4.82-1.71-5.16-.59c-2.58,0-5,.38-7.19,1.15-2.2.76-4.13,1.88-5.72,3.31-3.99-2.2-7.83-3.32-11.52-3.34-1.97,0-3.61.42-4.87,1.21-.91.57-1.48,1.25-1.74,2.02l-3.31-2.13-4.83-1.72-5.15-.59c-2.58,0-5,.38-7.2,1.15-2.19.77-4.12,1.87-5.72,3.31-3.98-2.2-7.81-3.32-11.49-3.32-1.98-.02-3.63.4-4.9,1.2-.9.57-1.47,1.25-1.74,2.02l-3.31-2.12-4.82-1.71-5.15-.61c-2.6,0-4.99.37-7.2,1.15-2.22.75-4.12,1.87-5.73,3.31-3.99-2.2-7.83-3.31-11.49-3.34-2,0-3.62.41-4.9,1.2-.9.57-1.46,1.26-1.73,2.03l-3.31-2.14-4.85-1.71-5.14-.57c-2.58-.03-5,.37-7.21,1.12-2.21.78-4.12,1.89-5.73,3.33-3.97-2.22-7.81-3.33-11.5-3.33-1.98,0-3.61.4-4.89,1.21-.9.56-1.47,1.24-1.73,2.01l-3.31-2.14-4.82-1.71-5.15-.59c-2.59,0-4.99.37-7.21,1.14-2.19.77-4.11,1.88-5.72,3.32-3.99-2.21-7.83-3.32-11.49-3.32-2-.02-3.62.39-4.9,1.19-1,.64-1.6,1.41-1.82,2.3l-3.06-1.98-4.81-1.71-5.17-.59c-2.6,0-5.01.38-7.2,1.15-.36.12-.67.32-1.02.46l-3.94-.84c1.13.34,2.17.77,3.24,1.16-1.47.69-2.84,1.49-4,2.53-3.99-2.2-7.83-3.32-11.51-3.34-1.98,0-3.62.42-4.88,1.21-1.28.81-1.91,1.81-1.93,3.03l.52,1.51,1.31.6,1.15-.52.51-1.19c0-.1-.08-.49-.25-1.21l-.06-.69c0-.98,1.02-1.5,3.01-1.48,1.41,0,3.11.38,5.09,1.09,1.97.72,3.71,1.62,5.19,2.66-2.63,2.48-3.93,5.67-3.95,9.6,0,3.25.92,6.25,2.79,8.94,1.85,2.7,4.46,4.82,7.81,6.35.76.35,1.55.65,2.35.92-1.58.08-3.31.17-5.22.27-4.93.35-8.7.49-11.28.53l-7.79-.67c-5.92-.78-10.72-3.01-14.34-6.63-1.53-1.53-2.72-3.31-3.57-5.44l-1.07.09.08-1.09c-2.13-.84-3.91-2.03-5.44-3.57-3.63-3.63-5.84-8.43-6.62-14.35l-.67-7.78c.03-2.59.18-6.35.52-11.29.08-1.38.15-2.65.21-3.86,1.53,3.35,3.64,5.95,6.34,7.8,2.69,1.87,5.69,2.79,8.94,2.79,3.92-.01,7.12-1.31,9.59-3.94,1.04,1.48,1.94,3.22,2.66,5.19.7,1.98,1.09,3.68,1.09,5.09.01,2-.5,3.02-1.49,3.02l-.69-.07c-.71-.17-1.1-.25-1.2-.25l-1.19.51-.52,1.15.61,1.31,1.5.52c1.21-.02,2.21-.65,3.03-1.93.8-1.26,1.21-2.9,1.21-4.88-.02-3.68-1.14-7.52-3.34-11.52,1.22-1.36,2.15-3,2.89-4.8.66,1.62,1.29,3.28,1.82,5.05l-1.34-6.2c.72-2.13,1.09-4.46,1.09-6.96l-.59-5.17-1.71-4.81-1.98-3.06c.89-.21,1.65-.81,2.3-1.82.8-1.27,1.21-2.9,1.19-4.9,0-3.66-1.12-7.5-3.32-11.49,1.44-1.61,2.54-3.54,3.32-5.72.77-2.21,1.14-4.62,1.14-7.2l-.59-5.15-1.71-4.83-2.14-3.31c.77-.26,1.45-.83,2.01-1.73.81-1.28,1.22-2.91,1.21-4.89,0-3.68-1.11-7.53-3.33-11.5,1.43-1.61,2.55-3.51,3.33-5.72.75-2.21,1.15-4.63,1.12-7.21l-.57-5.14-1.54-4.36,1.54-4.37.57-5.14c.03-2.58-.37-5-1.12-7.2-.78-2.21-1.89-4.12-3.33-5.73,2.21-3.97,3.33-7.82,3.33-11.5,0-1.98-.4-3.61-1.21-4.89-.57-.9-1.24-1.47-2.01-1.73l2.14-3.31,1.71-4.82.59-5.15c0-2.58-.37-4.99-1.14-7.2-.78-2.19-1.89-4.11-3.32-5.73,2.21-3.98,3.32-7.82,3.32-11.49.02-2.01-.39-3.63-1.19-4.9-.64-1.01-1.41-1.61-2.3-1.82l1.98-3.06,1.71-4.81.59-5.16c0-2.51-.38-4.84-1.09-6.97l1.34-6.2c-.53,1.76-1.16,3.42-1.82,5.05-.74-1.8-1.67-3.43-2.89-4.8,2.2-3.99,3.33-7.83,3.34-11.51,0-1.98-.41-3.62-1.21-4.87-.82-1.29-1.81-1.92-3.03-1.93l-1.5.53-.61,1.3.52,1.15,1.19.5c.1,0,.49-.08,1.2-.24l.69-.07c.98,0,1.5,1.02,1.49,3.01,0,1.42-.39,3.11-1.09,5.1-.72,1.96-1.62,3.7-2.66,5.18-2.48-2.63-5.68-3.93-9.59-3.94-3.26,0-6.25.92-8.94,2.79-2.7,1.85-4.81,4.45-6.34,7.79-.06-1.21-.13-2.48-.21-3.86-.34-4.93-.49-8.69-.52-11.28l.67-7.78c.78-5.92,3-10.72,6.62-14.34,1.53-1.53,3.31-2.72,5.44-3.57l-.08-1.08,1.07.09c.84-2.13,2.04-3.92,3.57-5.45,3.62-3.62,8.43-5.85,14.34-6.62l7.79-.68c2.58.04,6.35.19,11.28.53,1.91.11,3.63.2,5.22.27-.8.27-1.58.57-2.34.92-3.35,1.53-5.96,3.65-7.81,6.35-1.88,2.69-2.79,5.68-2.79,8.94.01,3.92,1.32,7.12,3.95,9.6-1.48,1.04-3.22,1.94-5.19,2.66-1.98.7-3.68,1.09-5.09,1.09-1.99.02-3.01-.5-3.01-1.49l.06-.69c.17-.71.25-1.1.25-1.2l-.51-1.19-1.15-.52-1.31.6-.52,1.51c.02,1.21.65,2.22,1.93,3.03,1.26.8,2.9,1.22,4.88,1.22,3.68-.02,7.52-1.14,11.51-3.35,1.16,1.04,2.53,1.84,4,2.53-1.07.39-2.11.82-3.24,1.16l3.94-.84c.35.14.66.34,1.02.46,2.19.76,4.6,1.15,7.2,1.15l5.17-.59,4.81-1.71,3.06-1.98c.22.89.82,1.65,1.82,2.3,1.28.8,2.9,1.21,4.9,1.19,3.66,0,7.5-1.11,11.49-3.32,1.61,1.44,3.53,2.55,5.72,3.32,2.21.77,4.62,1.14,7.21,1.14l5.15-.59,4.82-1.71,3.31-2.14c.27.77.83,1.44,1.73,2.01,1.28.81,2.91,1.22,4.89,1.21,3.68,0,7.53-1.11,11.5-3.32,1.61,1.43,3.51,2.54,5.73,3.32,2.21.75,4.62,1.15,7.21,1.12l5.14-.57,4.85-1.71,3.32-2.14c.27.77.83,1.46,1.73,2.03,1.28.79,2.9,1.2,4.9,1.2,3.66-.03,7.5-1.14,11.49-3.33,1.61,1.43,3.51,2.55,5.73,3.31,2.21.78,4.6,1.15,7.2,1.15l5.15-.61,4.82-1.71,3.31-2.12c.27.77.84,1.44,1.74,2.02,1.27.8,2.92,1.21,4.9,1.2,3.68,0,7.51-1.12,11.49-3.32,1.61,1.44,3.53,2.54,5.72,3.31,2.2.78,4.62,1.15,7.2,1.15l5.15-.59,4.83-1.72,3.31-2.13c.27.77.83,1.44,1.74,2.01,1.27.8,2.9,1.22,4.87,1.22,3.69-.02,7.53-1.14,11.52-3.35,1.59,1.44,3.52,2.55,5.72,3.32,2.2.76,4.61,1.15,7.19,1.15l5.16-.59,4.82-1.71,3.02-1.95c.22.87.82,1.63,1.82,2.27,1.28.8,2.9,1.21,4.9,1.19,3.66,0,7.5-1.11,11.49-3.32,1.61,1.44,3.53,2.55,5.72,3.32,2.21.77,4.62,1.14,7.2,1.14l5.15-.59,4.83-1.71,3.31-2.14c.27.77.84,1.44,1.73,2.01,1.28.81,2.91,1.22,4.89,1.21,3.69,0,7.53-1.11,11.5-3.32,1.61,1.43,3.51,2.54,5.73,3.32,2.21.75,4.63,1.15,7.21,1.12l5.14-.57,4.84-1.71,3.32-2.14c.27.77.83,1.46,1.73,2.03,1.28.79,2.9,1.2,4.9,1.2,3.66-.03,7.5-1.14,11.49-3.33,1.61,1.43,3.51,2.55,5.73,3.31,2.21.78,4.6,1.15,7.2,1.15l5.15-.61,3.46-1.23,3.47,1.23,5.15.61c2.6,0,4.98-.37,7.2-1.15,2.21-.76,4.12-1.88,5.73-3.31,3.99,2.2,7.83,3.31,11.5,3.33,1.99,0,3.62-.41,4.9-1.2.9-.57,1.46-1.26,1.73-2.03l3.31,2.14,4.85,1.71,5.14.57c2.58.03,5-.37,7.21-1.12,2.21-.78,4.11-1.89,5.73-3.32,3.96,2.21,7.81,3.32,11.5,3.32,1.98,0,3.61-.4,4.89-1.21.9-.56,1.47-1.24,1.73-2.01l3.31,2.14,4.82,1.71,5.16.59c2.58,0,4.99-.37,7.2-1.14,2.19-.77,4.11-1.88,5.73-3.32,3.99,2.21,7.82,3.32,11.49,3.32,2,.02,3.63-.39,4.9-1.19,1-.64,1.6-1.4,1.82-2.27l3.03,1.95,4.82,1.71,5.16.59c2.58,0,5-.38,7.19-1.15,2.21-.77,4.13-1.88,5.72-3.32,3.99,2.2,7.82,3.33,11.52,3.35,1.98,0,3.61-.42,4.88-1.22.91-.57,1.48-1.24,1.74-2.01l3.31,2.13,4.83,1.72,5.15.59c2.58,0,5-.37,7.2-1.15,2.19-.77,4.12-1.87,5.73-3.31,3.98,2.21,7.8,3.32,11.49,3.32,1.98.02,3.63-.4,4.9-1.2.9-.58,1.47-1.25,1.74-2.02l3.31,2.12,4.83,1.71,5.15.61c2.59,0,4.99-.37,7.19-1.15,2.22-.76,4.12-1.88,5.73-3.31,3.99,2.2,7.83,3.31,11.49,3.33,2,0,3.62-.41,4.9-1.2.9-.57,1.46-1.26,1.73-2.03l3.32,2.14,4.84,1.71,5.14.57c2.58.03,5-.37,7.21-1.12,2.21-.78,4.12-1.89,5.73-3.32,3.97,2.21,7.82,3.32,11.5,3.32,1.98,0,3.61-.4,4.89-1.21.9-.56,1.47-1.24,1.73-2.01l3.31,2.14,4.82,1.71,5.16.59c2.58,0,4.99-.37,7.2-1.14,2.19-.77,4.11-1.88,5.72-3.32,3.99,2.21,7.82,3.32,11.49,3.32,2,.02,3.63-.39,4.9-1.19,1.01-.65,1.61-1.41,1.82-2.29l3.06,1.97,4.81,1.71,5.17.59c2.6,0,5.01-.38,7.21-1.15.1-.03.18-.09.27-.12l4.27.91c-1.23-.37-2.35-.83-3.51-1.26,1.75-.73,3.35-1.65,4.68-2.84,4,2.2,7.83,3.33,11.52,3.35,1.98,0,3.61-.42,4.87-1.22,1.28-.81,1.92-1.81,1.94-3.03l-.53-1.51-1.3-.6-1.15.52-.51,1.19c0,.1.08.49.25,1.2l.07.69c0,.99-1.02,1.51-3.01,1.49-1.42,0-3.12-.39-5.09-1.09-1.96-.72-3.7-1.62-5.19-2.66,2.63-2.48,3.93-5.68,3.94-9.6,0-3.26-.92-6.25-2.79-8.94-1.85-2.71-4.46-4.82-7.81-6.35-.47-.22-.98-.39-1.46-.58,1.23-.06,2.52-.13,3.93-.21,4.93-.34,8.69-.49,11.28-.53l7.79.67c5.92.78,10.73,3,14.35,6.63,1.53,1.53,2.72,3.32,3.56,5.44l1.08-.09-.08,1.08c2.13.84,3.91,2.03,5.44,3.57,3.63,3.62,5.85,8.42,6.63,14.34l.66,7.79c-.03,2.59-.18,6.35-.52,11.28-.05.98-.1,1.9-.15,2.79-1.5-3.01-3.48-5.41-5.99-7.13-2.68-1.87-5.68-2.79-8.94-2.79-3.92.01-7.11,1.31-9.59,3.94-1.04-1.48-1.94-3.22-2.67-5.18-.7-1.98-1.09-3.68-1.09-5.1-.01-1.99.5-3.01,1.49-3.01l.69.07c.7.17,1.1.24,1.19.24l1.19-.5.53-1.15-.61-1.3-1.51-.53c-1.21.01-2.21.65-3.03,1.93-.8,1.26-1.21,2.9-1.21,4.87,0,3.69,1.13,7.52,3.34,11.51-1.38,1.54-2.44,3.38-3.2,5.48-.7-1.7-1.36-3.46-1.92-5.32l1.48,6.87c-.5,1.84-.82,3.79-.82,5.9l.59,5.16,1.71,4.81,1.98,3.06c-.89.21-1.65.81-2.3,1.82-.8,1.27-1.21,2.89-1.19,4.9,0,3.66,1.11,7.5,3.32,11.49-1.43,1.61-2.54,3.54-3.32,5.73-.78,2.21-1.14,4.62-1.14,7.2l.59,5.15,1.71,4.82,2.14,3.31c-.77.26-1.44.83-2,1.73-.81,1.28-1.22,2.92-1.22,4.89,0,3.68,1.11,7.53,3.32,11.5-1.43,1.61-2.54,3.51-3.32,5.73-.75,2.21-1.15,4.63-1.12,7.2l.57,5.14,1.54,4.37-1.54,4.36-.57,5.14c-.03,2.58.37,5,1.12,7.21.78,2.21,1.89,4.11,3.32,5.72-2.21,3.97-3.32,7.82-3.32,11.5,0,1.98.4,3.61,1.22,4.89.56.9,1.23,1.47,2.01,1.73l-2.15,3.31-1.71,4.83-.59,5.15c0,2.58.36,4.99,1.14,7.2.78,2.19,1.89,4.11,3.32,5.72-2.21,3.99-3.32,7.82-3.32,11.49-.02,2,.39,3.63,1.19,4.9.65,1,1.41,1.6,2.3,1.82l-1.98,3.06-1.71,4.81-.59,5.17c0,2.1.32,4.05.82,5.89l-1.48,6.87c.56-1.86,1.21-3.62,1.92-5.32.76,2.1,1.83,3.94,3.2,5.48-2.21,3.99-3.33,7.83-3.34,11.52,0,1.98.41,3.62,1.21,4.88.82,1.28,1.82,1.91,3.03,1.93l1.51-.52.61-1.31-.53-1.15-1.19-.51c-.1,0-.49.08-1.19.25l-.69.07c-.99,0-1.5-1.02-1.49-3.02,0-1.42.38-3.11,1.09-5.09.73-1.97,1.63-3.7,2.67-5.19,2.48,2.63,5.67,3.93,9.59,3.94,3.27,0,6.26-.92,8.94-2.79,2.51-1.71,4.49-4.12,5.99-7.13.05.89.1,1.81.15,2.79.34,4.93.49,8.69.52,11.29l-.66,7.78c-.78,5.91-3,10.71-6.63,14.34-1.53,1.53-3.31,2.72-5.44,3.57ZM904.11,302.15c-.78,3.88-2.25,7.68-4.34,11.34-2.1,3.67-4.86,7.24-8.32,10.69-2.77,2.77-5.45,5.07-8.1,6.89l-7.99,4.26-.61-.57c8.08-8.79,11.57-22.75,10.4-41.87-.39-6.56-.59-11.19-.64-13.83l.33-7.44c5.08.57,9.34,2.56,12.76,5.99,2.93,2.89,4.95,6.52,6.12,10.82,1.13,4.3,1.25,8.89.39,13.72Z" />
  </g>
</svg>