<svg viewBox="0 55 595 532" fill="none" stroke-width="3" stroke-linecap="round" stroke-miterlimit="10"
    preserveAspectRatio="none" xmlns="http://www.w3.org/2000/svg">


    <path
        d="M63.4 256.4C62.6 256.4 62.2 255.8 62.2 254.6C62.2 253.8 62.6 253.267 63.4 253C73.2667 249.8 84.1333 241.467 96 228C106.8 215.6 116.467 201.2 125 184.8L121.6 185C120.4 185.133 119.267 185.333 118.2 185.6C113.267 196.4 105.867 207.067 96 217.6C94.5333 219.2 91.6667 222 87.4 226L70.2 241.8C69.8 242.2 69.5333 242.133 69.4 241.6C69.2667 241.067 69.4 240.6 69.8 240.2C75.4 235 80 230.6 83.6 227C87.2 223.4 89.9333 220.6 91.8 218.6C101.533 207.8 108.933 197 114 186.2C101.867 188.333 90.2667 192.067 79.2 197.4C67.6 203.133 59.4667 209.333 54.8 216C54.8 216.133 54.7333 216.2 54.6 216.2C53.9333 216.2 53.4667 215.067 53.2 212.8C53.2 212.4 53.1333 212 53 211.6C53 211.2 53 210.867 53 210.6C53 209.267 53.2 208.4 53.6 208C58 201.2 66.5333 195.267 79.2 190.2C90.6667 185.8 102.933 183 116 181.8C120.267 171 122.4 160.333 122.4 149.8C122.4 133.933 116.133 122.933 103.6 116.8C98 118 92.2667 120 86.4 122.8C80.5333 125.6 75.0667 128.933 70 132.8C64.9333 136.667 60.6667 140.933 57.2 145.6C60.4 147.867 64.6667 150.133 70 152.4C76.4 155.067 84.0667 157 93 158.2C95.1333 154.733 97.0667 150.933 98.8 146.8C100.533 142.533 102.133 138.067 103.6 133.4C103.867 132.733 104.2 132.4 104.6 132.4C105.933 132.4 106.267 133.333 105.6 135.2C103.2 143.867 100.2 151.667 96.6 158.6C100.333 158.867 103.867 159 107.2 159C107.733 159 108 159.267 108 159.8C108 160.333 107.733 160.6 107.2 160.6C103.333 160.6 99.5333 160.467 95.8 160.2C86.0667 178.333 74.4 187.4 60.8 187.4C55.0667 187.4 50.3333 185.6 46.6 182C42.8667 178.267 41 173.4 41 167.4C41 160.067 43.8667 152.467 49.6 144.6L50.4 143.6C46.5333 140 44.6 136.267 44.6 132.4C44.6 126.533 48.6 121.467 56.6 117.2C64.7333 112.933 73.8667 110.8 84 110.8C90.6667 110.8 96.8 111.8 102.4 113.8C106.133 113.267 109.733 113 113.2 113C123.467 113 131.533 115.267 137.4 119.8C144.067 124.867 147.4 131.933 147.4 141C147.4 151.4 143.133 164.867 134.6 181.4C139.4 181.8 143.467 182.467 146.8 183.4C147.333 183.533 147.6 183.8 147.6 184.2C147.6 186.067 146.6 186.667 144.6 186C141.4 185.067 137.467 184.6 132.8 184.6C123.867 201 113.067 216.067 100.4 229.8C86.9333 244.067 74.9333 252.867 64.4 256.2C64.1333 256.333 63.8 256.4 63.4 256.4ZM52.2 141.2C63.1333 127.733 78.4 118.867 98 114.6C93.6 113.267 88.8 112.6 83.6 112.6C74.5333 112.6 66.3333 114.533 59 118.4C51.8 122.267 48.2 126.867 48.2 132.2C48.2 135.133 49.5333 138.133 52.2 141.2ZM120 181.4C121.067 181.267 122.2 181.2 123.4 181.2H126.8C135.6 163.467 140 149.267 140 138.6C140 123.267 131.667 115.6 115 115.6C112.467 115.6 109.933 115.8 107.4 116.2C119.667 122.867 125.8 134.2 125.8 150.2C125.8 161 123.867 171.4 120 181.4ZM61.4 182.8C72.4667 182.8 82.6667 175.133 92 159.8C82.1333 158.733 74.2 156.933 68.2 154.4C63.1333 152.267 58.9333 150.067 55.6 147.8C50.2667 155.133 47.6 162.067 47.6 168.6C47.6 173 48.8667 176.467 51.4 179C53.9333 181.533 57.2667 182.8 61.4 182.8ZM147.636 227.4C146.303 227.4 145.703 226.733 145.836 225.4C146.236 223.667 146.703 221.067 147.236 217.6C147.769 214 148.369 209.4 149.036 203.8C149.303 201.267 149.569 199 149.836 197C150.103 194.867 150.303 192.933 150.436 191.2L151.036 183.8C151.169 182.333 152.036 181.067 153.636 180C155.369 178.933 157.103 178.4 158.836 178.4C161.236 178.4 162.103 179.4 161.436 181.4L158.636 191.8C157.969 193.667 157.369 195.6 156.836 197.6C156.303 199.6 155.703 201.667 155.036 203.8C158.369 198.067 162.369 192.667 167.036 187.6C172.236 182.267 176.103 179.6 178.636 179.6C181.836 179.6 184.103 181.4 185.436 185C186.903 188.467 186.969 190.2 185.636 190.2C185.369 190.2 184.903 189.667 184.236 188.6C183.036 186.2 181.369 185 179.236 185C173.903 185 167.303 190.933 159.436 202.8C155.036 209.467 151.703 217.133 149.436 225.8C149.169 226.867 148.569 227.4 147.636 227.4ZM192.844 229.4C189.51 229.4 186.777 227.867 184.644 224.8C182.51 221.733 181.444 217.8 181.444 213C181.444 209.133 182.11 205.2 183.444 201.2C188.377 186.267 194.444 178.467 201.644 177.8C202.444 176.867 203.577 176.4 205.044 176.4C207.71 176.4 210.31 177.6 212.844 180C215.51 182.4 216.977 184.933 217.244 187.6C218.977 189.733 221.51 190.8 224.844 190.8C225.91 190.8 227.51 190.667 229.644 190.4C231.777 190.133 233.377 190 234.444 190C234.977 190 235.11 190.333 234.844 191C234.71 191.533 234.044 192.133 232.844 192.8C230.444 194 227.444 194.733 223.844 195H221.444C219.177 195 217.51 194.733 216.444 194.2C217.11 199.267 214.71 206.533 209.244 216C204.31 224.933 198.844 229.4 192.844 229.4ZM194.044 225.4C197.51 225.4 201.244 222.267 205.244 216C206.31 214.267 207.31 212.333 208.244 210.2C209.31 208.067 210.177 205.667 210.844 203C212.177 198.467 212.71 195.2 212.444 193.2C207.51 192.4 204.644 189.533 203.844 184.6C200.244 185.667 196.777 190.267 193.444 198.4C190.377 206 188.844 212.133 188.844 216.8C188.844 222.533 190.577 225.4 194.044 225.4ZM264.314 232.2C257.381 232.2 253.914 227.733 253.914 218.8C253.914 214 254.914 208 256.914 200.8L260.114 189.4L246.114 205.4C242.781 209.267 240.181 212.467 238.314 215C236.447 217.533 235.314 219.333 234.914 220.4C233.314 224.667 230.847 226.8 227.514 226.8C226.314 226.8 225.914 226.2 226.314 225L229.514 212.6C230.581 208.733 231.314 205.2 231.714 202C232.114 198.667 232.314 195.733 232.314 193.2C232.314 192.133 232.247 191.2 232.114 190.4C231.981 189.6 231.914 188.8 231.914 188C231.914 186.267 232.781 184.667 234.514 183.2C236.247 181.733 237.981 181 239.714 181C241.714 181 242.514 182.133 242.114 184.4C241.714 186.667 241.247 189 240.714 191.4C240.314 193.667 239.914 195.933 239.514 198.2L236.314 212.8C244.314 205.467 252.781 194.8 261.714 180.8C262.247 179.867 263.514 179.4 265.514 179.4C268.714 179.4 270.381 180.067 270.514 181.4C270.781 182.6 270.247 185 268.914 188.6C266.914 194.467 265.514 199.067 264.714 202.4C262.714 210.8 261.714 217.467 261.714 222.4C261.714 227.2 262.781 229.6 264.914 229.6C267.314 229.6 270.047 228.267 273.114 225.6C275.914 223.2 277.247 222 277.114 222C277.514 222 277.581 222.533 277.314 223.6C277.181 224.667 276.514 225.8 275.314 227C271.847 230.467 268.181 232.2 264.314 232.2ZM288.5 228C286.767 228 285.3 227.8 284.1 227.4C282.9 227.133 281.967 226.8 281.3 226.4C279.7 225.2 278.9 222.933 278.9 219.6C278.9 218.533 278.967 217.333 279.1 216C279.367 214.667 279.633 213.133 279.9 211.4C280.433 208.2 282.167 202.467 285.1 194.2C285.767 192.467 286.3 190.933 286.7 189.6C287.233 188.267 287.633 187.133 287.9 186.2L288.9 183.6C285.967 183.6 281.033 184.2 274.1 185.4H273.9C273.367 185.4 273.1 184.733 273.1 183.4C273.1 181.8 273.7 180.8 274.9 180.4C275.833 180 280.967 179.467 290.3 178.8C291.367 175.333 292.633 171.333 294.1 166.8C295.7 162.133 297.5 157 299.5 151.4C299.633 150.6 300.167 150.2 301.1 150.2C302.167 150.2 303.367 151.133 304.7 153C306.033 154.733 306.7 156.4 306.7 158C306.7 158.533 306.633 158.933 306.5 159.2L296.7 178.8C298.433 178.667 299.967 178.6 301.3 178.6C302.767 178.6 304.167 178.6 305.5 178.6C313.1 178.6 316.967 179.2 317.1 180.4C317.1 180.933 313.9 181.467 307.5 182C305.767 182.133 304.233 182.267 302.9 182.4C301.567 182.4 300.367 182.533 299.3 182.8L295.5 183.4C294.033 183.4 291.967 188.933 289.3 200C286.9 209.867 285.7 215.733 285.7 217.6C285.7 221.6 287.167 223.6 290.1 223.6C292.367 223.6 296.833 221.8 303.5 218.2C304.3 217.667 305.3 217 306.5 216.2C307.7 215.267 309.167 214.133 310.9 212.8C313.567 210.533 315.233 209.4 315.9 209.4C316.167 209.4 316.367 209.667 316.5 210.2C316.5 212.067 313.033 215.4 306.1 220.2C298.9 225.4 293.033 228 288.5 228ZM315.698 204.6C312.632 204.6 311.098 204.067 311.098 203C311.098 201.133 313.698 199.267 318.898 197.4C321.298 196.6 324.632 196.2 328.898 196.2C332.765 196.2 339.632 196.8 349.498 198C353.498 198.4 355.498 199.133 355.498 200.2C355.498 201.267 353.498 201.867 349.498 202L335.898 203C330.432 203.533 324.032 204.067 316.698 204.6H315.698ZM415.084 261.2C408.284 261.2 401.951 258.667 396.084 253.6C389.818 248.133 385.351 240.467 382.684 230.6C370.551 224.467 364.484 213.933 364.484 199C364.484 191.267 366.151 183.4 369.484 175.4C368.818 175.533 368.218 175.667 367.684 175.8C367.151 175.933 366.551 176.133 365.884 176.4H365.484C364.818 176.4 364.484 176 364.484 175.2C364.484 172.133 365.818 170.333 368.484 169.8L372.484 169C379.018 155.533 388.951 144.133 402.284 134.8C416.018 125.067 430.151 120.2 444.684 120.2C454.018 120.2 460.818 122.2 465.084 126.2C468.551 121.933 471.418 118.933 473.684 117.2C474.084 116.8 474.551 116.6 475.084 116.6C475.884 116.6 476.284 116.867 476.284 117.4C476.284 117.8 476.084 118.2 475.684 118.6C472.484 121.133 469.484 124.2 466.684 127.8C468.818 130.467 469.884 133.533 469.884 137C469.884 138.867 469.618 140.4 469.084 141.6C467.218 146.4 463.884 148.8 459.084 148.8C456.151 148.8 454.684 147.333 454.684 144.4C454.684 142.133 455.284 139.8 456.484 137.4C457.818 134.867 459.884 132.2 462.684 129.4C459.884 126.333 454.218 124.8 445.684 124.8C432.351 124.8 419.951 128.933 408.484 137.2C398.351 144.533 389.684 154.533 382.484 167.2L391.284 166.4C401.951 147.6 417.551 135.333 438.084 129.6C438.618 129.467 438.951 129.667 439.084 130.2C439.351 130.733 439.218 131.067 438.684 131.2C420.418 136.267 406.018 147.933 395.484 166.2C396.551 166.067 398.351 166 400.884 166C403.551 166 407.018 165.933 411.284 165.8H446.284C447.751 165.8 448.484 166.2 448.484 167C448.484 167.933 447.351 168.4 445.084 168.4C427.484 168.4 410.018 169.4 392.684 171.4C386.284 184.467 383.084 197.4 383.084 210.2C383.084 214.733 383.351 218.867 383.884 222.6C390.018 228.333 398.151 231.2 408.284 231.2C418.551 231.2 428.618 228.2 438.484 222.2C437.151 215.533 433.684 209 428.084 202.6C420.218 207.267 413.218 213.2 407.084 220.4C406.418 221.067 406.018 221.4 405.884 221.4C405.618 221.4 405.618 221 405.884 220.2C406.151 219.267 406.351 218.733 406.484 218.6C413.418 210.867 419.951 204.867 426.084 200.6C418.484 193 410.284 189.067 401.484 188.8C400.951 188.8 400.684 188.533 400.684 188C400.684 187.467 400.951 187.2 401.484 187.2C410.818 187.467 419.618 191.533 427.884 199.4C436.418 193.8 444.018 191 450.684 191C458.284 191 462.084 194.133 462.084 200.4C462.084 204.8 459.751 209.467 455.084 214.4C451.218 218.267 446.818 221.667 441.884 224.6L442.084 226.4V228.2C442.084 238.333 439.284 246.467 433.684 252.6C428.751 258.333 422.551 261.2 415.084 261.2ZM460.084 146.8C462.084 146.8 463.551 145.733 464.484 143.6C464.884 142.533 465.218 141.533 465.484 140.6C465.751 139.667 465.884 138.733 465.884 137.8C465.884 135.667 465.284 133.533 464.084 131.4C460.884 136.467 459.084 140.733 458.684 144.2V144.8C458.684 146.133 459.151 146.8 460.084 146.8ZM380.484 219C380.218 216.067 380.084 212.867 380.084 209.4C380.084 196.467 382.884 184 388.484 172L383.884 172.6C383.084 172.867 382.284 173.067 381.484 173.2C380.684 173.2 379.951 173.267 379.284 173.4L378.684 174.8C377.084 178.533 375.818 182.267 374.884 186C373.951 189.733 373.484 193.4 373.484 197C373.484 205.533 375.818 212.867 380.484 219ZM441.084 220.6C446.818 216.467 451.484 211.8 455.084 206.6C457.218 203.667 458.284 200.933 458.284 198.4C458.284 195.067 456.151 193.4 451.884 193.4C449.218 193.4 445.951 194.2 442.084 195.8C438.351 197.267 434.351 199.2 430.084 201.6C435.684 207.6 439.351 213.933 441.084 220.6ZM414.484 259.2C421.684 259.2 427.551 256.267 432.084 250.4C436.751 244.667 439.084 237.267 439.084 228.2C439.084 227.267 439.018 226.6 438.884 226.2C427.818 232.333 416.218 235.4 404.084 235.4C397.551 235.4 391.484 234.267 385.884 232C388.418 240.667 392.418 247.533 397.884 252.6C402.818 257 408.351 259.2 414.484 259.2ZM503.377 232.2C496.443 232.2 492.977 227.733 492.977 218.8C492.977 214 493.977 208 495.977 200.8L499.177 189.4L485.177 205.4C481.843 209.267 479.243 212.467 477.377 215C475.51 217.533 474.377 219.333 473.977 220.4C472.377 224.667 469.91 226.8 466.577 226.8C465.377 226.8 464.977 226.2 465.377 225L468.577 212.6C469.643 208.733 470.377 205.2 470.777 202C471.177 198.667 471.377 195.733 471.377 193.2C471.377 192.133 471.31 191.2 471.177 190.4C471.043 189.6 470.977 188.8 470.977 188C470.977 186.267 471.843 184.667 473.577 183.2C475.31 181.733 477.043 181 478.777 181C480.777 181 481.577 182.133 481.177 184.4C480.777 186.667 480.31 189 479.777 191.4C479.377 193.667 478.977 195.933 478.577 198.2L475.377 212.8C483.377 205.467 491.843 194.8 500.777 180.8C501.31 179.867 502.577 179.4 504.577 179.4C507.777 179.4 509.443 180.067 509.577 181.4C509.843 182.6 509.31 185 507.977 188.6C505.977 194.467 504.577 199.067 503.777 202.4C501.777 210.8 500.777 217.467 500.777 222.4C500.777 227.2 501.843 229.6 503.977 229.6C506.377 229.6 509.11 228.267 512.177 225.6C514.977 223.2 516.31 222 516.177 222C516.577 222 516.643 222.533 516.377 223.6C516.243 224.667 515.577 225.8 514.377 227C510.91 230.467 507.243 232.2 503.377 232.2ZM558.163 228C556.963 228 555.896 227.8 554.963 227.4C552.696 226.333 551.563 222.867 551.563 217C551.563 212.067 552.229 206.333 553.563 199.8C553.296 200.6 549.363 205.333 541.763 214C533.229 223.733 527.163 228.333 523.563 227.8C519.296 227 517.163 223.933 517.163 218.6C517.163 210.467 520.829 201.533 528.163 191.8C536.163 181.4 544.229 176.2 552.363 176.2C554.896 176.2 557.496 176.8 560.163 178C560.963 176.267 563.629 169.2 568.163 156.8C572.563 143.733 576.696 137.2 580.563 137.2C582.163 137.2 582.763 138.867 582.363 142.2C580.496 145.667 578.163 150.733 575.363 157.4C572.696 164.067 568.963 172.2 564.163 181.8L563.763 182.6C564.429 184.2 564.763 185.267 564.763 185.8C564.763 186.733 564.429 187.2 563.763 187.2C563.363 187.2 562.829 187 562.163 186.6C559.496 194.2 558.163 202.333 558.163 211C558.163 217.267 559.096 220.933 560.963 222C561.763 222.267 562.563 222.4 563.363 222.4C566.029 222.4 570.029 220.467 575.363 216.6C580.029 213.133 582.429 211.467 582.563 211.6C583.496 213.333 580.763 216.533 574.363 221.2C568.229 225.733 562.829 228 558.163 228ZM525.163 223.6C526.496 223.6 528.829 222.067 532.163 219C534.563 216.733 537.229 213.733 540.163 210C543.096 206.133 546.296 201.667 549.763 196.6C556.296 187 559.296 181.933 558.763 181.4C557.963 180.6 556.963 180.2 555.763 180.2C551.763 180.2 546.229 184.133 539.163 192C532.763 199.2 528.163 206.2 525.363 213C524.029 216.2 523.363 218.867 523.363 221C523.363 222.733 523.963 223.6 525.163 223.6Z" />
    <path
        d="M71.8 445.2C70.2 445.2 69.5333 444.467 69.8 443L74.4 425C68.4 425.267 62.1333 425.667 55.6 426.2C54.6667 426.2 54.2 425.267 54.2 423.4C54.2 421 55.2 419.8 57.2 419.8H61C62.4667 419.8 64.2667 419.867 66.4 420L72 420.2H75.8L80.4 400.8C80.8 398.933 81.7333 398 83.2 398C84.2667 398 84.6 398.733 84.2 400.2C83.6667 402.067 83.0667 404.733 82.4 408.2C81.7333 411.533 81 415.533 80.2 420.2H97.4C99 420.2 99.8 420.867 99.8 422.2C99.8 423.533 96.7333 424.267 90.6 424.4C88.7333 424.533 86.8667 424.6 85 424.6H79.4C78.8667 426.867 78.4 429.533 78 432.6L76.2 443C75.9333 444.467 74.4667 445.2 71.8 445.2ZM151.338 486.2C142.138 486.2 135.338 481.667 130.938 472.6C128.004 466.467 126.538 459.333 126.538 451.2C126.538 448.133 126.738 445 127.138 441.8C127.538 438.467 128.071 434.933 128.738 431.2C130.471 422.933 134.004 411.733 139.338 397.6C133.338 399.2 128.071 400 123.538 400C116.338 400 110.738 398.333 106.738 395C102.871 391.667 100.938 387.533 100.938 382.6C100.938 372.333 107.471 363.867 120.538 357.2C130.671 352.267 144.071 349.267 160.738 348.2C163.004 342.733 164.471 338.133 165.138 334.4C165.138 334 165.338 333.867 165.738 334C166.004 334.133 166.271 334.533 166.538 335.2C166.804 338.133 165.671 342.467 163.138 348.2C166.604 347.933 170.071 347.933 173.538 348.2C178.071 341.8 182.738 338.6 187.538 338.6C191.004 338.6 194.471 339.733 197.937 342C201.004 344.267 202.537 346 202.537 347.2C202.537 347.733 202.204 348 201.538 348C201.138 348 200.671 347.6 200.138 346.8C199.604 346 198.938 345.333 198.138 344.8C195.471 342.933 193.071 342 190.938 342C187.604 342 184.271 344.2 180.938 348.6C202.271 350.333 218.938 356.333 230.938 366.6C241.204 375.4 246.338 385.867 246.338 398C246.338 413.733 238.338 428.533 222.338 442.4C213.671 449.867 202.404 454.933 188.538 457.6C183.871 466.8 178.204 473.867 171.538 478.8C164.871 483.733 158.138 486.2 151.338 486.2ZM164.738 362.6C166.071 360.2 167.338 358 168.538 356C169.738 354 170.871 352.133 171.938 350.4H166.938C165.338 350.4 163.671 350.467 161.938 350.6C161.404 351.933 159.804 355.4 157.138 361C159.538 361.133 162.071 361.667 164.738 362.6ZM120.538 395.8C125.604 395.8 132.538 394.667 141.338 392.4C143.471 387.2 145.604 382.133 147.738 377.2C149.871 372.133 152.071 367.2 154.338 362.4C153.804 362.267 153.004 362.2 151.938 362.2C144.604 361.667 138.138 363.933 132.538 369C127.871 373.267 125.538 377.733 125.538 382.4C125.538 383.467 125.604 384.2 125.738 384.6C125.871 385.133 125.671 385.467 125.138 385.6C124.604 385.733 124.271 385.4 124.138 384.6C123.871 383.933 123.738 383.133 123.738 382.2C123.738 377 126.204 372.2 131.138 367.8C133.804 365.267 136.871 363.467 140.338 362.4C143.938 361.2 147.804 360.6 151.938 360.6H153.538C154.071 360.6 154.604 360.667 155.138 360.8L155.538 359.8C156.204 358.067 156.938 356.467 157.738 355C158.538 353.533 159.204 352.133 159.738 350.8C144.671 352.267 132.471 355.733 123.138 361.2C117.538 364.533 113.071 368.4 109.738 372.8C106.404 377.2 104.738 381.333 104.738 385.2C104.738 392.267 110.004 395.8 120.538 395.8ZM191.938 450.2C202.071 447.267 210.804 442.4 218.138 435.6C231.338 423.467 237.938 410.733 237.938 397.4C237.938 385.267 232.604 374.8 221.938 366C211.404 357.333 197.271 352.267 179.538 350.8C177.004 354.4 174.338 359.267 171.538 365.4C175.804 367.533 179.738 370.6 183.338 374.6C186.804 372.467 191.938 368.4 198.738 362.4C199.138 362 199.471 361.8 199.737 361.8C199.871 361.8 199.938 362 199.938 362.4C199.938 363.2 199.671 363.867 199.138 364.4C194.871 368.8 190.138 372.867 184.938 376.6C193.604 387.533 197.937 401.467 197.937 418.4C197.937 429.467 195.938 440.067 191.938 450.2ZM143.938 391.6L153.538 388.6C157.004 379.533 160.471 371.533 163.938 364.6C161.538 363.667 159.004 363 156.338 362.6C152.071 371.4 147.938 381.067 143.938 391.6ZM163.538 384.8C166.738 383.467 169.738 382.067 172.538 380.6C175.471 379.133 178.271 377.667 180.938 376.2C177.871 372.733 174.404 369.867 170.538 367.6C169.471 370.133 168.338 372.867 167.138 375.8C165.938 378.6 164.738 381.6 163.538 384.8ZM173.138 453.2C178.071 453.2 183.138 452.533 188.338 451.2C192.604 440.8 194.738 429.933 194.738 418.6C194.738 401.933 190.671 388.467 182.538 378.2C176.404 382.467 169.404 386.333 161.538 389.8C151.404 418.2 145.671 438.867 144.338 451.8C144.604 451.533 147.271 447.267 152.338 439C154.338 435.667 156.604 433 159.138 431C160.871 429.667 162.338 429 163.538 429C164.204 429 164.538 429.2 164.538 429.6C164.538 429.733 164.404 429.933 164.138 430.2C158.138 435.4 155.138 440 155.138 444C155.138 450.133 161.138 453.2 173.138 453.2ZM151.938 482.8C157.938 482.8 163.871 480.6 169.738 476.2C175.738 471.933 180.871 465.933 185.138 458.2C181.671 458.6 178.471 458.8 175.538 458.8C160.471 458.8 152.938 454.533 152.938 446C152.938 444.4 153.204 442.867 153.738 441.4C152.404 443.133 150.871 445.4 149.138 448.2C147.404 450.867 145.404 454.067 143.138 457.8C142.871 458.067 142.604 458.2 142.338 458.2C141.271 458.2 140.004 457.467 138.538 456C137.071 454.667 136.404 453.333 136.538 452C137.738 438 142.738 418.6 151.538 393.8C150.738 394.067 149.938 394.4 149.138 394.8C148.338 395.067 147.538 395.267 146.738 395.4L142.138 397C137.071 410.733 133.671 422.2 131.938 431.4C130.471 438.733 129.738 445.2 129.738 450.8C129.738 461.333 131.938 469.4 136.338 475C140.071 480.2 145.271 482.8 151.938 482.8ZM259.064 454.4C255.064 454.4 251.731 453.2 249.064 450.8C246.397 448.267 245.064 444 245.064 438C245.064 436.4 245.197 434.667 245.464 432.8C246.664 426 249.464 419.533 253.864 413.4C259.331 405.933 264.997 402.2 270.864 402.2C273.931 402.2 276.797 403.067 279.464 404.8C282.131 406.4 283.464 408.8 283.464 412C283.464 415.6 281.997 419.333 279.064 423.2H283.064C283.731 423.2 284.131 423.267 284.264 423.4C284.264 424.2 281.797 425.067 276.864 426C273.931 429.333 271.731 431 270.264 431C269.997 431 269.864 430.867 269.864 430.6C269.864 430.733 270.864 429.4 272.864 426.6C271.131 426.6 268.797 426.733 265.864 427C263.064 427.133 259.664 427.467 255.664 428C254.197 432 253.464 435.733 253.464 439.2C253.464 443.6 254.664 446.8 257.064 448.8C258.531 450.133 260.331 450.8 262.464 450.8C262.864 450.8 263.264 450.8 263.664 450.8C264.064 450.8 264.464 450.733 264.864 450.6C273.397 449.133 281.664 444.2 289.664 435.8C290.331 434.867 290.864 434.733 291.264 435.4C291.397 435.533 291.464 435.733 291.464 436C291.464 436.533 291.064 437.2 290.264 438C287.464 441.6 283.064 445.133 277.064 448.6C270.397 452.467 264.397 454.4 259.064 454.4ZM257.664 423.8C259.531 423.667 261.931 423.6 264.864 423.6L274.864 423.4C276.331 420.467 277.264 418.133 277.664 416.4C278.064 414.667 278.264 413.267 278.264 412.2C278.264 409.4 277.197 408 275.064 408C272.397 408 269.464 409.6 266.264 412.8C264.397 414.667 262.731 416.533 261.264 418.4C259.797 420.133 258.597 421.933 257.664 423.8ZM297.186 452.4C292.653 452.4 290.386 450.2 290.386 445.8C290.386 442.333 291.653 436.8 294.186 429.2C296.319 422 297.319 417.733 297.186 416.4C296.519 413.733 295.586 412.2 294.386 411.8C293.186 411.4 293.986 409.2 296.786 405.2C297.186 404.533 298.319 404.2 300.186 404.2C304.586 404.2 306.786 404.933 306.786 406.4C306.786 408.667 305.519 414.8 302.986 424.8C300.453 434.533 299.186 441 299.186 444.2C299.186 446.6 299.986 447.8 301.586 447.8C305.319 447.8 310.586 443.733 317.386 435.6C324.986 426.4 329.053 419.133 329.586 413.8C326.653 410.733 325.186 407.267 325.186 403.4C325.186 399.8 326.319 398 328.586 398C331.653 398 333.186 400.933 333.186 406.8C333.186 409.467 333.053 411.467 332.786 412.8C334.653 413.867 336.386 414.4 337.986 414.4C339.853 414.4 341.386 413.8 342.586 412.6C343.386 412.867 343.786 413.267 343.786 413.8C343.786 415.267 342.919 416.267 341.186 416.8C339.986 417.2 338.786 417.4 337.586 417.4C335.586 417.4 333.786 416.8 332.186 415.6C332.186 417.467 331.053 420.667 328.786 425.2C327.453 427.733 325.986 430.067 324.386 432.2C322.919 434.333 321.319 436.333 319.586 438.2C310.919 447.667 303.453 452.4 297.186 452.4ZM351.447 454.4C347.447 454.4 344.114 453.2 341.447 450.8C338.78 448.267 337.447 444 337.447 438C337.447 436.4 337.58 434.667 337.847 432.8C339.047 426 341.847 419.533 346.247 413.4C351.714 405.933 357.38 402.2 363.247 402.2C366.314 402.2 369.18 403.067 371.847 404.8C374.514 406.4 375.847 408.8 375.847 412C375.847 415.6 374.38 419.333 371.447 423.2H375.447C376.114 423.2 376.514 423.267 376.647 423.4C376.647 424.2 374.18 425.067 369.247 426C366.314 429.333 364.114 431 362.647 431C362.38 431 362.247 430.867 362.247 430.6C362.247 430.733 363.247 429.4 365.247 426.6C363.514 426.6 361.18 426.733 358.247 427C355.447 427.133 352.047 427.467 348.047 428C346.58 432 345.847 435.733 345.847 439.2C345.847 443.6 347.047 446.8 349.447 448.8C350.914 450.133 352.714 450.8 354.847 450.8C355.247 450.8 355.647 450.8 356.047 450.8C356.447 450.8 356.847 450.733 357.247 450.6C365.78 449.133 374.047 444.2 382.047 435.8C382.714 434.867 383.247 434.733 383.647 435.4C383.78 435.533 383.847 435.733 383.847 436C383.847 436.533 383.447 437.2 382.647 438C379.847 441.6 375.447 445.133 369.447 448.6C362.78 452.467 356.78 454.4 351.447 454.4ZM350.047 423.8C351.914 423.667 354.314 423.6 357.247 423.6L367.247 423.4C368.714 420.467 369.647 418.133 370.047 416.4C370.447 414.667 370.647 413.267 370.647 412.2C370.647 409.4 369.58 408 367.447 408C364.78 408 361.847 409.6 358.647 412.8C356.78 414.667 355.114 416.533 353.647 418.4C352.18 420.133 350.98 421.933 350.047 423.8ZM394.569 453C387.902 453 384.569 448.333 384.569 439C384.569 435.133 385.169 430.267 386.369 424.4H385.769C384.835 424.4 384.369 424.067 384.369 423.4C384.369 422.333 385.569 420.467 387.969 417.8C395.835 384.6 406.369 362.467 419.569 351.4C422.502 349 425.569 347.8 428.769 347.8C433.169 347.8 435.369 350.067 435.369 354.6C435.369 364.467 430.635 375.667 421.169 388.2C415.835 394.867 407.302 404.067 395.569 415.8C392.502 426.2 390.969 434.467 390.969 440.6C390.969 446.467 392.969 449.4 396.969 449.4C400.035 449.4 403.702 448.2 407.969 445.8C412.235 443.4 415.569 440.667 417.969 437.6C418.902 436.4 419.635 435.8 420.169 435.8C420.435 435.8 420.569 436.067 420.569 436.6C420.569 438.067 420.169 439.267 419.369 440.2C416.969 443 413.302 445.733 408.369 448.4C402.635 451.467 398.035 453 394.569 453ZM396.169 411.4C403.369 404.733 410.635 396.333 417.969 386.2C427.302 373.267 432.102 363.267 432.369 356.2V355.6C432.369 352.4 431.435 350.8 429.569 350.8C427.302 350.8 424.702 352.667 421.769 356.4C419.902 358.667 417.769 361.933 415.369 366.2C412.969 370.333 410.302 375.6 407.369 382C404.702 387.867 402.435 393.267 400.569 398.2C398.702 403 397.235 407.4 396.169 411.4ZM429.172 454.4C425.839 454.4 423.105 452.867 420.972 449.8C418.839 446.733 417.772 442.8 417.772 438C417.772 434.133 418.439 430.2 419.772 426.2C424.705 411.267 430.772 403.467 437.972 402.8C438.772 401.867 439.905 401.4 441.372 401.4C444.039 401.4 446.639 402.6 449.172 405C451.839 407.4 453.305 409.933 453.572 412.6C455.305 414.733 457.839 415.8 461.172 415.8C462.239 415.8 463.839 415.667 465.972 415.4C468.105 415.133 469.705 415 470.772 415C471.305 415 471.439 415.333 471.172 416C471.039 416.533 470.372 417.133 469.172 417.8C466.772 419 463.772 419.733 460.172 420H457.772C455.505 420 453.839 419.733 452.772 419.2C453.439 424.267 451.039 431.533 445.572 441C440.639 449.933 435.172 454.4 429.172 454.4ZM430.372 450.4C433.839 450.4 437.572 447.267 441.572 441C442.639 439.267 443.639 437.333 444.572 435.2C445.639 433.067 446.505 430.667 447.172 428C448.505 423.467 449.039 420.2 448.772 418.2C443.839 417.4 440.972 414.533 440.172 409.6C436.572 410.667 433.105 415.267 429.772 423.4C426.705 431 425.172 437.133 425.172 441.8C425.172 447.533 426.905 450.4 430.372 450.4ZM463.842 501.4C463.442 501.4 462.976 501.333 462.442 501.2C462.042 501.2 461.509 501.133 460.842 501C458.042 500.6 455.842 498.8 454.242 495.6C452.509 492.533 451.642 489 451.642 485C451.642 483.267 451.776 481.6 452.042 480C455.109 466 462.909 441.467 475.442 406.4C473.709 405.467 472.909 404.8 473.042 404.4C473.709 402 475.242 400.467 477.642 399.8C479.109 396.467 480.176 392.733 480.842 388.6V388.4C480.842 387.067 480.042 385.333 478.442 383.2L477.842 382.6C477.842 381.667 478.709 381.467 480.442 382C483.109 382.8 485.109 383.933 486.442 385.4C487.776 386.733 488.309 387.933 488.042 389L486.242 395.4C485.576 397.533 484.909 399.667 484.242 401.8C492.242 406.867 496.976 414.2 498.442 423.8C498.442 424.467 498.709 424.8 499.242 424.8C500.042 424.8 501.576 424.067 503.842 422.6C507.576 420.067 509.242 418.8 508.842 418.8C509.509 418.8 509.576 419.267 509.042 420.2C508.642 421 507.976 421.667 507.042 422.2L498.642 427.4C497.976 441.533 492.642 449.867 482.642 452.4C482.109 452.533 481.576 452.6 481.042 452.6C480.509 452.733 479.976 452.8 479.442 452.8C476.509 452.8 475.042 451.267 475.042 448.2C475.042 444.867 476.642 441.267 479.842 437.4L483.042 434.6C484.909 433 487.776 430.6 491.642 427.4C491.642 424.467 490.576 420.8 488.442 416.4C486.176 411.733 483.909 408.933 481.642 408C481.242 407.733 477.709 417.867 471.042 438.4C463.976 460 459.976 474.467 459.042 481.8C458.242 487.667 457.842 490.867 457.842 491.4C457.842 496.2 459.576 498.933 463.042 499.6C464.376 499.733 465.042 500.133 465.042 500.8C465.042 501.2 464.642 501.4 463.842 501.4ZM481.842 448.6C485.576 448.6 488.442 445.733 490.442 440C491.376 437.333 491.842 434.867 491.842 432.6C491.842 432.2 491.842 431.8 491.842 431.4C491.842 431 491.776 430.6 491.642 430.2C486.442 434.867 482.909 438.667 481.042 441.6C479.976 443.467 479.442 445 479.442 446.2C479.442 447.8 480.242 448.6 481.842 448.6ZM521.759 454.4C517.759 454.4 514.426 453.2 511.759 450.8C509.093 448.267 507.759 444 507.759 438C507.759 436.4 507.893 434.667 508.159 432.8C509.359 426 512.159 419.533 516.559 413.4C522.026 405.933 527.693 402.2 533.559 402.2C536.626 402.2 539.493 403.067 542.159 404.8C544.826 406.4 546.159 408.8 546.159 412C546.159 415.6 544.693 419.333 541.759 423.2H545.759C546.426 423.2 546.826 423.267 546.959 423.4C546.959 424.2 544.493 425.067 539.559 426C536.626 429.333 534.426 431 532.959 431C532.693 431 532.559 430.867 532.559 430.6C532.559 430.733 533.559 429.4 535.559 426.6C533.826 426.6 531.493 426.733 528.559 427C525.759 427.133 522.359 427.467 518.359 428C516.893 432 516.159 435.733 516.159 439.2C516.159 443.6 517.359 446.8 519.759 448.8C521.226 450.133 523.026 450.8 525.159 450.8C525.559 450.8 525.959 450.8 526.359 450.8C526.759 450.8 527.159 450.733 527.559 450.6C536.093 449.133 544.359 444.2 552.359 435.8C553.026 434.867 553.559 434.733 553.959 435.4C554.093 435.533 554.159 435.733 554.159 436C554.159 436.533 553.759 437.2 552.959 438C550.159 441.6 545.759 445.133 539.759 448.6C533.093 452.467 527.093 454.4 521.759 454.4ZM520.359 423.8C522.226 423.667 524.626 423.6 527.559 423.6L537.559 423.4C539.026 420.467 539.959 418.133 540.359 416.4C540.759 414.667 540.959 413.267 540.959 412.2C540.959 409.4 539.893 408 537.759 408C535.093 408 532.159 409.6 528.959 412.8C527.093 414.667 525.426 416.533 523.959 418.4C522.493 420.133 521.293 421.933 520.359 423.8ZM554.081 452.4C552.748 452.4 552.148 451.733 552.281 450.4C552.681 448.667 553.148 446.067 553.681 442.6C554.215 439 554.815 434.4 555.481 428.8C555.748 426.267 556.015 424 556.281 422C556.548 419.867 556.748 417.933 556.881 416.2L557.481 408.8C557.615 407.333 558.481 406.067 560.081 405C561.815 403.933 563.548 403.4 565.281 403.4C567.681 403.4 568.548 404.4 567.881 406.4L565.081 416.8C564.415 418.667 563.815 420.6 563.281 422.6C562.748 424.6 562.148 426.667 561.481 428.8C564.815 423.067 568.815 417.667 573.481 412.6C578.681 407.267 582.548 404.6 585.081 404.6C588.281 404.6 590.548 406.4 591.881 410C593.348 413.467 593.415 415.2 592.081 415.2C591.815 415.2 591.348 414.667 590.681 413.6C589.481 411.2 587.815 410 585.681 410C580.348 410 573.748 415.933 565.881 427.8C561.481 434.467 558.148 442.133 555.881 450.8C555.615 451.867 555.015 452.4 554.081 452.4Z" />
</svg>