<svg width="677" height="686" preserveAspectRatio="none" viewBox="0 0 677 686" xmlns="http://www.w3.org/2000/svg">
    <path
        d="M674.271 92.8308C672.125 88.6147 668.522 86.085 663.539 85.3951C661.01 84.9352 658.787 85.0118 657.024 85.5484V84.7818C657.79 82.4055 658.02 80.5657 657.943 79.1092C657.943 77.6528 657.483 76.1963 656.717 74.6632C655.644 72.5934 654.187 70.907 652.348 69.6805C650.508 68.454 648.515 67.7641 646.292 67.6874C644.145 67.6874 641.922 68.1474 639.776 69.2206C638.166 70.0638 636.786 71.0603 635.713 72.1335C634.64 73.2067 633.72 74.5865 632.953 76.273C632.953 74.3565 632.647 72.6701 631.88 71.2903C630.654 68.8373 628.891 66.9209 626.668 65.4644C624.444 64.0079 621.991 63.318 619.232 63.2413C616.472 63.2413 613.789 63.8546 611.106 65.2344C610.876 65.3877 610.723 65.541 610.493 65.6943C610.646 65.4644 610.8 65.3111 610.953 65.0811C612.333 62.3981 612.946 59.6385 612.869 56.9555C612.793 54.1959 612.026 51.7428 610.646 49.5198C609.19 47.2968 607.273 45.5337 604.82 44.3072C603.441 43.6172 601.754 43.234 599.838 43.234C601.524 42.4674 602.904 41.5475 603.977 40.4743C605.05 39.4011 606.047 38.0213 606.89 36.4115C608.04 34.2651 608.5 32.0421 608.423 29.8957C608.423 27.7493 607.733 25.6796 606.43 23.8398C605.204 22.0001 603.517 20.5436 601.447 19.4704C599.914 18.7039 598.458 18.2439 597.001 18.2439C595.545 18.2439 593.705 18.4739 591.329 19.0871H590.562C591.099 17.4007 591.175 15.2543 590.716 12.648C589.949 7.6653 587.496 4.06244 583.28 1.91606C580.674 0.612897 577.991 -0.000356153 575.154 0.152957C572.318 0.30627 569.712 1.14949 567.259 2.60597C564.806 4.1391 562.966 6.13217 561.663 8.66184C559.056 13.6445 559.746 18.7039 563.732 23.6099C559.363 24.913 556.297 27.2894 554.457 30.8156C553.384 32.8853 552.924 35.1084 553.154 37.4081C553.384 39.7078 554.074 41.8541 555.454 43.7706C556.757 45.7636 558.52 47.2968 560.666 48.37C561.893 48.9832 563.502 49.5198 565.572 49.8264C564.192 50.7463 562.813 52.5094 561.433 55.1924C560.206 57.6454 559.746 60.1751 560.053 62.8581C560.36 65.4644 561.356 67.9174 563.043 70.2171C564.729 72.4401 566.952 74.2799 569.558 75.6597C572.318 77.1162 575.461 77.3461 578.68 76.5796C581.977 75.7364 584.89 74.1266 587.419 71.7502L587.266 72.8234C586.499 78.6493 585.043 83.7086 582.897 88.0014C581.67 90.3011 580.367 92.4475 578.834 94.3639C577.377 96.2803 575.691 97.9668 573.851 99.5766C570.402 102.413 567.105 104.253 564.039 104.943C560.973 105.632 557.983 105.326 555.224 103.869C552.541 102.49 550.701 100.343 549.704 97.4302C548.708 94.5172 548.938 91.7576 550.318 88.9979C551.084 87.4648 552.234 86.2383 553.614 85.2418C555.07 84.3219 556.603 83.7086 558.29 83.4787C559.976 83.2487 561.509 83.4787 562.889 84.2452C564.116 84.8585 565.112 85.7784 565.955 86.8516C566.799 88.0014 567.259 89.2279 567.489 90.5311C567.642 91.8343 567.489 92.9074 566.952 93.9806C566.339 95.1305 565.496 95.9737 564.346 96.4336C563.196 96.8936 562.123 96.8936 561.279 96.4336C560.13 95.897 559.44 95.0538 559.133 93.904C558.826 92.8308 558.98 91.6043 559.516 90.1478L557.063 89.7645C556.603 91.0677 556.373 92.2175 556.45 93.3674C556.45 94.5172 556.833 95.5138 557.37 96.357C557.907 97.2002 558.75 97.8901 559.746 98.4267C561.509 99.3466 563.273 99.4232 565.189 98.7333C567.105 98.0434 568.562 96.8169 569.482 95.0538C570.172 93.674 570.402 92.1409 570.172 90.4544C569.942 88.768 569.328 87.1582 568.255 85.7784C567.182 84.3219 565.802 83.1721 564.192 82.3288C562.813 81.6389 561.433 81.2556 559.9 81.179C558.366 81.1023 556.91 81.3323 555.377 81.8689C553.92 82.4055 552.541 83.2487 551.391 84.3219C550.164 85.3951 549.244 86.6216 548.401 88.1547C547.328 90.2245 546.868 92.4475 547.021 94.8239C547.175 97.2002 547.865 99.4232 549.168 101.34C550.394 103.333 552.081 104.866 554.227 106.016C555.76 106.782 557.523 107.242 559.593 107.396C561.586 107.549 563.732 107.396 565.879 106.782C568.102 106.246 570.095 105.402 572.011 104.253C570.862 106.092 570.095 108.162 569.482 110.385C568.945 112.608 568.715 114.678 568.868 116.671C568.945 118.741 569.405 120.504 570.248 122.037C571.321 124.183 572.855 125.87 574.848 127.096C576.841 128.399 578.987 129.089 581.363 129.243C583.74 129.396 585.963 128.936 588.033 127.863C589.566 127.096 590.792 126.1 591.865 124.95C592.939 123.723 593.705 122.42 594.318 120.964C594.855 119.507 595.085 117.974 595.008 116.441C595.008 114.908 594.548 113.528 593.859 112.148C593.015 110.462 591.865 109.082 590.409 108.009C588.952 106.936 587.419 106.322 585.656 106.092C583.97 105.862 582.437 106.092 581.057 106.782C579.217 107.702 577.991 109.159 577.377 111.075C576.687 112.991 576.841 114.831 577.684 116.518C578.221 117.591 578.91 118.357 579.754 118.894C580.597 119.431 581.593 119.737 582.743 119.814C583.893 119.814 585.12 119.661 586.346 119.201L585.963 116.748C584.506 117.284 583.28 117.361 582.207 117.131C581.133 116.824 580.29 116.134 579.677 114.985C579.217 114.065 579.217 113.068 579.677 111.918C580.137 110.768 580.98 109.849 582.13 109.312C583.127 108.775 584.276 108.622 585.58 108.775C586.883 108.929 588.109 109.465 589.259 110.308C590.409 111.152 591.252 112.148 591.865 113.375C592.555 114.755 592.862 116.288 592.632 117.974C592.402 119.661 591.789 121.194 590.869 122.65C589.949 124.03 588.646 125.18 587.113 125.946C584.43 127.326 581.593 127.48 578.68 126.56C575.768 125.563 573.621 123.723 572.241 121.04C570.785 118.281 570.478 115.291 571.168 112.225C571.858 109.159 573.698 105.862 576.534 102.413C578.067 100.573 579.83 98.8867 581.747 97.4302C583.663 95.9737 585.733 94.5939 588.109 93.3674C592.402 91.221 597.461 89.7645 603.287 88.9979L604.36 88.8446C601.984 91.3743 600.374 94.2873 599.531 97.5835C598.688 100.88 598.994 103.946 600.374 106.782C601.754 109.465 603.517 111.612 605.817 113.298C608.04 114.985 610.493 115.981 613.176 116.288C615.859 116.594 618.389 116.134 620.842 114.908C623.448 113.605 625.288 112.225 626.131 110.768C626.514 112.838 626.974 114.448 627.587 115.674C628.661 117.821 630.27 119.507 632.187 120.887C634.18 122.19 636.25 122.957 638.549 123.187C640.849 123.417 643.072 122.957 645.142 121.884C648.668 120.121 651.121 117.054 652.348 112.685C657.33 116.671 662.313 117.284 667.296 114.755C669.825 113.451 671.895 111.612 673.428 109.159C674.961 106.706 675.804 104.099 675.881 101.263C676.034 98.4267 675.421 95.7437 674.118 93.1374L674.271 92.8308ZM578.834 73.8199C575.998 74.6632 573.008 74.3565 570.018 72.8234C566.569 71.0603 564.192 68.3773 563.043 64.8511C561.893 61.3249 562.123 57.8754 563.809 54.5791C564.499 53.1993 565.189 52.3561 565.879 51.8195L569.175 49.3665C569.175 49.3665 569.482 49.0599 570.018 48.5233C566.875 48.5999 564.269 48.14 562.046 46.9901C560.13 45.9936 558.596 44.6904 557.447 43.0807C556.297 41.4709 555.684 39.6311 555.607 37.638C555.454 35.645 555.913 33.8052 556.833 31.9654C558.443 28.7459 561.969 26.5228 567.412 25.0663C564.959 23.1499 563.349 20.8502 562.659 18.0906C561.969 15.331 562.276 12.648 563.656 10.0417C564.499 8.35521 565.649 6.97539 566.952 5.82554C568.332 4.6757 569.865 3.90913 571.475 3.29588C573.161 2.75928 574.848 2.45265 576.764 2.60597C578.604 2.60597 580.29 3.14256 581.823 3.90913C585.81 5.97886 588.186 9.58172 588.799 14.871C589.259 17.6307 588.952 19.9304 588.033 21.7701C588.033 21.7701 587.956 21.8468 587.879 21.9234C587.879 22.0001 587.726 22.1534 587.649 22.3067C589.949 21.0802 592.095 20.3903 594.242 20.237C596.388 20.0837 598.381 20.5436 600.221 21.4635C601.984 22.3834 603.364 23.6099 604.36 25.143C605.357 26.6761 605.97 28.4392 606.124 30.279C606.277 32.1188 605.894 33.9585 604.974 35.7983C603.211 39.3245 599.991 42.0075 595.392 44.0005C595.698 44.0005 596.005 44.0005 596.158 44.1538C596.311 44.1538 596.465 44.1538 596.541 44.1538C598.611 44.4605 600.221 44.7671 601.371 45.0737C602.521 45.3804 603.517 45.687 604.514 46.2236C606.43 47.1435 607.887 48.5999 608.96 50.5163C609.956 52.4328 610.493 54.5791 610.493 56.9555C610.493 59.3318 609.88 61.6315 608.73 63.8546C606.66 67.8407 603.977 70.2171 600.758 70.8303C597.461 71.5202 593.858 70.8303 589.872 68.7606C590.332 64.3912 591.099 61.1716 592.172 59.0252C593.092 57.1855 594.242 55.8056 595.622 54.8091C597.001 53.8126 598.151 53.5826 599.148 54.1192C599.761 54.4258 600.144 55.0391 600.374 55.8056C600.604 56.6489 600.528 57.3388 600.221 57.952C599.914 58.4886 599.378 58.9486 598.535 59.4852L598.994 60.865C600.528 60.405 601.601 59.6385 602.214 58.5653C602.597 57.7221 602.827 56.9555 602.751 56.1123C602.751 55.2691 602.444 54.5791 601.984 53.8892C601.524 53.1993 600.988 52.6627 600.221 52.2794C598.611 51.4362 597.001 51.4362 595.392 52.2794C593.782 53.1227 592.402 54.5791 591.329 56.6489C590.716 57.8754 590.179 59.1019 589.719 60.2517C589.412 57.4921 589.106 54.9624 588.723 52.5861C588.033 49.1365 587.649 46.8368 587.573 45.687C587.496 44.6138 587.496 43.0807 587.573 41.3176C587.879 38.098 588.569 35.415 589.642 33.3453C590.409 31.8121 591.405 30.7389 592.402 30.2023C593.399 29.6657 594.472 29.6657 595.545 30.2023C595.852 30.3557 596.082 30.6623 596.312 30.9689C596.618 31.5055 596.771 32.1188 596.848 32.6554C596.848 33.192 596.848 33.7285 596.618 34.1118C596.312 34.7251 595.622 35.1084 594.472 35.2617L595.315 37.0248C596.695 36.7948 597.768 36.0282 598.458 34.5718C599.071 33.3453 599.148 32.1188 598.765 30.8923C598.305 29.6657 597.461 28.7459 596.235 28.056C594.702 27.2894 593.169 27.2894 591.559 28.056C590.026 28.8225 588.646 30.279 587.573 32.4254C586.959 33.6519 586.346 36.1816 585.81 39.9377C584.583 36.0282 583.587 33.1153 582.973 31.1222C581.977 28.056 580.597 24.7597 578.91 21.2335C578.067 19.5471 576.994 17.8606 575.844 16.1742L575.308 16.4808C577.071 19.8537 578.221 22.69 578.91 24.913C579.83 27.5194 580.674 29.8957 581.44 32.1188C581.747 33.192 582.13 34.3418 582.59 35.4916C583.587 38.4813 584.123 40.6276 584.353 42.0075C582.36 38.7879 580.75 36.5648 579.447 35.185C578.144 33.8819 576.534 32.732 574.618 31.6588C573.238 30.9689 571.935 30.509 570.785 30.4323C569.635 30.4323 568.562 30.5856 567.642 31.1222C566.722 31.6588 565.956 32.502 565.419 33.5752C564.882 34.6484 564.729 35.7216 564.959 36.7948C565.266 37.868 565.956 38.6346 567.105 39.2478C568.179 39.7844 569.252 39.9377 570.325 39.7078L569.865 37.638C569.405 38.0213 568.868 38.0213 568.332 37.7147C567.795 37.4081 567.489 37.0248 567.335 36.3349C567.182 35.7216 567.259 35.1084 567.489 34.4951C568.025 33.4986 568.868 32.962 570.018 32.8087C571.168 32.732 572.548 33.0386 574.081 33.8052C576.917 35.2617 579.37 37.3314 581.363 40.091C582.59 41.7775 583.587 43.5406 584.353 45.3037C585.12 47.1434 585.81 49.3665 586.346 51.9728C586.959 54.5791 587.419 57.7221 587.879 61.3249C586.653 58.9486 585.503 57.2621 584.583 56.1889C583.663 55.1924 582.36 54.1959 580.827 53.4293C578.834 52.4328 576.994 52.1261 575.231 52.5094C573.545 52.8927 572.241 53.9659 571.398 55.6523C570.708 56.9555 570.555 58.2587 570.938 59.4852C571.245 60.7883 572.011 61.7082 573.085 62.2448C574.004 62.7047 574.848 62.9347 575.461 62.7814C576.151 62.7047 576.841 62.2448 577.531 61.4782L576.534 59.9451C575.614 60.0984 574.924 60.0984 574.464 59.7918C573.928 59.4852 573.468 59.0252 573.085 58.2587C572.778 57.4921 572.701 56.8788 573.008 56.4189C573.468 55.4224 574.388 54.8858 575.614 54.6558C576.841 54.4258 578.067 54.6558 579.294 55.2691C582.13 56.6489 584.43 58.8719 586.346 61.8615C587.496 63.7013 588.033 65.8477 587.879 68.224C584.89 70.907 581.9 72.6701 579.064 73.5133L578.834 73.8199ZM595.162 88.2314C591.712 89.1513 588.493 90.4544 585.503 91.9876C584.353 92.6008 583.28 93.2141 582.283 93.904C582.973 92.8308 583.587 91.8342 584.2 90.6844C585.733 87.6948 586.959 84.3986 587.956 81.0257C588.876 77.5761 589.489 74.1266 589.642 70.7537C590.409 71.3669 591.022 71.7502 591.405 71.9802C593.705 73.13 596.082 73.6666 598.535 73.59C600.604 73.5133 602.444 72.8234 604.284 71.9035C603.287 73.7433 602.674 75.6597 602.597 77.7294C602.521 80.1824 603.057 82.5588 604.207 84.8585C604.437 85.3184 604.82 85.9317 605.434 86.6216C601.984 86.8516 598.535 87.3882 595.162 88.308V88.2314ZM672.891 104.789C672.355 106.399 671.512 107.932 670.362 109.312C669.212 110.692 667.832 111.765 666.146 112.685C663.539 113.988 660.856 114.295 658.173 113.681C655.414 112.991 653.114 111.382 651.198 108.929C649.818 114.371 647.518 117.821 644.299 119.507C642.459 120.427 640.619 120.81 638.626 120.734C636.633 120.58 634.87 119.967 633.183 118.894C631.574 117.744 630.27 116.211 629.274 114.295C628.201 112.148 627.664 109.465 627.741 106.322C627.204 106.859 626.897 107.166 626.897 107.166L624.444 110.462C623.985 111.075 623.065 111.765 621.685 112.532C618.389 114.218 614.939 114.448 611.413 113.298C607.81 112.148 605.204 109.772 603.364 106.322C601.831 103.333 601.448 100.343 602.367 97.5068C603.211 94.6705 605.05 91.6809 607.657 88.6913C610.033 88.538 612.179 89.0746 614.019 90.2245C617.009 92.1409 619.232 94.4406 620.612 97.2769C621.225 98.5034 621.455 99.7299 621.225 100.956C620.995 102.183 620.458 103.103 619.462 103.563C619.002 103.793 618.312 103.793 617.622 103.486C616.932 103.179 616.396 102.719 616.089 102.106C615.859 101.646 615.782 100.956 615.936 100.036L614.326 99.04C613.559 99.7299 613.099 100.42 613.023 101.11C612.946 101.8 613.023 102.566 613.559 103.486C614.096 104.636 615.092 105.326 616.319 105.632C617.622 105.939 618.849 105.862 620.152 105.172C621.838 104.253 622.911 103.026 623.295 101.34C623.678 99.6532 623.371 97.8135 622.375 95.8204C621.608 94.2873 620.612 93.0608 619.615 92.0642C618.542 91.1443 616.856 89.9945 614.479 88.768C618.082 89.2279 621.148 89.6879 623.831 90.3011C626.438 90.9144 628.737 91.5276 630.5 92.2942C632.263 93.0608 634.027 94.0573 635.713 95.2838C638.473 97.3535 640.542 99.7299 641.922 102.566C642.765 104.176 643.072 105.556 642.919 106.706C642.842 107.855 642.229 108.699 641.232 109.235C640.619 109.542 640.006 109.619 639.393 109.465C638.779 109.312 638.319 109.005 638.013 108.469C637.706 107.932 637.783 107.396 638.089 106.936L636.02 106.399C635.79 107.472 635.943 108.545 636.48 109.619C637.016 110.768 637.859 111.458 638.933 111.765C640.006 111.995 641.079 111.842 642.152 111.305C643.225 110.768 644.069 110.002 644.605 109.082C645.142 108.162 645.372 107.089 645.295 105.939C645.218 104.789 644.835 103.486 644.069 102.03C643.072 100.113 641.846 98.4267 640.542 97.2002C639.239 95.897 636.94 94.2873 633.797 92.2942C635.176 92.4475 637.323 93.0608 640.312 94.0573C641.462 94.5172 642.612 94.9005 643.685 95.2071C645.908 95.897 648.285 96.7403 650.891 97.7368C653.114 98.4267 655.95 99.5766 659.323 101.34L659.63 100.803C657.943 99.6532 656.257 98.58 654.571 97.7368C651.044 96.0504 647.748 94.6705 644.605 93.674C642.612 93.0608 639.699 92.1409 635.79 90.8377C639.546 90.3011 642.076 89.7645 643.302 89.1513C645.448 88.0781 646.905 86.6982 647.671 85.1651C648.438 83.632 648.515 82.0989 647.671 80.4891C647.058 79.2626 646.062 78.3427 644.835 77.9594C643.609 77.4995 642.382 77.6528 641.156 78.266C639.776 79.0326 638.933 80.0291 638.703 81.409L640.466 82.2522C640.619 81.179 641.002 80.4891 641.616 80.1058C641.999 79.8758 642.459 79.8758 643.072 79.8758C643.685 79.8758 644.222 80.1058 644.835 80.4124C645.218 80.5657 645.448 80.8724 645.602 81.179C646.138 82.2522 646.138 83.3254 645.602 84.3219C645.065 85.3184 643.992 86.2383 642.459 87.0815C640.312 88.1547 637.706 88.8446 634.486 89.1513C632.647 89.2279 631.19 89.2279 630.117 89.1513C628.967 89.0746 626.668 88.6913 623.218 88.0014C620.918 87.6181 618.312 87.3115 615.552 87.0049C616.779 86.5449 617.929 86.0083 619.155 85.3951C621.225 84.3219 622.681 83.0187 623.525 81.3323C624.368 79.7225 624.368 78.1127 623.525 76.5029C623.141 75.813 622.605 75.1998 621.915 74.7398C621.225 74.2799 620.458 74.0499 619.615 73.9733C618.772 73.9733 618.005 74.1266 617.162 74.5099C616.089 75.0465 615.246 76.1196 614.862 77.7294L616.242 78.1894C616.702 77.3461 617.239 76.7329 617.775 76.5029C618.389 76.1963 619.079 76.1963 619.922 76.3496C620.765 76.5796 621.302 76.9629 621.608 77.5761C622.145 78.496 621.838 79.7225 620.918 81.1023C619.922 82.4821 618.542 83.632 616.702 84.5519C614.632 85.6251 611.413 86.3916 606.967 86.8516C604.974 82.8654 604.284 79.2626 604.897 75.9663C605.587 72.6701 607.887 69.9871 611.873 67.994C614.096 66.8442 616.396 66.3076 618.772 66.2309C621.148 66.2309 623.295 66.6909 625.211 67.7641C627.127 68.8373 628.507 70.2937 629.504 72.2102C629.964 73.13 630.347 74.1266 630.654 75.3531C630.96 76.5029 631.267 78.1127 631.574 80.1058C631.574 80.1824 631.574 80.3358 631.574 80.4891C631.574 80.6424 631.65 80.949 631.727 81.2556C633.72 76.6562 636.403 73.4367 639.929 71.6736C641.692 70.7537 643.532 70.3704 645.448 70.5237C647.365 70.677 649.051 71.2903 650.584 72.2868C652.118 73.2834 653.421 74.6632 654.264 76.4263C655.184 78.266 655.644 80.2591 655.49 82.4055C655.414 84.5519 654.724 86.7749 653.421 88.9979C653.574 88.9213 653.727 88.8446 653.804 88.768C653.804 88.768 653.957 88.6913 653.957 88.6147C655.797 87.6948 658.173 87.3882 660.856 87.8481C666.146 88.538 669.749 90.8377 671.818 94.8239C672.585 96.357 673.045 98.0434 673.121 99.8832C673.198 101.723 672.968 103.486 672.432 105.172L672.891 104.789Z" />
    <path
        d="M127.749 88.0028C126.982 86.4697 125.986 85.1666 124.759 84.17C123.533 83.0968 122.23 82.3303 120.773 81.717C119.317 81.1804 117.783 80.9504 116.25 81.0271C114.717 81.0271 113.337 81.4104 111.958 82.177C110.271 83.0202 108.891 84.17 107.818 85.6265C106.745 87.083 106.132 88.6161 105.902 90.3792C105.672 92.0657 105.902 93.5988 106.592 94.9786C107.511 96.7417 108.968 98.0449 110.884 98.6581C112.801 99.348 114.641 99.1947 116.327 98.3515C117.4 97.8149 118.167 97.125 118.703 96.2818C119.24 95.4385 119.547 94.442 119.623 93.2922C119.623 92.1423 119.47 90.9158 119.01 89.6893L116.557 90.0726C117.094 91.5291 117.17 92.7556 116.94 93.8288C116.634 94.9019 115.944 95.7452 114.794 96.3584C113.951 96.8184 112.877 96.8184 111.728 96.3584C110.578 95.8985 109.658 95.0553 109.121 93.9054C108.585 92.9089 108.431 91.759 108.585 90.4559C108.738 89.1527 109.275 87.9262 110.118 86.7763C110.961 85.7032 111.958 84.7833 113.184 84.17C114.564 83.4801 116.097 83.1735 117.783 83.4035C119.47 83.6334 121.003 84.2467 122.459 85.1666C123.916 86.1631 124.989 87.3896 125.756 88.9227C127.136 91.6057 127.289 94.442 126.369 97.3549C125.372 100.268 123.533 102.414 120.85 103.794C118.09 105.251 115.1 105.557 112.034 104.867C108.968 104.177 105.672 102.338 102.222 99.5013C100.382 97.9682 98.6959 96.2051 97.2394 94.3653C95.783 92.4489 94.4031 90.3025 93.1766 88.0028C91.0302 83.7101 89.5738 78.6507 88.8072 72.9015L88.6539 71.8283C91.1836 74.2047 94.0965 75.8145 97.3927 76.6577C100.689 77.5009 103.755 77.1943 106.592 75.7378C109.275 74.4346 111.421 72.5949 113.107 70.3718C114.794 68.1488 115.79 65.6958 116.097 63.0128C116.404 60.3298 115.944 57.8002 114.717 55.3472C113.414 52.6642 112.034 50.9011 110.578 50.0579C112.647 49.6746 114.257 49.2146 115.484 48.6014C117.63 47.5282 119.317 45.9951 120.696 44.002C122 42.0089 122.766 39.9392 122.996 37.6395C123.226 35.3398 122.766 33.1168 121.693 31.047C119.93 27.5208 116.787 25.0678 112.417 23.8413C116.404 18.8586 117.094 13.876 114.487 8.89328C113.184 6.36361 111.344 4.29388 108.891 2.76075C106.438 1.22762 103.832 0.461055 100.996 0.307742C98.1593 0.154429 95.4763 0.767682 92.87 2.07084C88.6539 4.21723 86.1242 7.82009 85.4343 12.8028C84.9744 15.3324 85.051 17.5555 85.5876 19.3186H84.821C82.4447 18.6287 80.5283 18.322 79.1484 18.3987C77.692 18.3987 76.2355 18.8586 74.7024 19.6252C72.6326 20.6984 70.9462 22.1549 69.7197 23.9946C68.4932 25.8344 67.8033 27.8274 67.7266 30.0505C67.7266 32.1969 68.1865 34.4199 69.2597 36.5663C70.103 38.1761 71.0995 39.5559 72.1727 40.6291C73.2459 41.7023 74.6257 42.6222 76.3121 43.3887C74.3957 43.3887 72.7093 43.772 71.3295 44.4619C68.8764 45.6884 66.96 47.4515 65.5035 49.6746C64.0471 51.8976 63.3572 54.4273 63.2805 57.1103C63.2805 59.8699 63.8938 62.5529 65.2736 65.2359C65.4269 65.4658 65.5802 65.6191 65.7335 65.8491C65.5035 65.6958 65.3502 65.5425 65.1203 65.3892C62.4373 64.0093 59.6776 63.3961 56.9947 63.4727C54.235 63.4727 51.782 64.316 49.559 65.6958C47.3359 67.1523 45.5728 69.0687 44.3463 71.5217C43.6564 72.8249 43.2731 74.588 43.2731 76.5044C42.5065 74.8179 41.5867 73.4381 40.5135 72.3649C39.4403 71.2917 38.0604 70.2952 36.4507 69.452C34.3043 68.3021 32.1579 67.8422 29.9348 67.9188C27.7884 67.9188 25.7187 68.6087 23.8789 69.9119C22.0392 71.1384 20.5827 72.8249 19.5095 74.8946C18.7429 76.4277 18.3597 77.8842 18.283 79.3407C18.2064 80.7971 18.513 82.7135 19.1262 85.0132V85.8565C17.4398 85.3199 15.2934 85.2432 12.6871 85.7032C7.70438 86.4697 4.10151 88.9227 1.95512 93.1388C0.65196 95.7452 0.0387061 98.4281 0.19202 101.264C0.345333 104.101 1.18856 106.707 2.64503 109.16C4.17817 111.613 6.17124 113.453 8.77757 114.756C13.7603 117.362 18.8196 116.672 23.7256 112.686C25.0288 117.056 27.4052 120.122 30.9314 121.962C33.0011 123.035 35.2241 123.495 37.5238 123.265C39.8235 123.035 41.9699 122.345 43.8864 120.965C45.8794 119.662 47.4126 117.899 48.4858 115.753C49.099 114.526 49.559 112.916 49.9422 110.847C50.8621 112.226 52.6252 113.606 55.2315 114.986C57.6846 116.212 60.2142 116.672 62.8972 116.366C65.5035 116.059 67.9566 115.063 70.2563 113.376C72.4793 111.69 74.3191 109.467 75.6989 106.86C77.1554 104.024 77.462 101.034 76.5421 97.6616C75.6989 94.3653 74.0891 91.4524 71.7127 88.9227L72.7859 89.076C78.6118 89.8426 83.6712 91.2991 87.964 93.4455C90.2637 94.672 92.4101 95.9751 94.3265 97.5083C96.2429 98.9647 97.9293 100.651 99.5391 102.491C102.375 105.94 104.215 109.16 104.905 112.303C105.595 115.369 105.288 118.359 103.832 121.118C102.452 123.801 100.306 125.641 97.3927 126.638C94.4798 127.634 91.7202 127.404 88.9605 126.025C87.4274 125.258 86.2009 124.185 85.2043 122.728C84.2078 121.272 83.6712 119.739 83.4412 118.052C83.2113 116.366 83.4412 114.833 84.2078 113.453C84.821 112.226 85.7409 111.23 86.8141 110.387C87.964 109.543 89.1905 109.083 90.4936 108.853C91.7968 108.7 92.9467 108.853 93.9432 109.39C95.093 110.003 95.9363 110.847 96.3962 111.996C96.8561 113.146 96.8561 114.219 96.3962 115.063C95.8596 116.212 95.0164 116.902 93.8665 117.209C92.7933 117.516 91.5668 117.362 90.1104 116.826L89.7271 119.279C91.0302 119.739 92.1801 119.969 93.3299 119.892C94.4798 119.892 95.4763 119.509 96.3196 118.972C97.1628 118.436 97.8527 117.592 98.3893 116.596C99.3092 114.833 99.3858 113.07 98.6959 111.153C98.006 109.237 96.7795 107.78 95.0164 106.86C93.6366 106.094 92.1034 105.94 90.417 106.094C88.7305 106.324 87.1208 106.937 85.7409 108.01C84.2844 109.083 83.1346 110.463 82.2914 112.15C81.6015 113.529 81.2182 114.909 81.2182 116.442C81.1415 117.976 81.3715 119.432 81.9081 120.965C82.4447 122.422 83.2879 123.801 84.3611 124.951C85.4343 126.178 86.6608 127.098 88.1939 127.941C90.2637 129.014 92.4867 129.474 94.8631 129.321C97.2394 129.167 99.4625 128.478 101.379 127.174C103.372 125.948 104.905 124.261 105.978 122.115C106.745 120.582 107.205 118.819 107.358 116.749C107.511 114.756 107.281 112.61 106.745 110.463C106.208 108.24 105.365 106.247 104.215 104.331C106.055 105.481 108.125 106.247 110.348 106.86C112.571 107.397 114.641 107.627 116.634 107.474C118.627 107.397 120.466 106.86 122 106.094C124.146 105.021 125.832 103.487 127.059 101.418C128.362 99.4247 129.052 97.2783 129.205 94.9019C129.359 92.5256 128.899 90.3026 127.825 88.2328L127.749 88.0028ZM67.2667 50.3645C68.3399 48.4481 69.7963 47.0683 71.7127 46.0717C72.6326 45.6118 73.6292 45.2285 74.8557 44.9219C76.0055 44.6152 77.6153 44.3086 79.685 44.002C79.685 44.002 79.915 44.002 80.0683 44.002C80.2216 44.002 80.5283 44.002 80.8349 43.8487C76.2355 41.9323 73.0159 39.1726 71.2528 35.6464C70.3329 33.8833 69.9496 32.0436 70.103 30.1271C70.2563 28.2874 70.8695 26.5243 71.8661 24.9912C72.8626 23.458 74.2424 22.2315 76.0055 21.3116C77.8453 20.3918 79.8384 19.9318 81.9847 20.0851C84.1311 20.1618 86.3542 20.8517 88.5772 22.1549C88.5006 22.0016 88.4239 21.8482 88.3473 21.7716C88.3473 21.7716 88.2706 21.6183 88.1939 21.6183C87.2741 19.7785 86.9674 17.4022 87.4274 14.7192C88.0406 9.42987 90.417 5.82701 94.4031 3.75729C95.9363 2.99072 97.6227 2.53078 99.4625 2.45413C101.302 2.37747 103.065 2.60744 104.752 3.14404C106.362 3.68063 107.895 4.52385 109.275 5.6737C110.654 6.82355 111.728 8.20337 112.571 9.88981C113.874 12.4961 114.181 15.1791 113.567 17.9388C112.877 20.6984 111.268 22.9981 108.815 24.9145C114.181 26.2943 117.707 28.594 119.317 31.8136C120.236 33.6534 120.62 35.4931 120.543 37.4862C120.39 39.4792 119.777 41.2423 118.703 42.9288C117.553 44.5386 116.02 45.8417 114.104 46.8383C111.958 47.9115 109.275 48.4481 106.132 48.3714C106.668 48.908 106.975 49.2146 106.975 49.2146L110.271 51.6676C110.961 52.1276 111.651 53.0475 112.341 54.4273C114.027 57.7235 114.257 61.173 113.107 64.6992C111.958 68.3021 109.581 70.9084 106.132 72.6715C103.142 74.2047 100.152 74.588 97.3161 73.6681C94.4798 72.7482 91.4902 70.9851 88.5006 68.3788C88.3473 66.0024 88.8839 63.856 90.0337 62.0163C91.9501 59.0267 94.2498 56.8036 97.0861 55.4238C98.3126 54.8106 99.5391 54.5806 100.766 54.8106C101.992 55.0405 102.835 55.6538 103.372 56.5737C103.602 57.1103 103.602 57.7235 103.295 58.4134C102.989 59.18 102.529 59.6399 101.915 59.9466C101.456 60.1765 100.766 60.2532 99.8458 60.0232L98.8492 61.5563C99.5391 62.3229 100.229 62.7828 100.919 62.8595C101.609 63.0128 102.375 62.8595 103.295 62.3229C104.445 61.7863 105.135 60.7898 105.442 59.5633C105.748 58.2601 105.595 57.0336 104.982 55.7304C104.139 54.044 102.835 52.9708 101.149 52.5875C99.4625 52.2042 97.6227 52.5109 95.553 53.5074C94.0199 54.3506 92.7933 55.2705 91.7968 56.267C90.8769 57.2636 89.7271 59.0267 88.5006 61.403C88.9605 57.8002 89.4204 54.7339 90.0337 52.1276C90.5703 49.5213 91.2602 47.2216 92.0268 45.4585C92.7933 43.6954 93.7899 41.9323 95.0164 40.2458C97.0861 37.4862 99.4625 35.4165 102.299 33.96C103.909 33.1168 105.212 32.8101 106.362 32.9634C107.511 33.0401 108.355 33.6534 108.891 34.6499C109.198 35.2631 109.275 35.8764 109.121 36.4896C108.968 37.1029 108.661 37.5628 108.125 37.8695C107.588 38.1761 107.051 38.0994 106.592 37.7928L106.055 39.8625C107.128 40.0925 108.201 39.9392 109.275 39.4026C110.424 38.7893 111.114 38.0228 111.421 36.9496C111.651 35.8764 111.498 34.8032 110.961 33.73C110.424 32.6568 109.658 31.8136 108.738 31.277C107.818 30.7404 106.745 30.5104 105.595 30.5871C104.445 30.6637 103.142 31.047 101.686 31.8136C99.6925 32.8101 98.0827 34.0366 96.8561 35.3398C95.6296 36.643 93.9432 38.9426 91.9501 42.0856C92.1034 40.7058 92.7167 38.5594 93.7132 35.4931C94.1732 34.3433 94.5564 33.2701 94.8631 32.1202C95.553 29.8972 96.3962 27.5208 97.3927 24.9145C98.0827 22.6915 99.2325 19.8552 100.996 16.4823L100.536 16.1757C99.3858 17.8621 98.3126 19.5485 97.4694 21.3116C95.783 24.8378 94.4031 28.1341 93.4066 31.2003C92.7933 33.1934 91.8735 36.1064 90.5703 40.0158C90.0337 36.2597 89.4971 33.73 88.8072 32.5035C87.734 30.3571 86.3542 28.9006 84.821 28.1341C83.2879 27.3675 81.7548 27.2909 80.145 28.1341C78.8418 28.7473 77.9986 29.7439 77.6153 30.8937C77.1554 32.1202 77.3087 33.3467 77.9219 34.5732C78.6885 35.953 79.685 36.7963 81.0649 37.0262L81.9081 35.2631C80.8349 35.1098 80.0683 34.7265 79.7617 34.1133C79.6084 33.73 79.5317 33.2701 79.5317 32.6568C79.5317 32.0436 79.7617 31.507 80.0683 30.9704C80.2216 30.5871 80.5283 30.3571 80.8349 30.2038C81.9081 29.6672 82.9813 29.6672 83.9778 30.2038C84.9744 30.7404 85.8942 31.8136 86.7375 33.3467C87.8107 35.4931 88.5006 38.0994 88.8072 41.319C88.9605 43.1588 88.9605 44.6152 88.8072 45.6884C88.7305 46.8383 88.3473 49.138 87.6573 52.5875C87.2741 54.8872 86.9674 57.4935 86.6608 60.2532C86.2009 59.1033 85.6643 57.8768 85.051 56.6503C83.9778 54.5806 82.6747 53.1241 80.9882 52.2809C79.3784 51.4377 77.7686 51.4377 76.1588 52.2809C75.3923 52.6642 74.8557 53.2008 74.3957 53.8907C73.9358 54.5806 73.7058 55.3472 73.6292 56.1137C73.6292 56.9569 73.7825 57.7235 74.1658 58.5667C74.7024 59.6399 75.7756 60.4831 77.3853 60.8664L77.8453 59.4866C77.0021 59.0267 76.3888 58.4901 76.1588 57.9535C75.8522 57.3402 75.8522 56.6503 76.0055 55.8071C76.2355 54.9639 76.6188 54.4273 77.232 54.1207C78.1519 53.6607 79.3784 53.8907 80.7582 54.8872C82.1381 55.8838 83.2879 57.2636 84.2844 59.1033C85.3576 61.1731 86.1242 64.3926 86.5841 68.7621C82.598 70.7551 78.9951 71.5217 75.6989 70.8318C72.4027 70.2185 69.7197 67.8422 67.7266 63.856C66.5767 61.633 66.0401 59.3333 65.9635 56.9569C65.9635 54.5806 66.4234 52.4342 67.4966 50.5178L67.2667 50.3645ZM73.7058 97.2016C74.549 100.038 74.2424 103.028 72.7093 106.017C70.9462 109.467 68.2632 111.843 64.737 112.993C61.2108 114.143 57.7612 113.913 54.465 112.226C53.0852 111.536 52.1653 110.847 51.7053 110.157L49.2523 106.86C49.2523 106.86 48.9457 106.554 48.4091 106.017C48.4858 109.16 48.0258 111.766 46.876 113.989C45.8794 115.906 44.5763 117.439 42.9665 118.589C41.3567 119.739 39.5169 120.352 37.6005 120.505C35.6074 120.582 33.7677 120.199 31.9279 119.279C28.7083 117.669 26.4853 114.143 25.0288 108.777C23.1124 111.23 20.8127 112.84 18.053 113.529C15.2934 114.219 12.6104 113.913 10.0041 112.533C8.31763 111.69 6.93781 110.617 5.78796 109.237C4.71477 107.857 3.87154 106.324 3.25829 104.714C2.72169 103.028 2.41506 101.341 2.56838 99.4247C2.56838 97.5849 3.10497 95.8985 3.87154 94.3653C5.94127 90.3792 9.54414 88.0028 14.8335 87.3896C17.5931 87.0063 19.8928 87.2363 21.7326 88.1562C21.7326 88.1562 21.8092 88.3095 21.8859 88.3095C21.9625 88.3095 22.1158 88.4628 22.2692 88.5395C21.0426 86.2398 20.3527 84.0934 20.1994 81.947C20.0461 79.8006 20.5061 77.8075 21.4259 75.9678C22.3458 74.2047 23.5723 72.8249 25.1055 71.8283C26.6386 70.8318 28.4017 70.2185 30.2415 70.0652C32.1579 69.9119 33.921 70.2952 35.7607 71.2151C39.2869 72.9782 41.9699 76.1977 43.963 80.7971C43.963 80.4905 43.963 80.1839 44.1163 80.0306C44.1163 79.8773 44.1163 79.7239 44.1163 79.6473C44.423 77.5776 44.7296 75.9678 45.0362 74.8179C45.3428 73.6681 45.6495 72.5949 46.1861 71.7517C47.1059 69.8352 48.5624 68.3788 50.4788 67.3056C52.3952 66.309 54.5416 65.7724 56.918 65.7724C59.2944 65.7724 61.5941 66.3857 63.8171 67.5356C67.8032 69.6053 70.1796 72.2883 70.7929 75.5078C71.4061 78.8041 70.7929 82.4069 68.7231 86.3931C64.3537 85.9331 61.1341 85.1666 59.0644 84.0934C57.2246 83.1735 55.8448 82.0236 54.8483 80.5672C53.8517 79.1873 53.6218 78.0375 54.1584 77.041C54.465 76.4277 55.0016 76.0444 55.8448 75.8145C56.688 75.5845 57.3779 75.5845 57.9912 75.9678C58.5278 76.2744 58.9877 76.811 59.5243 77.6542L60.9041 77.1943C60.4442 75.6611 59.6776 74.588 58.6044 73.9747C57.8379 73.5914 56.9947 73.3615 56.1514 73.4381C55.3082 73.4381 54.5416 73.7447 53.9284 74.2047C53.2385 74.588 52.7019 75.2012 52.3186 75.9678C51.4754 77.5776 51.4754 79.1873 52.3186 80.7971C53.1618 82.4069 54.6183 83.7867 56.688 84.8599C57.9145 85.4732 59.141 86.0098 60.2909 86.4697C57.5312 86.7763 55.0016 87.083 52.6252 87.4663C49.1757 88.1562 46.876 88.5395 45.7261 88.6161C44.6529 88.6928 43.1198 88.6928 41.3567 88.6161C38.1371 88.3095 35.4541 87.6196 33.3844 86.5464C31.8512 85.7798 30.7781 84.8599 30.2415 83.7867C29.7049 82.7902 29.7049 81.717 30.2415 80.6438C30.3948 80.3372 30.7014 80.1072 31.008 79.8773C31.5446 79.5706 32.1579 79.4173 32.6945 79.3407C33.2311 79.3407 33.7677 79.3407 34.1509 79.5706C34.7642 79.8773 35.1475 80.5672 35.3008 81.717L37.0639 80.8738C36.8339 79.494 36.0674 78.4208 34.6109 77.6542C33.3844 77.041 32.1579 76.8876 30.9314 77.3476C29.7049 77.8075 28.785 78.6507 28.0951 79.8773C27.3285 81.4104 27.3285 82.9435 28.0951 84.5533C28.8616 86.0864 30.3181 87.4663 32.4645 88.5395C33.691 89.1527 36.2207 89.766 39.9769 90.2259C36.0674 91.4524 33.1544 92.4489 31.1613 93.0622C28.0951 94.0587 24.7988 95.4385 21.2726 97.125C19.5862 97.9682 17.8997 98.9647 16.1366 100.191L16.4432 100.728C19.8161 98.9647 22.6524 97.8149 24.8755 97.125C27.4818 96.1284 29.8582 95.3619 32.0812 94.5953C33.1544 94.2887 34.2276 93.9054 35.4541 93.4455C38.4437 92.5256 40.5901 91.9123 41.9699 91.759C38.7504 93.7521 36.5273 95.3619 35.1475 96.665C33.8443 97.9682 32.6945 99.578 31.6213 101.494C30.9314 102.874 30.4714 104.177 30.3948 105.327C30.3948 106.477 30.5481 107.55 31.0847 108.47C31.6213 109.39 32.4645 110.157 33.5377 110.693C34.6109 111.23 35.6841 111.383 36.7573 111.153C37.8305 110.847 38.597 110.157 39.2103 109.007C39.7469 107.934 39.9002 106.86 39.6702 105.787L37.6005 106.324C37.9838 106.784 37.9838 107.32 37.6772 107.857C37.3705 108.393 36.9872 108.7 36.2973 108.853C35.6841 109.007 35.0708 108.93 34.4576 108.7C33.461 108.164 32.9244 107.32 32.7711 106.17C32.6178 105.021 33.0011 103.641 33.7677 102.108C35.2241 99.2714 37.2939 96.895 40.0535 94.8253C41.74 93.5988 43.5031 92.6022 45.2662 91.8357C47.1059 91.0691 49.329 90.3792 51.9353 89.8426C54.5416 89.2294 57.6846 88.7694 61.2874 88.3095C58.9111 89.536 57.2246 90.6858 56.1514 91.6057C55.1549 92.5256 54.1584 93.8288 53.3918 95.3619C52.3952 97.3549 52.0886 99.1947 52.4719 100.958C52.8552 102.644 53.9284 103.947 55.6148 104.791C56.918 105.481 58.2212 105.634 59.4477 105.251C60.7508 104.944 61.6707 104.177 62.2073 103.028C62.6672 102.108 62.8972 101.264 62.7439 100.651C62.6673 99.9613 62.2073 99.2714 61.4407 98.5815L59.831 99.578C59.9843 100.498 59.9843 101.188 59.6776 101.648C59.371 102.184 58.9111 102.644 58.1445 103.028C57.3779 103.334 56.7647 103.411 56.3047 103.104C55.3082 102.644 54.7716 101.724 54.5416 100.498C54.3117 99.2714 54.5416 98.0449 55.1549 96.8184C56.6114 93.9821 58.7578 91.6824 61.7474 89.766C63.5871 88.6161 65.7335 88.0795 68.1099 88.2328C70.7929 91.2224 72.556 94.212 73.3992 97.0483L73.7058 97.2016ZM80.9116 88.1562C77.462 87.2363 74.0124 86.623 70.5629 86.4697C71.1761 85.7032 71.5594 85.0899 71.7894 84.63C72.9392 82.3303 73.4758 79.9539 73.3992 77.5009C73.3225 75.4312 72.6326 73.5914 71.7127 71.7517C73.5525 72.7482 75.4689 73.3615 77.462 73.4381C79.915 73.5148 82.2914 72.9782 84.5911 71.8283C85.051 71.5983 85.6643 71.2151 86.4308 70.6018C86.6608 74.0514 87.1974 77.5009 88.1173 80.8738C89.0372 84.3233 90.2637 87.5429 91.8735 90.5325C92.4867 91.6824 93.1 92.6789 93.7899 93.7521C92.7933 93.1388 91.7202 92.4489 90.5703 91.8357C87.5807 90.3025 84.2844 89.076 80.9116 88.0795V88.1562Z" />
    <path
        d="M673.505 577.147C671.972 574.694 669.979 572.855 667.372 571.552C662.313 569.022 657.33 569.635 652.424 573.621C651.121 569.252 648.745 566.186 645.218 564.346C643.149 563.273 640.926 562.813 638.626 563.043C636.326 563.273 634.18 563.962 632.263 565.266C630.27 566.569 628.737 568.332 627.664 570.478C627.051 571.705 626.591 573.315 626.208 575.384C625.288 574.005 623.525 572.625 620.918 571.245C618.465 570.018 615.936 569.558 613.253 569.865C610.646 570.172 608.193 571.168 605.894 572.855C603.67 574.541 601.831 576.764 600.451 579.371C598.994 582.207 598.764 585.273 599.608 588.569C600.451 591.866 602.061 594.779 604.437 597.308L603.364 597.155C597.538 596.388 592.479 594.932 588.186 592.785C585.886 591.559 583.74 590.256 581.823 588.723C579.907 587.266 578.22 585.58 576.611 583.74C573.774 580.29 571.935 576.994 571.245 573.928C570.555 570.862 570.861 567.872 572.318 565.112C573.698 562.429 575.844 560.59 578.757 559.593C581.67 558.597 584.506 558.827 587.189 560.206C588.722 560.973 589.949 562.123 590.945 563.503C591.942 564.959 592.479 566.492 592.709 568.179C592.939 569.865 592.709 571.398 591.942 572.778C591.329 574.005 590.486 575.001 589.336 575.844C588.186 576.688 586.959 577.147 585.656 577.377C584.353 577.531 583.203 577.377 582.207 576.841C581.057 576.228 580.214 575.384 579.754 574.235C579.294 573.085 579.294 572.011 579.754 571.168C580.29 570.018 581.133 569.329 582.283 569.022C583.356 568.715 584.583 568.869 586.039 569.328L586.423 566.875C585.12 566.416 583.97 566.186 582.82 566.262C581.67 566.262 580.673 566.645 579.83 567.182C578.987 567.719 578.297 568.562 577.761 569.558C576.841 571.322 576.764 573.085 577.454 575.001C578.144 576.918 579.37 578.374 581.133 579.294C582.513 579.984 584.046 580.214 585.733 579.984C587.419 579.754 589.029 579.141 590.486 578.067C591.942 576.994 593.092 575.614 593.935 573.928C594.625 572.548 595.008 571.168 595.085 569.635C595.162 568.102 594.932 566.646 594.395 565.112C593.858 563.656 593.015 562.276 591.942 561.126C590.869 559.9 589.642 558.98 588.109 558.213C586.039 557.14 583.816 556.68 581.44 556.833C579.064 556.987 576.841 557.677 574.924 558.98C572.931 560.206 571.398 561.893 570.325 564.039C569.558 565.572 569.098 567.335 568.945 569.405C568.792 571.398 568.945 573.545 569.558 575.691C570.095 577.914 570.938 579.907 572.088 581.824C570.248 580.674 568.178 579.83 565.955 579.294C563.732 578.757 561.663 578.527 559.67 578.681C557.676 578.757 555.837 579.294 554.304 580.06C552.157 581.134 550.471 582.743 549.244 584.736C547.941 586.73 547.251 588.876 547.098 591.252C546.945 593.629 547.404 595.852 548.478 597.921C549.244 599.455 550.241 600.758 551.467 601.754C552.694 602.827 553.997 603.594 555.453 604.131C556.91 604.667 558.443 604.974 559.976 604.821C561.509 604.821 562.889 604.361 564.269 603.671C565.955 602.827 567.335 601.678 568.332 600.221C569.405 598.765 570.018 597.232 570.248 595.468C570.478 593.782 570.248 592.249 569.558 590.869C568.638 589.106 567.182 587.803 565.265 587.189C563.349 586.5 561.509 586.653 559.823 587.496C558.75 588.033 557.983 588.723 557.446 589.566C556.91 590.409 556.603 591.406 556.527 592.556C556.527 593.705 556.68 594.932 557.14 596.158L559.593 595.775C559.056 594.319 558.98 593.092 559.21 592.019C559.516 590.946 560.206 590.102 561.356 589.489C562.199 589.029 563.272 589.029 564.422 589.489C565.572 589.949 566.492 590.792 567.029 591.942C567.565 592.939 567.718 594.089 567.565 595.392C567.412 596.695 566.875 597.921 566.032 599.071C565.189 600.221 564.192 601.064 562.966 601.678C561.586 602.368 560.053 602.674 558.366 602.444C556.68 602.214 555.147 601.601 553.69 600.681C552.311 599.761 551.161 598.458 550.394 596.925C549.014 594.242 548.861 591.406 549.781 588.493C550.777 585.58 552.617 583.433 555.3 582.054C558.136 580.597 561.049 580.29 564.116 580.98C567.182 581.67 570.478 583.51 573.928 586.346C575.767 587.879 577.454 589.643 578.91 591.482C580.443 593.399 581.747 595.468 582.973 597.845C585.12 602.138 586.576 607.197 587.343 613.023L587.496 614.096C584.966 611.72 582.053 610.11 578.757 609.267C575.461 608.423 572.395 608.73 569.635 610.187C566.952 611.566 564.806 613.329 563.119 615.629C561.433 617.852 560.436 620.305 560.129 622.988C559.823 625.671 560.283 628.201 561.509 630.654C562.812 633.337 564.192 635.1 565.649 635.943C563.579 636.326 561.969 636.786 560.743 637.4C558.596 638.55 556.91 640.006 555.53 641.999C554.227 643.992 553.46 646.139 553.23 648.362C553.077 650.661 553.46 652.884 554.533 654.954C556.297 658.48 559.44 660.933 563.809 662.16C559.823 667.142 559.21 672.125 561.739 677.108C563.042 679.638 564.882 681.707 567.335 683.24C569.788 684.774 572.395 685.54 575.231 685.693C578.067 685.847 580.75 685.233 583.356 683.93C587.573 681.784 590.102 678.181 590.792 673.198C591.252 670.669 591.252 668.446 590.639 666.683H591.405C593.782 667.449 595.698 667.679 597.078 667.602C598.534 667.602 599.991 667.142 601.524 666.376C603.594 665.303 605.28 663.846 606.507 662.006C607.733 660.167 608.423 658.174 608.5 655.951C608.5 653.804 608.04 651.581 606.967 649.435C606.124 647.825 605.127 646.445 604.054 645.372C602.981 644.299 601.601 643.379 599.914 642.612C601.831 642.612 603.517 642.306 604.897 641.539C607.35 640.313 609.266 638.55 610.723 636.326C612.179 634.103 612.869 631.65 612.946 628.891C612.946 626.131 612.333 623.448 611.03 620.765C610.876 620.535 610.723 620.382 610.57 620.152C610.8 620.305 610.953 620.459 611.183 620.612C613.866 621.992 616.625 622.605 619.308 622.605C622.068 622.528 624.521 621.762 626.744 620.382C628.967 618.925 630.73 617.009 631.957 614.556C632.647 613.176 633.03 611.49 633.03 609.573C633.797 611.26 634.716 612.64 635.79 613.713C636.863 614.786 638.243 615.782 639.852 616.626C641.999 617.776 644.145 618.235 646.368 618.159C648.515 618.159 650.584 617.469 652.424 616.166C654.264 614.939 655.72 613.253 656.794 611.183C657.56 609.727 657.943 608.193 658.02 606.814C658.02 605.357 657.79 603.441 657.177 601.141V600.374C658.863 600.911 661.01 600.988 663.616 600.528C668.599 599.761 672.202 597.308 674.348 593.092C675.651 590.486 676.264 587.803 676.111 584.966C675.958 582.13 675.115 579.524 673.658 577.071L673.505 577.147ZM584.123 595.315C583.51 594.165 582.896 593.092 582.207 592.096C583.28 592.709 584.276 593.399 585.426 594.012C588.416 595.545 591.712 596.772 595.085 597.768C598.534 598.688 601.907 599.301 605.357 599.455C604.744 600.221 604.36 600.834 604.13 601.218C602.981 603.517 602.444 605.894 602.521 608.347C602.597 610.417 603.287 612.256 604.207 614.096C602.367 613.099 600.451 612.486 598.458 612.41C596.005 612.41 593.628 612.869 591.329 614.019C590.869 614.249 590.256 614.633 589.566 615.246C589.336 611.796 588.799 608.347 587.879 604.974C586.959 601.524 585.656 598.305 584.123 595.315ZM608.806 635.56C607.733 637.476 606.277 638.856 604.36 639.853C603.44 640.313 602.444 640.696 601.217 641.003C600.068 641.309 598.458 641.616 596.388 641.922C596.311 641.922 596.158 641.922 596.005 641.922C595.852 641.922 595.545 641.999 595.238 642.076C599.838 644.069 603.057 646.752 604.82 650.278C605.74 652.041 606.124 653.881 605.97 655.797C605.817 657.714 605.204 659.4 604.207 660.933C603.211 662.466 601.831 663.693 600.068 664.613C598.228 665.533 596.235 665.993 594.088 665.839C591.942 665.686 589.796 665.073 587.496 663.77C587.573 663.923 587.649 664.076 587.726 664.153C587.726 664.153 587.803 664.306 587.879 664.306C588.799 666.146 589.106 668.522 588.646 671.205C587.956 676.495 585.656 680.097 581.67 682.167C580.137 682.934 578.45 683.394 576.611 683.47C574.771 683.547 573.008 683.317 571.321 682.78C569.712 682.244 568.178 681.401 566.799 680.251C565.419 679.101 564.346 677.721 563.502 676.035C562.199 673.428 561.893 670.745 562.506 668.062C563.196 665.303 564.806 662.926 567.259 661.01C561.893 659.63 558.366 657.33 556.68 654.111C555.76 652.271 555.377 650.431 555.453 648.438C555.607 646.445 556.22 644.682 557.293 642.996C558.443 641.386 559.976 640.083 561.893 639.086C564.039 637.936 566.722 637.476 569.865 637.553C569.328 637.016 569.022 636.71 569.022 636.71L565.725 634.257C565.036 633.797 564.346 632.877 563.656 631.497C561.969 628.201 561.739 624.751 562.889 621.225C564.039 617.622 566.415 615.016 569.865 613.176C572.854 611.643 575.844 611.26 578.68 612.18C581.517 613.023 584.506 614.863 587.496 617.469C587.649 619.845 587.113 621.992 585.963 623.831C584.046 626.821 581.747 629.044 578.91 630.424C577.684 631.037 576.457 631.267 575.231 631.037C574.004 630.807 573.084 630.271 572.624 629.274C572.395 628.814 572.395 628.124 572.701 627.434C573.008 626.668 573.468 626.208 574.081 625.901C574.541 625.671 575.231 625.595 576.151 625.824L577.147 624.215C576.457 623.448 575.767 622.988 575.078 622.912C574.388 622.835 573.621 622.912 572.701 623.448C571.551 623.985 570.861 624.981 570.555 626.208C570.248 627.511 570.325 628.737 571.015 630.041C571.858 631.727 573.161 632.8 574.848 633.184C576.534 633.567 578.374 633.26 580.444 632.264C581.977 631.497 583.203 630.501 584.2 629.504C585.12 628.508 586.269 626.744 587.496 624.368C587.036 627.971 586.576 631.037 585.963 633.72C585.426 636.326 584.736 638.55 583.97 640.389C583.203 642.152 582.207 643.915 580.98 645.602C578.91 648.362 576.534 650.431 573.698 651.811C572.165 652.654 570.785 652.961 569.635 652.808C568.485 652.654 567.642 652.118 567.105 651.121C566.799 650.585 566.722 649.971 566.952 649.281C567.105 648.668 567.412 648.208 567.948 647.902C568.485 647.595 569.022 647.672 569.482 647.978L569.942 645.909C568.868 645.679 567.795 645.832 566.722 646.369C565.572 646.905 564.882 647.748 564.576 648.822C564.346 649.895 564.499 650.968 565.035 652.041C565.572 653.114 566.339 653.958 567.259 654.494C568.178 655.031 569.252 655.261 570.401 655.184C571.551 655.184 572.855 654.724 574.234 653.958C576.227 652.961 577.837 651.734 579.064 650.431C580.29 649.128 581.977 646.828 583.97 643.686C583.816 645.065 583.203 647.212 582.207 650.201C581.747 651.351 581.363 652.501 581.057 653.574C580.367 655.797 579.524 658.174 578.527 660.78C577.837 663.003 576.687 665.839 574.924 669.212L575.461 669.519C576.611 667.832 577.684 666.146 578.527 664.459C580.214 660.933 581.593 657.637 582.59 654.571C583.203 652.578 584.123 649.665 585.426 645.755C585.963 649.511 586.499 652.041 587.189 653.268C588.262 655.414 589.642 656.87 591.175 657.637C592.709 658.404 594.242 658.48 595.852 657.637C597.155 656.947 597.998 656.027 598.381 654.801C598.841 653.574 598.688 652.348 598.075 651.121C597.308 649.741 596.311 648.898 594.932 648.668L594.088 650.431C595.162 650.585 595.928 650.968 596.235 651.581C596.465 651.964 596.465 652.424 596.465 653.038C596.465 653.651 596.235 654.187 595.928 654.801C595.775 655.184 595.468 655.414 595.162 655.567C594.088 656.104 593.015 656.104 592.019 655.567C591.022 655.031 590.102 653.958 589.259 652.424C588.186 650.278 587.496 647.672 587.189 644.452C587.113 642.612 587.113 641.156 587.189 640.006C587.266 638.856 587.649 636.556 588.339 633.107C588.722 630.807 589.029 628.201 589.336 625.441C589.796 626.668 590.332 627.818 590.945 629.044C592.019 631.114 593.322 632.57 595.008 633.413C596.618 634.257 598.228 634.257 599.838 633.413C600.604 633.03 601.141 632.494 601.601 631.804C602.061 631.114 602.291 630.347 602.367 629.581C602.367 628.737 602.214 627.971 601.831 627.128C601.294 626.054 600.221 625.211 598.611 624.828L598.151 626.208C598.994 626.668 599.608 627.204 599.838 627.741C600.144 628.354 600.144 629.044 599.991 629.887C599.761 630.731 599.378 631.267 598.764 631.574C597.845 632.034 596.618 631.804 595.238 630.807C593.858 629.811 592.709 628.431 591.789 626.591C590.715 624.521 589.949 621.302 589.489 616.932C593.475 614.863 597.078 614.249 600.374 614.863C603.67 615.552 606.353 617.852 608.347 621.838C609.496 624.061 610.033 626.361 610.11 628.737C610.11 631.114 609.65 633.26 608.577 635.177L608.806 635.56ZM672.278 591.559C670.209 595.545 666.606 597.845 661.316 598.535C658.557 598.995 656.257 598.688 654.417 597.768C654.417 597.768 654.341 597.691 654.264 597.615C654.264 597.615 654.034 597.462 653.881 597.385C655.107 599.608 655.797 601.831 655.95 603.977C656.104 606.124 655.644 608.117 654.724 609.957C653.804 611.72 652.577 613.099 651.044 614.096C649.511 615.093 647.748 615.706 645.908 615.859C643.992 616.012 642.229 615.629 640.389 614.709C636.863 612.946 634.18 609.727 632.187 605.127C632.187 605.434 632.187 605.74 632.033 605.894C632.033 606.047 632.033 606.2 632.033 606.277C631.727 608.347 631.42 609.957 631.114 611.03C630.807 612.18 630.5 613.253 629.964 614.173C628.967 616.089 627.587 617.546 625.671 618.619C623.755 619.615 621.608 620.152 619.232 620.152C616.855 620.152 614.556 619.539 612.333 618.389C608.347 616.319 605.97 613.636 605.357 610.416C604.667 607.12 605.357 603.517 607.427 599.531C611.796 599.991 615.016 600.758 617.162 601.831C619.002 602.751 620.382 603.901 621.378 605.28C622.375 606.66 622.605 607.887 622.068 608.807C621.761 609.42 621.225 609.803 620.382 610.033C619.538 610.263 618.849 610.187 618.235 609.88C617.699 609.573 617.239 609.037 616.702 608.193L615.322 608.653C615.782 610.187 616.549 611.26 617.622 611.873C618.465 612.256 619.232 612.486 620.075 612.41C620.918 612.41 621.608 612.103 622.375 611.643C623.065 611.183 623.601 610.646 623.985 609.88C624.828 608.27 624.828 606.66 623.985 605.051C623.141 603.441 621.685 602.061 619.615 600.988C618.389 600.374 617.162 599.838 616.012 599.378C618.772 599.071 621.302 598.765 623.678 598.381C627.127 597.691 629.427 597.308 630.577 597.232C631.65 597.155 633.183 597.155 634.946 597.232C638.166 597.538 640.849 598.228 642.919 599.301C644.452 600.068 645.525 600.988 646.062 602.061C646.598 603.057 646.598 604.131 646.062 605.204C645.908 605.51 645.602 605.74 645.295 605.97C644.758 606.277 644.145 606.43 643.532 606.507C642.995 606.507 642.459 606.507 642.076 606.277C641.462 605.97 641.079 605.28 640.926 604.131L639.163 604.974C639.393 606.354 640.236 607.427 641.616 608.117C642.842 608.73 644.069 608.807 645.295 608.423C646.522 607.964 647.442 607.12 648.131 605.894C648.898 604.361 648.898 602.827 648.131 601.218C647.365 599.685 645.908 598.305 643.762 597.232C642.535 596.618 640.006 596.005 636.25 595.545C640.159 594.319 643.072 593.322 645.065 592.709C648.131 591.712 651.428 590.332 655.03 588.646C656.717 587.803 658.403 586.73 660.09 585.58L659.783 585.12C656.41 586.883 653.574 588.033 651.351 588.723C648.745 589.643 646.368 590.486 644.145 591.252C643.072 591.559 641.999 591.942 640.772 592.402C637.783 593.399 635.636 593.935 634.257 594.165C637.476 592.172 639.699 590.562 641.002 589.259C642.306 587.956 643.455 586.346 644.529 584.43C645.218 583.05 645.602 581.747 645.755 580.52C645.755 579.371 645.602 578.297 645.065 577.377C644.529 576.458 643.685 575.691 642.612 575.154C641.539 574.618 640.466 574.464 639.393 574.694C638.319 575.001 637.553 575.691 636.939 576.841C636.403 577.914 636.25 578.987 636.48 580.06L638.549 579.6C638.166 579.141 638.166 578.604 638.473 578.067C638.779 577.531 639.163 577.224 639.852 577.071C640.466 576.917 641.079 576.994 641.692 577.301C642.689 577.837 643.302 578.681 643.379 579.83C643.532 580.98 643.149 582.36 642.382 583.97C640.926 586.806 638.856 589.183 636.173 591.252C634.486 592.479 632.723 593.475 630.96 594.242C629.121 595.008 626.897 595.622 624.291 596.235C621.608 596.848 618.542 597.385 614.939 597.768C617.315 596.542 619.002 595.392 620.075 594.472C621.072 593.552 622.068 592.249 622.835 590.716C623.831 588.723 624.138 586.883 623.755 585.196C623.371 583.51 622.298 582.207 620.612 581.364C619.308 580.674 618.005 580.52 616.779 580.904C615.552 581.21 614.556 581.977 614.019 583.127C613.559 584.047 613.329 584.813 613.483 585.503C613.559 586.193 614.019 586.883 614.786 587.573L616.396 586.576C616.242 585.656 616.242 584.966 616.549 584.507C616.855 583.893 617.315 583.51 618.082 583.127C618.849 582.82 619.462 582.743 619.922 583.05C620.918 583.51 621.455 584.43 621.685 585.656C621.915 586.883 621.685 588.109 621.072 589.336C619.615 592.172 617.469 594.472 614.479 596.388C612.639 597.538 610.493 598.075 608.117 597.921C605.51 594.932 603.67 591.942 602.827 589.106C601.984 586.27 602.291 583.28 603.824 580.29C605.587 576.841 608.27 574.464 611.873 573.315C615.399 572.165 618.849 572.395 622.145 574.081C623.525 574.771 624.444 575.461 624.904 576.151L627.357 579.447C627.357 579.447 627.664 579.754 628.201 580.29C628.124 577.147 628.584 574.541 629.734 572.318C630.73 570.402 632.034 568.869 633.643 567.719C635.253 566.569 637.093 565.956 639.086 565.879C641.079 565.726 642.919 566.186 644.759 567.105C647.978 568.715 650.201 572.241 651.658 577.684C653.574 575.231 655.874 573.621 658.633 572.931C661.393 572.241 664.076 572.548 666.606 573.928C668.292 574.771 669.672 575.844 670.822 577.224C671.972 578.604 672.738 580.137 673.351 581.747C673.888 583.433 674.195 585.12 674.041 587.036C674.041 588.876 673.581 590.562 672.738 592.096L672.278 591.559Z" />
    <path
        d="M126.959 584.736C125.732 582.743 124.046 581.21 121.9 580.137C120.366 579.37 118.603 578.911 116.534 578.757C114.541 578.604 112.394 578.757 110.248 579.37C108.025 579.907 106.032 580.75 104.115 581.9C105.265 579.984 106.032 577.991 106.645 575.768C107.182 573.545 107.412 571.475 107.258 569.482C107.105 567.489 106.645 565.649 105.878 564.192C104.805 562.046 103.272 560.36 101.279 559.133C99.2859 557.83 97.1395 557.14 94.7632 556.987C92.3868 556.833 90.1638 557.293 88.0941 558.367C86.5609 559.133 85.2578 560.13 84.2612 561.356C83.188 562.583 82.4215 563.886 81.8082 565.342C81.2716 566.799 81.0417 568.332 81.1183 569.865C81.1183 571.398 81.5016 572.778 82.1915 574.158C83.0347 575.844 84.1846 577.224 85.6411 578.297C87.0975 579.37 88.6307 579.984 90.3171 580.214C92.0035 580.444 93.5367 580.214 94.9165 579.524C96.6796 578.604 97.9828 577.224 98.596 575.231C99.2859 573.315 99.1326 571.551 98.2894 569.788C97.7528 568.715 97.0629 567.949 96.2197 567.412C95.3764 566.875 94.3799 566.569 93.23 566.492C92.0802 566.492 90.8537 566.645 89.6272 567.105L90.0105 569.558C91.4669 569.022 92.6935 568.945 93.7666 569.175C94.8398 569.482 95.6831 570.172 96.2963 571.321C96.7563 572.241 96.7563 573.238 96.2963 574.388C95.8364 575.538 94.9932 576.457 93.8433 576.994C92.8468 577.531 91.6969 577.684 90.3938 577.531C89.0906 577.377 87.8641 576.841 86.7142 575.998C85.5644 575.154 84.7212 574.158 84.1079 572.931C83.418 571.551 83.1114 570.018 83.3414 568.332C83.5713 566.645 84.1846 565.112 85.1045 563.733C86.0243 562.276 87.3275 561.203 88.8606 560.436C91.5436 559.056 94.3799 558.903 97.2928 559.823C100.206 560.82 102.352 562.659 103.732 565.342C105.188 568.179 105.495 571.092 104.805 574.158C104.115 577.224 102.276 580.52 99.4392 583.97C97.9061 585.81 96.143 587.496 94.2266 589.029C92.3102 590.486 90.1638 591.865 87.8641 593.092C83.5713 595.238 78.5886 596.695 72.6861 597.461L71.6129 597.615C73.9893 595.085 75.599 592.172 76.4423 588.876C77.2855 585.58 76.9789 582.513 75.599 579.677C74.2192 577.071 72.4561 574.848 70.1564 573.161C67.9334 571.475 65.4804 570.478 62.7974 570.172C60.1144 569.865 57.5847 570.325 55.1317 571.551C52.4487 572.855 50.7623 574.311 49.8424 575.691C49.4591 573.621 48.9992 572.011 48.3859 570.785C47.3127 568.639 45.7796 566.875 43.7865 565.572C41.7935 564.269 39.7237 563.503 37.424 563.273C35.1244 563.043 32.9013 563.503 30.8316 564.576C27.3054 566.339 24.8524 569.405 23.6259 573.775C18.6432 569.788 13.6605 569.098 8.67783 571.705C6.14816 573.008 4.07843 574.848 2.5453 577.301C1.01217 579.754 0.168945 582.36 0.0922881 585.196C-0.0610251 588.033 0.552228 590.716 1.85539 593.322C4.00177 597.538 7.60463 599.991 12.5873 600.758C15.1936 601.218 17.34 601.141 19.1031 600.604V601.371C18.3366 603.747 18.1066 605.664 18.1832 607.043C18.1832 608.5 18.6432 609.956 19.4097 611.49C20.4829 613.559 21.9394 615.246 23.7792 616.472C25.6189 617.699 27.612 618.389 29.835 618.465C31.9814 618.465 34.2045 618.005 36.3509 616.932C37.9606 616.089 39.3405 615.092 40.4137 614.019C41.4868 612.946 42.3301 611.566 43.1733 609.88C43.1733 611.873 43.4799 613.483 44.2465 614.862C45.473 617.315 47.2361 619.232 49.4591 620.688C51.6822 622.145 54.1352 622.835 56.8948 622.911C59.6545 622.911 62.3374 622.298 65.0204 620.918C65.2504 620.765 65.4037 620.612 65.6337 620.458C65.4804 620.688 65.3271 620.842 65.1737 621.072C63.7939 623.755 63.1807 626.514 63.1807 629.197C63.2573 631.957 64.0239 634.41 65.4037 636.633C66.8602 638.856 68.7766 640.619 71.2296 641.846C72.6094 642.535 74.2192 642.919 76.2123 642.919C74.5258 643.685 73.146 644.605 72.0728 645.678C70.9996 646.752 70.0031 648.131 69.1599 649.741C68.0867 651.888 67.5501 654.111 67.6267 656.257C67.6267 658.403 68.3167 660.473 69.6198 662.313C70.8463 664.153 72.5328 665.609 74.6025 666.682C76.1356 667.449 77.5921 667.832 79.0486 667.909C80.5051 667.909 82.4215 667.679 84.7212 667.066H85.4877C84.9511 668.752 84.8745 670.898 85.3344 673.505C86.101 678.487 88.554 682.09 92.7701 684.237C95.3764 685.54 98.0594 686.153 100.896 686C103.732 685.846 106.338 685.003 108.791 683.547C111.244 682.014 113.084 680.021 114.387 677.414C116.994 672.432 116.304 667.449 112.318 662.466C116.687 661.163 119.753 658.787 121.593 655.26C122.666 653.191 123.126 650.968 122.896 648.668C122.666 646.368 121.976 644.222 120.596 642.229C119.293 640.312 117.53 638.779 115.384 637.629C114.157 637.016 112.548 636.556 110.478 636.173C111.858 635.253 113.237 633.49 114.617 630.884C115.844 628.431 116.304 625.901 115.997 623.218C115.69 620.535 114.694 618.159 113.007 615.859C111.321 613.636 109.098 611.796 106.492 610.416C103.732 608.96 100.589 608.653 97.2928 609.496C93.9966 610.34 91.0837 611.949 88.554 614.326L88.7073 613.253C89.4739 607.427 90.9304 602.367 93.0767 598.151C94.3032 595.775 95.6064 593.705 97.1395 591.789C98.596 589.872 100.282 588.186 102.122 586.653C105.572 583.817 108.868 581.977 111.934 581.287C115.001 580.597 117.99 580.904 120.75 582.36C123.433 583.74 125.272 585.886 126.269 588.799C127.266 591.712 127.036 594.548 125.656 597.231C124.889 598.765 123.816 599.991 122.36 600.988C120.903 601.907 119.37 602.521 117.684 602.751C115.997 602.981 114.464 602.751 113.084 601.984C111.858 601.371 110.861 600.451 110.018 599.378C109.175 598.228 108.715 597.001 108.485 595.698C108.331 594.395 108.485 593.245 109.021 592.249C109.635 591.099 110.478 590.256 111.628 589.796C112.777 589.336 113.851 589.336 114.694 589.796C115.844 590.409 116.534 591.176 116.84 592.325C117.147 593.399 116.994 594.625 116.457 596.082L118.91 596.465C119.37 595.162 119.6 593.935 119.523 592.862C119.523 591.712 119.14 590.716 118.603 589.872C118.067 589.029 117.224 588.339 116.227 587.803C114.464 586.883 112.701 586.806 110.784 587.496C108.868 588.109 107.412 589.412 106.492 591.176C105.802 592.555 105.572 594.089 105.802 595.775C106.032 597.461 106.645 599.071 107.718 600.528C108.791 601.984 110.171 603.134 111.858 603.977C113.237 604.667 114.617 605.05 116.15 605.05C117.684 605.05 119.14 604.897 120.673 604.36C122.13 603.824 123.509 602.981 124.659 601.907C125.886 600.834 126.806 599.608 127.649 598.075C128.722 596.005 129.182 593.782 129.029 591.406C128.875 589.029 128.185 586.806 126.882 584.89L126.959 584.736ZM63.6406 618.465C61.4176 619.615 59.1945 620.152 56.7415 620.228C54.3652 620.228 52.2188 619.768 50.3024 618.695C48.3859 617.622 47.0061 616.166 46.0096 614.249C45.5496 613.329 45.1664 612.333 44.8597 611.106C44.5531 609.956 44.2465 608.347 43.9399 606.277C43.9399 606.277 43.9399 606.047 43.9399 605.894C43.9399 605.74 43.8632 605.434 43.7865 605.127C41.7935 609.726 39.1105 612.946 35.5843 614.709C33.8212 615.629 31.9814 616.012 30.065 615.859C28.1486 615.706 26.4622 615.092 24.929 614.096C23.3959 613.099 22.1694 611.72 21.2495 609.956C20.3296 608.117 19.8697 606.124 20.023 603.977C20.0997 601.831 20.7896 599.608 22.0927 597.385C21.9394 597.461 21.7861 597.538 21.7094 597.615C21.7094 597.615 21.5561 597.691 21.5561 597.768C19.7164 598.688 17.34 598.995 14.657 598.535C9.36774 597.921 5.76488 595.545 3.69515 591.559C2.92858 590.026 2.46864 588.339 2.39199 586.5C2.31533 584.66 2.5453 582.897 3.0819 581.21C3.61849 579.6 4.46171 578.067 5.61156 576.687C6.76141 575.308 8.14123 574.234 9.82767 573.391C12.434 572.088 15.117 571.781 17.8766 572.395C20.6363 573.085 22.936 574.694 24.8524 577.147C26.3088 571.781 28.5319 568.255 31.7515 566.645C33.5912 565.726 35.431 565.342 37.424 565.419C39.4171 565.572 41.1802 566.186 42.79 567.259C44.3998 568.409 45.703 569.942 46.6995 571.858C47.7727 574.004 48.3093 576.687 48.2326 579.83C48.7692 579.294 49.0759 578.987 49.0759 578.987L51.5289 575.691C51.9888 575.001 52.9087 574.311 54.2885 573.621C57.5847 571.935 61.0343 571.705 64.5605 572.855C68.1633 574.005 70.7697 576.381 72.5328 579.83C74.0659 582.82 74.4492 585.81 73.5293 588.646C72.6861 591.482 70.8463 594.472 68.24 597.461C65.8636 597.615 63.7173 597.078 61.8775 595.928C58.8879 594.012 56.6649 591.712 55.285 588.876C54.6718 587.649 54.4418 586.423 54.6718 585.196C54.9018 583.97 55.4384 583.127 56.4349 582.59C56.8948 582.36 57.5081 582.36 58.2746 582.667C58.9646 583.05 59.5011 583.51 59.8078 584.047C60.0377 584.506 60.1144 585.196 59.9611 586.116L61.5709 587.113C62.3374 586.423 62.7974 585.733 62.874 585.043C62.9507 584.353 62.874 583.587 62.3374 582.667C61.8008 581.517 60.8043 580.827 59.5778 580.444C58.2746 580.137 57.0481 580.29 55.745 580.904C54.0585 581.747 52.9853 583.05 52.6021 584.736C52.2188 586.423 52.5254 588.263 53.5219 590.332C54.2885 591.865 55.285 593.092 56.2816 594.089C57.2781 595.008 59.0412 596.158 61.4176 597.385C57.8147 596.925 54.7484 596.465 52.0655 595.852C49.4591 595.315 47.1594 594.625 45.3963 593.859C43.6332 593.092 41.8701 592.095 40.1837 590.869C37.424 588.799 35.3543 586.423 33.8978 583.587C33.0546 582.053 32.748 580.674 32.9013 579.524C32.978 578.374 33.5912 577.531 34.5878 576.994C35.201 576.687 35.8143 576.687 36.4275 576.841C37.0408 576.994 37.5007 577.377 37.8073 577.837C38.114 578.451 38.0373 578.911 37.7307 579.37L39.8004 579.907C40.0304 578.834 39.8771 577.761 39.3405 576.687C38.7272 575.538 37.9606 574.848 36.8875 574.541C35.8143 574.311 34.7411 574.388 33.6679 575.001C32.5947 575.538 31.7515 576.304 31.2149 577.224C30.6783 578.144 30.4483 579.217 30.525 580.367C30.525 581.517 30.9849 582.82 31.7515 584.276C32.748 586.27 33.9745 587.879 35.2777 589.106C36.5808 590.409 38.8805 592.019 42.1001 594.012C40.7203 593.859 38.5739 593.245 35.5843 592.249C34.4344 591.789 33.2846 591.406 32.2114 591.099C29.9884 590.409 27.612 589.566 25.0057 588.569C22.7826 587.879 19.9463 586.729 16.5735 584.966L16.2668 585.503C17.9533 586.653 19.6397 587.726 21.4028 588.569C24.929 590.256 28.2253 591.635 31.2915 592.632C33.2846 593.245 36.1975 594.165 40.107 595.468C36.3509 596.005 33.8212 596.542 32.5947 597.155C30.4483 598.228 28.9918 599.608 28.2253 601.141C27.4587 602.674 27.382 604.207 28.2253 605.817C28.9152 607.12 29.835 607.963 31.0616 608.347C32.2881 608.807 33.4379 608.653 34.7411 608.04C36.1209 607.273 36.9641 606.277 37.1941 604.897L35.431 604.054C35.2777 605.127 34.8944 605.894 34.2811 606.2C33.8978 606.354 33.4379 606.43 32.8247 606.43C32.2114 606.43 31.6748 606.2 31.1382 605.894C30.7549 605.74 30.525 605.434 30.3716 605.127C29.835 604.054 29.835 602.981 30.3716 601.984C30.9082 600.988 31.9814 600.068 33.5146 599.224C35.6609 598.151 38.2673 597.461 41.4868 597.155C43.3266 597.001 44.7831 597.001 45.8563 597.155C47.0061 597.231 49.3058 597.615 52.7554 598.305C55.0551 598.688 57.6614 598.995 60.421 599.301C59.1945 599.761 58.0447 600.298 56.8182 600.911C54.7484 601.984 53.292 603.364 52.4487 604.974C51.6055 606.584 51.6055 608.193 52.4487 609.803C52.832 610.57 53.3686 611.106 54.0585 611.566C54.7484 612.026 55.515 612.256 56.2816 612.333C57.1248 612.333 57.8914 612.179 58.7346 611.796C59.8078 611.26 60.651 610.186 61.0343 608.577L59.6545 608.117C59.1945 608.96 58.6579 609.573 58.1213 609.803C57.5081 610.11 56.8182 610.11 55.9749 609.88C55.1317 609.65 54.5951 609.267 54.2885 608.653C53.8286 607.733 54.0585 606.507 54.9784 605.127C55.9749 603.747 57.3548 602.597 59.1945 601.601C61.2642 600.528 64.4838 599.761 68.8533 599.301C70.8463 603.287 71.5362 606.89 70.923 610.186C70.2331 613.483 67.9334 616.166 63.9472 618.159L63.6406 618.465ZM97.2162 612.333C100.052 611.49 103.042 611.796 106.032 613.329C109.481 615.092 111.858 617.775 113.007 621.302C114.157 624.828 113.927 628.277 112.241 631.574C111.551 632.953 110.861 633.873 110.171 634.333L106.875 636.786C106.875 636.786 106.568 637.093 106.032 637.629C109.175 637.553 111.781 638.013 114.004 639.163C115.92 640.159 117.454 641.462 118.603 643.072C119.753 644.682 120.366 646.522 120.443 648.438C120.596 650.431 120.137 652.271 119.217 654.111C117.607 657.33 114.081 659.553 108.715 661.01C111.168 662.926 112.777 665.226 113.467 667.985C114.157 670.745 113.851 673.428 112.471 676.034C111.628 677.721 110.554 679.101 109.175 680.25C107.795 681.324 106.262 682.167 104.652 682.78C102.965 683.317 101.279 683.623 99.3626 683.47C97.5228 683.47 95.8364 682.933 94.3032 682.167C90.3171 680.097 87.9408 676.494 87.3275 671.205C86.8676 668.445 87.1742 666.146 88.0941 664.306C88.0941 664.306 88.1707 664.229 88.2474 664.153C88.2474 664.153 88.4007 663.923 88.4773 663.769C86.1776 664.996 84.0313 665.686 81.8849 665.839C79.7385 665.992 77.7454 665.532 75.9057 664.613C74.1426 663.693 72.7627 662.466 71.7662 660.933C70.7697 659.4 70.1564 657.637 70.0031 655.797C69.8498 653.881 70.2331 652.118 71.153 650.278C72.9161 646.752 76.1356 644.069 80.735 642.076C80.4284 642.076 80.1218 642.076 79.9685 641.922C79.8152 641.922 79.6618 641.922 79.5852 641.922C77.5154 641.616 75.9057 641.309 74.7558 641.002C73.606 640.696 72.5328 640.389 71.6129 639.929C69.6965 638.933 68.24 637.553 67.1668 635.636C66.1703 633.72 65.6337 631.574 65.6337 629.197C65.6337 626.821 66.2469 624.521 67.3968 622.298C69.4665 618.312 72.1495 615.936 75.3691 615.322C78.6653 614.709 82.2682 615.322 86.2543 617.392C85.7944 621.762 85.0278 624.981 83.9546 627.127C83.0347 628.967 81.8849 630.347 80.4284 631.344C79.0486 632.34 77.8987 632.57 76.9022 632.033C76.2889 631.727 75.9057 631.19 75.6757 630.347C75.4457 629.504 75.5224 628.814 75.829 628.201C76.1356 627.664 76.6722 627.204 77.5154 626.668L77.0555 625.288C75.5224 625.748 74.4492 626.514 73.8359 627.587C73.4527 628.431 73.2227 629.197 73.2993 629.964C73.2993 630.807 73.606 631.574 74.0659 632.187C74.5258 632.877 75.0624 633.413 75.829 633.797C77.4388 634.64 79.0486 634.64 80.6584 633.797C82.2682 632.953 83.648 631.497 84.7212 629.427C85.3344 628.201 85.871 626.974 86.331 625.824C86.6376 628.584 86.9442 631.114 87.3275 633.49C88.0174 636.94 88.4007 639.239 88.4773 640.389C88.554 641.539 88.554 642.995 88.4773 644.835C88.1707 648.055 87.4808 650.738 86.4076 652.807C85.6411 654.341 84.7212 655.414 83.648 655.95C82.6514 656.487 81.5783 656.487 80.5051 655.95C80.1984 655.797 79.9685 655.49 79.7385 655.184C79.4319 654.647 79.2785 654.034 79.2019 653.421C79.2019 652.884 79.2019 652.348 79.4319 651.964C79.7385 651.351 80.4284 650.968 81.5783 650.814L80.735 649.051C79.3552 649.281 78.282 650.048 77.5921 651.504C76.9789 652.731 76.9022 653.957 77.2855 655.184C77.7454 656.41 78.5886 657.33 79.8151 658.02C81.3483 658.787 82.8814 658.787 84.4912 658.02C86.0243 657.253 87.4042 655.797 88.4773 653.651C89.0906 652.424 89.7039 649.895 90.2404 646.138C91.467 650.048 92.4635 652.961 93.0767 654.954C94.0733 658.02 95.4531 661.316 97.1395 664.843C97.9828 666.529 98.9793 668.215 100.206 669.902L100.666 669.595C98.9026 666.222 97.7528 663.386 97.0629 661.163C96.143 658.557 95.2998 656.18 94.5332 653.957C94.2266 652.884 93.8433 651.811 93.3834 650.584C92.3868 647.595 91.8502 645.448 91.6203 643.992C93.6133 647.212 95.2231 649.435 96.5263 650.814C97.8295 652.118 99.4392 653.267 101.356 654.341C102.735 655.03 104.039 655.414 105.265 655.49C106.415 655.49 107.488 655.337 108.408 654.8C109.328 654.264 110.095 653.421 110.631 652.347C111.168 651.274 111.321 650.201 111.091 649.128C110.784 648.055 110.095 647.288 108.945 646.675C107.871 646.138 106.798 645.985 105.725 646.215L106.262 648.285C106.722 647.901 107.258 647.901 107.795 648.208C108.331 648.515 108.638 648.898 108.791 649.511C108.945 650.124 108.868 650.738 108.561 651.351C108.025 652.348 107.182 652.884 106.032 653.037C104.882 653.191 103.502 652.807 101.969 652.041C99.1326 650.584 96.7563 648.515 94.6865 645.755C93.46 644.069 92.4635 642.305 91.6969 640.542C90.9304 638.703 90.2404 636.48 89.7038 633.873C89.0906 631.19 88.6307 628.124 88.1707 624.521C89.3972 626.898 90.5471 628.584 91.467 629.657C92.3868 630.73 93.69 631.65 95.2231 632.417C97.2162 633.413 99.056 633.72 100.819 633.337C102.506 632.953 103.809 631.88 104.652 630.194C105.342 628.891 105.495 627.587 105.112 626.361C104.805 625.058 104.039 624.138 102.965 623.601C102.046 623.141 101.202 622.911 100.589 623.065C99.8992 623.141 99.2093 623.601 98.5194 624.368L99.5159 625.901C100.436 625.748 101.126 625.824 101.586 626.054C102.122 626.361 102.582 626.821 102.965 627.587C103.272 628.354 103.349 628.967 103.042 629.504C102.582 630.5 101.662 631.037 100.436 631.267C99.2093 631.497 97.9828 631.267 96.7563 630.654C93.92 629.197 91.6203 627.051 89.7038 624.061C88.554 622.221 88.0174 620.075 88.1707 617.699C91.1603 615.016 94.1499 613.253 96.9862 612.409L97.2162 612.333ZM91.9269 595.392C90.3938 598.458 89.1673 601.678 88.1707 605.05C87.2508 608.5 86.6376 611.949 86.4843 615.399C85.7177 614.786 85.1045 614.403 84.6445 614.173C82.3448 613.023 79.9685 612.486 77.5154 612.563C75.4457 612.639 73.606 613.329 71.7662 614.249C72.7627 612.409 73.376 610.493 73.4527 608.423C73.5293 605.97 72.9927 603.594 71.8429 601.294C71.6129 600.834 71.2296 600.221 70.6164 599.454C74.0659 599.224 77.5155 598.688 80.965 597.768C84.4146 596.848 87.6341 595.545 90.6237 594.012C91.7736 593.399 92.7701 592.785 93.8433 592.095C93.23 593.092 92.5401 594.165 91.9269 595.315V595.392Z" />
    <path d="M553.92 53.4292H119.967V61.1715H553.92V53.4292Z" />
    <path d="M128.936 76.7327H544.952L549.168 73.2065H124.72L128.936 76.7327Z" />
    <path d="M553.92 624.291H119.967V632.033H553.92V624.291Z" />
    <path d="M128.936 608.731H544.952L549.168 612.181H124.72L128.936 608.731Z" />
    <path d="M54.431 125.333H46.6837V559.21H54.431V125.333Z" />
    <path d="M70.0012 550.316V134.302L66.5377 130.086V554.533L70.0012 550.316Z" />
    <path d="M625.293 125.333H617.546V559.21H625.293V125.333Z" />
    <path d="M601.984 550.316V134.302L605.52 130.086V554.533L601.984 550.316Z" />
</svg>